{"glyphs":{"0":{"ha":672,"x_min":-8,"x_max":621,"o":"m -7 376 q 20 561 -8 474 q 93 733 49 649 q 116 780 106 757 q 126 831 126 803 q 154 878 126 857 q 201 908 178 894 q 256 925 225 922 q 283 925 269 929 q 353 907 319 919 q 415 871 386 894 q 442 856 433 868 q 461 833 451 844 q 522 750 496 794 q 567 658 547 706 q 579 630 574 643 q 593 604 585 617 q 618 519 615 563 q 610 432 621 476 q 581 347 599 388 q 539 267 563 306 q 479 177 511 219 q 407 99 447 135 q 340 51 375 69 q 263 25 306 32 q 168 46 211 17 q 137 69 153 57 q 106 93 121 81 q 49 169 69 125 q 47 175 47 172 q 44 179 47 178 q 4 250 13 211 q -7 329 -4 289 l -7 376 m 206 754 q 199 754 199 754 q 174 732 185 743 q 156 704 163 721 q 119 581 133 642 q 99 454 106 519 q 96 408 97 431 q 90 363 94 386 q 87 276 81 318 q 106 192 93 233 q 133 167 113 169 q 164 165 149 165 q 196 171 179 164 q 243 199 221 183 q 285 236 265 215 q 367 338 329 285 q 428 454 404 392 q 453 533 443 494 q 460 614 463 571 q 453 652 457 633 q 442 689 449 671 q 389 714 429 725 q 368 708 378 711 q 347 703 358 706 q 297 681 322 692 q 244 658 271 669 q 242 667 243 661 q 239 675 242 672 q 228 678 233 678 q 219 681 222 679 q 209 699 211 690 q 207 718 207 708 q 208 737 207 728 q 206 754 208 746 m 25 243 q 29 322 29 285 q 29 401 31 361 q 34 438 29 419 q 32 476 39 457 q 21 428 21 451 q 19 402 21 415 q 14 376 18 389 q 10 309 4 342 q 22 244 15 276 q 25 243 22 243 m 67 499 q 78 527 72 508 q 90 567 85 546 q 100 608 96 589 q 104 639 104 628 q 89 610 96 628 q 77 572 82 592 q 69 532 72 551 q 67 499 67 513 m 408 364 q 388 340 396 350 q 381 315 381 329 q 397 335 389 325 q 408 364 406 346 m 179 814 q 193 821 189 815 q 198 832 197 826 q 199 843 199 838 q 204 853 200 849 q 188 839 192 849 q 179 814 183 829 m 485 454 q 492 467 488 461 q 489 482 496 472 q 479 457 482 467 l 485 454 z "},"1":{"ha":333,"x_min":-42,"x_max":375,"o":"m 100 613 q 121 669 114 640 q 133 728 128 699 q 131 741 135 735 q 124 756 126 747 q 110 748 117 751 q 100 740 104 744 q 68 716 83 728 q 36 692 53 704 q 22 681 29 685 q 3 682 14 678 q 8 701 6 692 q 13 718 10 710 q -15 721 -3 717 q -33 744 -28 725 q -36 748 -33 747 q -42 751 -39 749 q -31 778 -39 767 q -14 800 -24 789 q 15 835 1 818 q 44 869 29 853 q 188 1001 110 942 q 209 1025 199 1013 q 233 1051 219 1038 q 240 1049 236 1050 q 251 1046 244 1049 q 263 1044 257 1044 q 274 1043 268 1044 q 299 1035 283 1040 q 300 1021 304 1031 q 297 1001 296 1011 q 310 1001 304 1001 q 322 1004 315 1001 q 344 967 333 985 q 365 929 354 949 q 371 890 375 911 q 311 651 346 771 q 283 553 296 603 q 257 453 269 503 q 248 409 251 431 q 242 365 244 388 q 238 326 239 346 q 226 288 236 307 q 226 269 224 279 q 231 220 233 244 q 226 171 228 196 q 226 165 226 168 q 225 158 225 161 q 220 69 225 114 q 225 -21 215 24 q 224 -31 225 -25 q 224 -43 224 -36 q 197 -42 210 -43 q 172 -31 185 -40 q 148 -10 158 -21 q 126 14 138 1 q 100 48 114 32 q 75 83 86 64 q 68 100 72 93 q 61 117 64 107 q 48 204 47 160 q 51 293 49 249 q 56 329 54 311 q 61 364 58 347 q 81 477 71 421 q 100 589 90 533 q 101 601 101 596 q 101 614 101 607 l 100 613 m 115 513 q 121 518 118 517 q 124 522 124 519 q 136 586 129 554 q 146 654 143 618 q 133 617 139 638 q 122 576 126 596 q 116 539 118 556 q 115 513 114 522 m 101 614 q 87 578 89 597 q 79 539 85 558 q 72 492 75 515 q 63 444 68 468 q 72 537 63 492 q 97 631 81 582 q 99 619 99 624 q 100 613 100 615 l 101 614 z "},"2":{"ha":649,"x_min":-26,"x_max":586,"o":"m 314 203 q 361 206 340 206 q 401 206 382 206 q 423 208 413 207 q 444 208 433 208 q 482 200 465 211 q 504 192 492 194 q 529 185 517 189 q 534 161 532 172 q 539 139 536 150 q 549 134 543 136 q 565 129 556 132 q 560 118 561 124 q 556 107 558 113 q 572 92 563 100 q 586 71 581 85 q 561 66 574 64 q 536 68 549 68 q 515 69 526 68 q 494 69 504 69 q 468 58 481 69 q 444 50 457 51 q 418 46 432 49 q 352 38 385 42 q 288 31 319 35 q 267 24 276 29 q 244 17 257 18 q 224 13 233 17 q 204 6 214 10 q 181 4 193 3 q 157 4 169 6 q 117 12 135 1 q 82 33 99 22 q 68 42 74 38 q 54 49 63 46 q 15 81 38 58 q -18 124 -7 104 q -24 155 -26 139 q -17 183 -22 171 q 7 215 -6 200 q 32 244 19 229 q 78 292 56 268 q 122 343 100 315 q 167 397 144 371 q 214 449 190 422 q 328 593 283 525 q 374 706 372 661 q 326 764 376 750 q 157 746 276 778 q 144 740 150 743 q 132 733 138 738 q 94 714 113 724 q 57 697 76 704 q 67 707 63 701 q 78 722 71 713 q 46 705 56 718 q 19 688 36 692 q 10 702 13 692 q -6 715 7 713 q -16 728 -15 718 q -12 746 -17 738 q -10 764 -10 756 q -21 782 -10 772 q -24 794 -24 786 q -21 808 -25 801 q 15 853 -7 835 q 61 885 36 871 q 94 902 78 893 q 128 918 111 911 q 196 944 161 936 q 267 954 231 951 q 340 948 304 957 q 411 922 375 939 q 474 877 447 903 q 519 814 501 851 q 538 783 526 797 q 560 756 549 769 q 578 713 574 735 q 578 667 583 692 q 578 631 575 650 q 578 593 581 611 q 574 573 575 582 q 571 557 574 564 q 546 498 560 526 q 504 450 532 469 q 484 430 493 442 q 465 407 475 418 q 446 388 456 397 q 425 368 436 379 q 415 360 419 364 q 415 346 410 356 q 414 338 418 343 q 407 328 410 333 q 369 276 389 303 q 331 225 350 250 q 324 217 328 222 q 314 203 321 211 m 442 797 q 438 783 439 790 q 449 774 436 776 q 443 799 453 790 q 433 823 439 819 q 406 824 428 826 q 425 810 417 817 q 442 797 433 804 m 353 26 q 394 31 376 29 q 432 26 413 32 l 353 26 m 538 32 q 516 31 526 31 q 496 31 506 31 q 494 32 494 31 q 505 35 500 33 q 515 36 510 36 q 527 35 522 36 q 539 33 532 33 q 538 32 538 33 z "},"3":{"ha":679,"x_min":-32,"x_max":626,"o":"m 208 590 q 196 585 201 588 q 182 578 190 582 q 180 595 181 588 q 194 610 179 603 q 235 637 218 621 q 271 669 253 653 q 318 710 294 689 q 363 753 342 732 q 394 789 382 769 q 415 831 407 808 q 415 835 415 833 q 415 839 414 836 q 401 842 408 840 q 388 846 394 844 q 300 836 343 842 q 217 814 257 831 q 179 793 196 804 q 144 769 163 782 q 119 749 132 761 q 96 726 106 738 q 33 700 74 700 q 33 719 31 711 q 42 738 36 728 q 103 818 65 781 q 133 847 117 832 q 165 878 150 863 q 149 874 157 875 q 133 872 140 874 q 235 923 182 904 q 353 935 288 942 q 369 934 361 933 q 385 935 378 935 q 478 915 442 938 q 542 854 515 893 q 550 838 544 846 q 563 824 556 831 q 574 757 590 793 q 543 701 561 728 q 501 650 525 675 q 467 613 485 631 q 431 579 449 596 q 423 571 426 576 q 415 563 419 565 q 422 557 419 560 q 429 551 425 554 q 491 503 464 529 q 543 447 518 476 q 574 403 558 424 q 604 358 590 382 q 622 324 617 342 q 626 286 626 306 q 586 172 622 222 q 499 81 550 122 q 449 47 475 61 q 399 18 424 33 q 356 -1 379 7 q 310 -11 333 -8 l 308 -11 q 306 -11 306 -11 q 243 -9 274 -10 q 181 -6 213 -8 q 165 -1 172 -6 q 150 7 157 4 q 110 26 131 18 q 75 50 90 33 q 65 54 71 54 q 6 102 26 72 q -24 167 -15 132 q -27 188 -26 178 q -29 207 -28 197 q -32 221 -32 214 q -32 235 -32 228 q -19 227 -24 232 q -12 217 -15 222 q -4 208 -8 213 q 10 204 0 204 q 9 219 10 211 q 10 238 8 226 q 47 219 33 231 q 67 194 60 207 q 90 167 78 179 q 113 139 101 154 q 181 142 149 133 q 242 165 213 150 q 321 205 286 181 q 392 257 356 229 q 419 288 408 271 q 438 324 431 304 q 444 338 440 331 q 450 351 447 344 q 444 444 472 400 q 350 494 417 494 q 330 494 339 493 q 311 496 321 496 q 274 503 290 494 q 242 519 258 513 q 222 532 231 524 q 208 549 214 540 q 207 570 206 560 q 207 590 208 581 q 249 608 232 597 q 285 639 267 619 q 237 615 253 626 q 208 590 221 604 m 418 788 q 410 782 414 785 q 403 776 407 779 q 371 742 386 758 q 340 706 356 725 q 328 694 333 700 q 321 682 324 688 q 356 707 338 693 q 388 736 374 721 q 409 759 399 747 q 418 788 419 771 q 432 794 429 789 q 433 810 435 799 q 422 799 422 807 q 418 788 422 792 m 242 108 q 290 122 274 114 q 317 146 306 129 q 278 128 299 135 q 242 108 258 122 m 108 763 q 106 765 108 765 q 99 756 101 760 q 90 750 96 753 q 93 749 92 749 q 97 746 94 749 q 102 753 99 750 q 108 763 106 757 z "},"4":{"ha":611,"x_min":-24,"x_max":585,"o":"m 235 932 q 230 910 232 921 q 224 882 228 899 q 241 910 236 897 q 247 933 246 922 q 255 956 250 946 q 271 975 260 967 q 288 963 279 968 q 307 950 297 957 q 313 926 310 939 q 319 903 317 914 q 314 846 322 872 q 299 784 307 815 q 279 724 292 753 q 232 600 253 663 q 188 475 211 538 q 177 445 181 460 q 167 415 174 431 q 195 419 183 413 q 217 432 207 425 q 296 477 254 458 q 383 507 338 496 q 387 508 386 507 q 390 511 388 510 q 427 664 406 589 q 493 808 449 739 q 499 807 496 807 q 506 806 503 807 q 515 799 511 800 q 526 806 521 801 q 539 815 532 811 q 544 803 542 808 q 547 794 546 799 q 558 774 549 783 q 578 745 572 761 q 581 710 585 729 q 574 670 578 690 q 567 629 569 650 q 556 568 560 599 q 546 507 551 538 q 535 465 540 486 q 525 421 529 443 q 514 354 519 388 q 504 288 508 321 q 493 212 497 250 q 483 136 489 174 q 482 125 482 133 q 486 71 489 97 q 492 17 483 44 q 498 -12 496 3 q 497 -43 500 -26 q 486 -12 493 -29 q 483 -30 483 -22 q 479 -49 482 -37 q 469 -41 472 -46 q 465 -31 467 -36 q 463 -19 464 -25 q 457 -10 461 -14 q 449 -15 451 -12 q 443 -21 446 -18 q 425 -3 433 -12 q 407 13 417 6 q 395 26 400 18 q 388 42 390 33 q 371 132 371 85 q 369 120 369 125 q 368 108 369 115 q 356 183 354 146 q 354 260 357 219 q 341 256 347 257 q 328 251 335 254 q 282 226 304 240 q 233 209 258 214 q 182 201 208 204 q 156 204 169 200 q 131 214 143 208 q 87 235 108 225 q 50 268 65 246 q 39 281 44 275 q 26 294 33 288 q 2 322 15 308 q -18 351 -11 336 q -23 381 -24 365 q -18 411 -22 397 q 22 507 -4 458 q 67 585 44 546 q 113 663 89 624 q 125 688 119 675 q 132 717 131 701 q 135 725 132 721 q 140 736 138 729 q 181 830 160 783 q 222 924 201 876 q 226 930 224 928 q 231 935 228 932 q 233 933 232 933 q 235 932 233 933 m 19 413 q 61 481 43 444 q 81 538 79 518 q 44 484 61 518 q 19 413 26 450 z "},"5":{"ha":710,"x_min":-19,"x_max":714,"o":"m 26 115 q 42 119 35 118 q 56 122 49 119 q 57 135 56 131 q 61 138 60 138 q 122 151 92 144 q 181 165 151 157 q 224 183 203 172 q 264 206 244 194 q 317 238 292 221 q 364 278 343 256 q 372 282 367 281 q 382 286 376 283 q 388 288 385 288 q 392 290 390 288 q 437 367 418 328 q 447 454 456 407 q 367 470 407 468 q 286 458 328 472 q 238 434 258 449 q 201 401 218 419 q 174 373 186 386 q 150 344 163 360 q 121 326 133 325 q 85 340 108 326 q 55 362 67 350 q 28 383 43 374 q 12 405 25 399 q -7 422 -1 411 q -17 452 -15 438 q -10 482 -19 467 q 8 519 1 500 q 18 557 14 538 q 37 619 25 589 q 61 681 49 650 q 74 717 68 700 q 85 754 79 735 q 85 771 86 761 q 76 783 83 781 q 59 801 65 792 q 40 818 53 811 q 17 836 26 825 q 13 865 8 847 q 78 897 44 885 q 149 917 113 908 q 255 944 201 932 q 361 967 308 956 q 470 980 415 976 q 581 981 525 983 q 613 974 596 979 q 646 963 631 968 q 653 959 651 963 q 658 953 656 956 q 672 933 665 943 q 689 913 679 924 q 677 913 682 913 q 668 913 672 914 q 644 908 663 913 q 678 891 663 897 q 689 867 693 885 q 697 865 692 864 q 705 865 701 865 q 711 862 708 864 q 713 853 714 860 q 656 840 685 836 q 603 838 628 843 q 553 826 578 832 q 460 811 506 819 q 368 793 414 803 q 317 781 343 788 q 265 771 292 775 q 237 766 251 768 q 206 763 222 764 q 191 699 194 731 q 175 633 188 667 l 228 633 q 278 633 254 636 q 328 626 303 629 q 425 590 382 617 q 511 536 468 564 q 545 504 533 524 q 568 464 557 485 q 580 441 575 453 q 592 418 585 429 q 626 331 615 376 q 621 238 636 286 q 608 201 615 218 q 582 172 601 183 q 578 168 579 169 q 575 164 578 167 q 565 150 568 157 q 554 136 563 143 q 477 74 517 104 q 389 22 438 43 q 358 12 374 15 q 326 6 342 8 q 246 -1 286 1 q 165 0 206 -3 q 118 16 138 3 q 82 44 99 29 q 74 54 76 49 q 65 64 71 60 q 26 115 38 79 m 207 810 q 233 812 215 810 q 271 818 251 814 q 310 828 290 822 q 342 838 329 833 q 315 835 335 838 q 275 831 296 833 q 235 824 254 828 q 211 818 217 821 q 208 815 208 817 q 207 810 208 813 m 444 242 q 474 267 460 254 q 490 300 488 281 q 465 272 479 285 q 444 242 450 258 m 417 222 q 405 213 411 217 q 392 201 399 208 q 386 192 390 201 q 409 203 400 197 q 417 222 418 208 m 157 489 q 160 487 158 488 q 163 485 161 486 q 168 490 165 488 q 174 496 171 493 q 172 497 172 497 q 169 499 171 497 q 157 489 161 493 z "},"6":{"ha":628,"x_min":-25,"x_max":576,"o":"m 74 644 q 87 686 81 665 q 103 728 93 707 q 106 737 106 733 q 103 746 106 740 q 97 760 96 753 q 101 774 99 767 q 195 936 139 863 q 331 1068 251 1010 q 336 1069 332 1069 q 353 1060 344 1065 q 369 1053 363 1056 q 366 1037 372 1042 q 353 1025 360 1032 q 307 972 328 1000 q 267 914 286 944 q 267 901 261 908 q 280 916 274 908 q 293 932 286 924 q 361 997 324 972 q 379 1015 372 1004 q 396 1033 386 1025 q 421 1003 418 1015 q 407 971 424 990 q 360 908 383 939 q 315 843 336 876 q 269 765 292 804 q 225 683 247 725 q 240 677 233 681 q 251 676 246 674 q 314 680 283 688 q 375 661 344 672 q 406 648 390 656 q 435 629 421 640 q 482 565 468 603 q 490 551 485 557 q 500 539 494 546 q 541 476 524 508 q 569 407 558 444 q 576 349 576 378 q 564 289 575 319 q 529 219 549 253 q 483 158 510 186 q 459 127 469 143 q 436 96 449 111 q 382 44 411 67 q 317 7 353 22 q 142 36 224 -29 q 110 63 126 50 q 78 92 93 76 q 18 225 22 150 q 6 328 14 276 q 5 343 6 335 q 3 363 4 351 q 8 356 6 358 q 13 351 11 354 q 15 357 14 354 q 17 363 17 360 q 18 406 17 389 q 22 436 19 422 q 30 465 25 450 q 43 503 35 479 q 49 520 46 511 q 56 539 53 529 q 56 553 57 546 q 56 571 56 560 q 69 589 63 578 q 64 615 76 600 q 65 631 60 624 q 74 644 71 638 q 76 638 75 642 q 81 626 78 633 q 88 642 86 636 q 94 658 90 647 q 81 649 86 651 q 74 644 76 647 m 426 274 q 421 264 424 268 q 414 253 418 260 q 397 233 407 242 q 382 211 386 224 q 365 178 376 192 q 338 150 353 164 q 325 137 331 143 q 318 119 319 131 q 381 178 351 147 q 429 249 410 208 q 432 251 432 249 q 442 260 438 254 q 439 272 446 265 q 448 294 443 283 q 457 317 453 306 q 454 318 456 318 q 451 319 453 318 q 439 297 444 308 q 426 274 433 285 m 176 401 q 175 414 174 407 q 172 428 176 421 q 165 433 169 433 q 154 425 160 433 q 160 418 157 422 q 165 408 163 414 q 147 415 154 406 q 128 431 139 424 q 124 417 125 422 q 121 407 122 413 q 108 322 113 365 q 107 235 104 279 q 121 175 108 201 q 258 229 203 171 q 323 302 292 265 q 374 383 354 339 q 378 392 375 388 q 383 401 381 396 q 401 441 394 421 q 403 485 407 461 q 360 482 379 488 q 322 465 340 476 q 269 435 296 450 q 228 389 243 421 q 219 379 225 385 q 201 378 213 374 q 207 400 203 389 q 191 400 199 400 q 176 401 183 400 m 285 890 q 220 809 246 854 q 163 721 194 764 q 171 743 164 732 q 168 767 178 754 q 151 750 156 760 q 142 729 147 740 q 134 708 138 718 q 125 686 131 697 q 96 615 110 650 q 67 543 82 579 q 58 508 63 532 q 80 528 75 515 q 89 553 85 540 q 101 590 93 572 q 121 626 110 608 q 142 644 129 639 q 153 645 147 647 q 165 640 158 643 q 198 701 185 669 q 225 765 211 733 q 255 828 240 797 q 285 890 269 860 m 185 879 q 208 903 194 888 q 236 938 222 919 q 260 972 250 956 q 274 996 271 989 q 235 960 257 983 q 199 910 214 936 q 193 896 196 903 q 185 879 190 889 m 382 317 q 405 344 393 326 q 424 378 417 361 q 426 392 425 385 q 419 407 426 400 q 410 384 417 394 q 397 364 404 374 q 385 342 390 354 q 382 317 381 331 m 200 533 q 218 538 213 531 q 231 553 224 546 q 254 570 242 564 q 283 572 267 576 q 299 578 286 572 q 240 575 260 585 q 200 533 219 565 m 443 467 q 433 444 432 456 q 432 419 435 432 q 449 435 447 429 q 443 467 450 442 m 196 450 q 206 459 201 456 q 214 467 211 463 q 213 482 215 468 q 199 467 204 472 q 196 450 193 463 m 428 296 q 424 299 425 299 q 421 301 422 300 q 407 281 414 290 q 413 274 407 282 q 420 285 417 281 q 428 296 424 290 m 293 1015 q 317 1038 315 1015 q 305 1026 310 1032 q 293 1015 300 1021 m -14 436 q -19 403 -17 417 q -23 403 -22 403 q -25 404 -24 404 q -22 420 -24 413 q -17 436 -19 428 l -14 436 m -4 236 q -3 244 -4 240 q -3 253 -3 249 l 0 253 l 0 236 l -4 236 z "},"7":{"ha":789,"x_min":-14,"x_max":753,"o":"m 456 783 q 462 799 458 792 q 472 818 465 807 q 453 820 461 818 q 440 819 446 822 q 347 802 393 811 q 256 783 301 793 q 184 769 219 775 q 113 767 149 764 q 80 773 96 768 q 50 793 64 778 q 39 817 39 804 q 36 843 39 831 q 14 849 26 850 q -6 861 1 849 q -10 883 -8 872 q -14 908 -11 894 q 79 925 33 917 q 169 938 125 933 q 195 938 182 940 q 221 940 208 936 q 290 959 256 950 q 356 983 324 968 q 406 1000 379 994 q 458 1013 433 1006 q 493 1023 476 1018 q 525 1031 510 1028 q 570 1036 549 1036 q 614 1028 592 1036 q 626 1024 621 1025 q 638 1021 631 1022 q 681 975 676 1010 q 685 966 682 967 q 694 963 689 965 q 710 951 706 957 q 710 932 714 944 q 710 912 706 921 q 724 896 714 903 q 740 879 732 889 q 742 831 753 856 q 700 768 724 796 q 650 713 676 740 q 524 582 586 649 q 517 571 521 576 q 508 557 514 565 q 539 554 525 556 q 568 553 553 553 q 603 551 586 551 q 639 549 621 551 q 673 540 660 549 q 693 511 686 532 q 667 482 665 508 q 644 476 656 479 q 622 469 632 472 l 689 469 q 708 468 701 469 q 721 438 729 464 q 731 433 725 436 q 729 426 731 428 q 710 421 719 424 q 693 417 701 418 q 575 408 633 411 q 458 403 517 406 q 431 399 444 401 q 404 396 418 396 q 369 385 383 396 q 343 360 354 375 q 262 238 303 297 q 186 115 221 178 q 157 57 171 86 q 128 0 143 28 q 117 -22 124 -11 q 103 -46 110 -33 q 99 -38 100 -42 q 96 -33 99 -35 q 76 -10 75 -24 q 81 19 76 4 q 110 96 92 60 q 147 168 128 132 q 194 247 171 208 q 242 324 218 286 q 252 345 249 335 q 249 371 256 356 q 234 370 242 371 q 218 367 226 369 q 169 358 194 360 q 118 350 143 357 q 35 378 69 339 q 24 383 26 378 q 20 393 21 388 q 19 403 19 399 q 13 411 18 408 q 19 423 17 418 q 26 432 22 428 q 83 466 54 450 q 143 492 111 482 q 192 506 168 499 q 243 518 217 514 q 278 531 263 524 q 303 558 293 539 q 325 594 311 578 q 353 628 339 610 q 382 668 368 647 q 411 711 396 689 q 410 692 414 700 q 399 676 406 685 q 364 622 382 649 q 328 569 346 596 q 319 555 324 563 q 311 540 315 547 q 329 538 324 532 q 339 551 335 544 q 411 658 375 604 q 478 771 447 713 q 481 779 481 774 q 483 790 482 785 q 467 787 474 788 q 456 783 461 786 m 596 697 q 610 710 603 704 q 622 724 617 717 q 637 738 628 732 q 640 760 646 744 q 632 755 636 757 q 625 750 628 753 q 610 729 617 739 q 594 708 603 719 q 551 672 572 690 q 518 624 529 654 q 553 644 538 629 q 596 697 569 658 m 700 815 q 677 808 685 817 q 663 790 669 799 q 664 785 663 789 q 668 774 665 781 q 685 796 678 786 q 700 815 693 806 m 486 578 q 499 590 493 585 q 507 606 506 594 q 490 597 493 604 q 486 578 488 589 m 76 96 q 64 49 69 72 q 51 -1 58 25 q 40 8 44 3 q 32 15 35 13 q 29 20 31 18 q 28 25 28 22 q 47 96 32 61 q 85 178 65 138 q 129 257 106 218 q 141 253 136 254 q 153 250 146 253 l 151 250 q 147 238 151 240 q 115 174 132 206 q 81 110 97 142 q 65 103 67 106 q 64 85 63 100 q 69 90 67 88 q 76 96 72 93 m 153 250 q 155 265 153 257 q 168 275 157 272 q 151 250 167 260 l 153 250 z "},"8":{"ha":696,"x_min":-51,"x_max":643,"o":"m 475 432 q 514 395 496 413 q 553 363 532 378 q 585 321 571 346 q 608 280 597 300 q 631 240 619 260 q 642 210 642 221 q 632 183 643 199 q 622 169 626 176 q 615 154 617 163 q 581 110 608 128 q 480 45 531 76 q 369 -6 429 14 q 329 -15 350 -11 q 288 -22 308 -18 q 257 -26 272 -25 q 225 -28 242 -28 q 205 -26 215 -28 q 188 -19 194 -25 q 127 15 157 -1 q 71 54 97 31 q 37 86 53 69 q 6 119 21 103 q -10 135 -3 126 q -24 153 -17 143 q -30 162 -26 157 q -33 171 -33 167 q -44 210 -37 190 q -46 249 -51 229 q -40 309 -50 282 q -17 364 -31 336 q 96 496 24 442 q 103 501 100 499 q 113 506 107 503 q 106 517 110 513 q 99 528 101 521 q 69 567 83 547 q 42 610 54 588 q 22 663 26 633 q 27 744 15 706 q 64 814 39 782 q 144 890 99 860 q 242 944 189 921 q 295 965 267 958 q 354 979 324 972 q 458 972 410 992 q 549 913 506 953 q 581 872 561 889 q 608 829 601 856 q 615 819 610 825 q 638 770 636 796 q 635 717 640 744 q 611 646 628 679 q 574 581 594 613 q 544 536 560 557 q 513 492 528 515 q 493 463 501 478 q 475 432 485 447 m 493 839 q 472 844 478 844 q 427 838 449 842 q 383 828 406 835 q 316 792 347 813 q 256 746 285 771 q 171 606 189 690 q 169 584 168 594 q 182 565 171 574 q 206 547 193 556 q 229 532 218 539 q 278 513 254 521 q 326 497 303 504 q 341 493 335 494 q 354 490 347 492 q 358 499 356 496 q 408 624 381 563 q 463 746 435 685 q 482 789 474 767 q 493 839 490 811 m 444 308 q 338 354 390 332 q 235 399 285 376 q 196 354 217 385 q 157 287 175 324 q 129 215 139 250 q 124 158 119 181 q 143 154 133 153 q 161 158 153 156 q 276 194 224 168 q 385 243 328 221 q 414 275 399 258 q 444 308 429 292 m 401 181 q 370 180 383 186 q 346 169 357 174 q 297 147 319 158 q 247 129 274 136 q 229 121 238 126 q 214 111 221 115 q 313 133 267 115 q 401 181 360 151 m 500 658 q 460 588 476 622 q 424 521 443 554 q 420 512 421 518 q 417 497 419 506 q 446 535 431 513 q 473 580 461 557 q 492 624 485 603 q 500 658 500 646 m 147 701 q 156 718 151 710 q 167 733 161 726 q 199 766 183 750 q 229 800 214 782 q 231 803 229 800 q 224 806 232 803 q 174 764 196 788 q 147 701 153 740 m 300 854 q 306 851 303 853 q 310 849 308 849 q 353 867 333 856 q 397 890 374 879 q 300 854 333 892 m 429 572 q 400 535 406 550 q 400 504 394 519 q 413 530 407 518 q 425 553 418 542 q 427 563 426 558 q 429 572 428 567 m 178 440 q 160 442 164 447 q 153 429 156 436 q 144 420 150 424 q 140 406 138 417 q 160 422 151 414 q 178 440 168 431 m 154 793 q 172 799 169 796 q 181 814 175 801 q 154 793 167 801 m 504 251 q 500 254 501 253 q 496 257 499 256 q 492 243 492 249 q 492 242 490 243 q 496 242 494 240 q 500 247 499 244 q 504 251 501 249 m 79 385 q 84 390 82 389 q 88 393 86 392 q 90 396 90 394 q 92 399 90 397 q 83 396 86 399 q 79 385 81 393 z "},"9":{"ha":525,"x_min":-37,"x_max":550,"o":"m 268 71 q 263 65 265 68 q 258 57 261 61 q 250 58 253 57 q 224 88 233 69 q 218 125 215 106 q 224 167 221 146 q 231 208 228 188 q 241 263 233 236 q 254 315 249 289 q 268 371 263 339 l 215 371 q 172 377 192 369 q 132 399 151 385 q 64 458 96 426 q 7 528 32 490 q -8 667 -37 590 q 17 715 3 693 q 51 758 32 738 q 139 839 92 801 q 239 904 186 876 q 306 934 271 922 q 376 958 342 946 q 412 956 394 957 q 445 950 429 954 q 476 937 461 946 q 501 911 490 928 q 511 888 508 900 q 503 860 514 875 q 550 785 550 838 q 549 762 550 774 q 546 739 547 750 q 518 642 538 689 q 479 549 499 596 q 417 393 447 471 q 360 236 388 315 q 356 219 357 228 q 351 203 354 210 q 337 145 344 174 q 322 88 329 117 q 321 65 319 76 q 322 42 322 53 q 324 35 322 39 q 325 28 325 31 q 319 10 325 19 q 307 1 313 1 q 292 8 299 1 q 286 24 285 14 q 279 48 289 39 q 268 71 269 57 m 126 638 q 149 640 138 629 q 175 671 161 656 q 201 701 189 686 q 206 710 204 706 q 211 718 208 715 q 165 681 183 704 q 126 635 146 657 l 101 589 q 99 578 99 585 q 100 568 100 572 q 118 601 107 586 q 126 638 129 617 m 299 224 q 292 190 296 207 q 283 156 288 172 q 283 152 283 153 q 282 150 282 151 q 281 147 281 149 q 271 144 272 147 q 271 135 269 140 q 276 114 274 124 q 282 89 279 104 q 290 110 288 101 q 294 128 292 119 q 303 162 299 144 q 313 196 307 179 q 344 299 328 249 q 375 400 360 349 q 381 413 378 407 q 376 426 383 419 q 366 417 368 424 q 361 404 364 411 q 334 327 347 365 q 307 251 321 289 l 307 276 q 279 188 278 236 q 290 207 285 199 q 299 224 294 215 m 401 803 q 375 790 386 794 q 356 781 364 786 q 315 756 335 768 q 275 728 294 743 q 212 674 243 701 q 157 614 181 647 q 122 536 132 578 q 142 510 117 514 q 211 514 175 504 q 277 542 247 524 q 329 588 307 561 q 358 646 351 615 q 363 662 360 654 q 369 676 367 669 q 386 735 379 706 q 401 803 393 765 m 324 338 q 342 392 344 360 q 324 338 321 369 m 292 476 q 276 474 283 475 q 268 461 268 474 q 278 465 274 464 q 285 468 282 465 q 288 472 286 469 q 292 476 289 474 m 282 844 q 265 840 272 843 q 249 824 257 836 q 269 832 263 826 q 282 844 276 838 z "},"\u0000":{"ha":0,"x_min":0,"x_max":0,"o":""},"\r":{"ha":494,"x_min":0,"x_max":0,"o":""}," ":{"ha":494,"x_min":0,"x_max":0,"o":""},"%":{"ha":707,"x_min":-4,"x_max":682,"o":"m 303 396 q 308 413 306 404 q 314 432 311 421 q 297 419 303 428 q 285 403 292 411 q 272 387 278 394 q 260 372 267 379 q 302 465 278 421 q 356 554 326 510 q 334 536 343 547 q 318 514 325 525 q 263 431 290 474 q 206 346 235 389 q 192 328 199 336 q 174 315 186 319 q 146 285 156 311 q 141 276 144 281 q 133 264 138 271 q 127 278 125 272 q 132 290 129 285 q 169 363 151 326 q 208 432 188 399 q 263 516 236 475 q 318 599 290 557 q 324 608 322 603 q 332 625 326 614 q 313 613 319 617 q 299 604 306 608 q 263 583 281 593 q 225 567 244 574 q 157 554 190 551 q 94 585 124 557 q 58 617 75 600 q 24 650 40 633 q 1 684 7 665 q -1 725 -4 703 q 56 844 7 796 q 88 876 71 860 q 125 911 106 892 q 126 915 125 913 q 127 919 126 918 q 128 924 128 921 q 161 963 133 951 q 322 1010 240 994 q 490 1032 404 1026 q 547 1031 518 1035 q 604 1022 576 1026 q 644 996 629 1018 q 675 942 661 974 q 680 917 682 928 q 674 893 678 907 q 609 779 650 831 q 525 678 568 728 q 476 620 500 650 q 426 561 451 590 q 410 545 418 553 q 393 529 401 538 q 358 490 374 510 q 336 442 343 469 q 321 418 331 429 q 303 396 311 407 m 381 694 q 386 701 383 699 q 392 708 389 704 q 410 735 401 721 q 429 761 419 749 q 479 829 454 796 q 531 896 504 863 q 540 909 535 903 q 543 924 546 915 q 484 921 522 926 q 406 905 446 915 q 333 881 367 894 q 286 857 300 868 q 338 780 318 822 q 381 694 357 738 m 106 692 q 140 700 121 692 q 176 722 158 708 q 210 753 194 736 q 233 786 225 769 q 208 808 221 797 q 179 831 194 819 q 130 767 150 800 q 106 692 110 735 m 499 815 q 506 810 504 814 q 519 822 517 813 q 524 842 522 831 q 512 828 518 835 q 499 815 506 822 m 388 603 q 382 597 385 600 q 376 589 379 593 q 379 588 378 588 q 382 586 381 588 q 386 593 385 589 q 390 600 388 597 l 388 603 m 622 240 q 606 151 621 199 q 554 60 592 104 q 527 28 540 44 q 492 4 514 11 q 444 -4 468 -3 q 397 11 421 -6 q 346 49 369 28 q 306 97 322 69 q 286 135 294 115 q 269 174 278 154 q 269 190 267 182 q 296 273 276 235 q 343 346 315 311 q 374 378 358 363 q 404 410 389 394 q 465 446 429 435 q 505 448 486 451 q 540 425 524 444 q 565 397 553 411 q 588 368 576 382 q 606 342 599 354 q 617 316 613 331 q 622 283 621 301 q 622 240 622 265 m 503 114 q 451 91 479 97 q 400 67 424 85 q 435 51 419 50 q 467 68 450 51 q 487 79 479 71 q 492 103 494 88 l 503 114 m 400 139 q 429 155 415 146 q 451 179 443 164 q 467 208 460 193 q 486 236 475 224 q 502 274 497 253 q 501 317 507 294 q 451 290 468 321 q 421 235 436 263 q 399 175 406 207 q 394 158 396 167 q 400 139 393 150 m 414 346 q 397 308 404 325 q 382 272 389 290 q 381 263 381 268 q 381 251 382 258 q 416 299 399 271 q 442 347 433 326 q 426 347 433 347 q 414 346 419 346 m 553 178 q 558 190 556 183 q 565 200 560 196 q 586 246 583 221 q 592 294 589 271 q 576 311 592 308 q 575 302 576 306 q 574 296 574 299 q 556 214 578 250 q 548 198 551 207 q 553 178 544 189 m 307 206 q 321 235 314 221 q 325 269 328 250 q 307 206 296 238 m 368 264 q 349 230 353 244 q 351 200 346 215 q 363 227 360 211 q 368 264 367 243 m 68 39 q 79 40 74 38 q 90 46 85 43 q 101 49 96 49 q 114 42 107 49 q 110 13 111 28 q 117 -17 108 -1 q 115 -23 118 -18 q 107 -32 111 -28 q 77 -3 92 -17 q 49 25 63 10 q 39 50 36 36 q 46 75 42 64 q 84 156 65 115 q 121 236 103 196 l 122 236 q 129 240 122 236 q 90 142 110 190 q 68 39 69 94 m 303 396 q 294 380 299 389 q 283 358 290 371 q 288 382 285 378 q 303 396 290 386 m 236 331 q 227 315 232 322 q 218 300 222 308 q 220 316 218 313 q 236 331 222 319 m 181 194 q 181 192 181 193 q 182 190 182 192 l 176 179 q 174 181 175 179 q 176 187 175 183 q 178 193 176 190 q 181 194 178 193 m 467 68 q 457 67 463 67 q 446 64 451 67 q 444 69 444 67 q 456 72 450 71 q 467 75 461 72 l 467 68 z "},"&":{"ha":911,"x_min":-26,"x_max":840,"o":"m 658 896 q 683 876 676 894 q 701 845 692 860 q 717 815 710 831 q 728 782 725 800 q 717 727 731 750 q 685 682 704 704 q 651 665 663 682 q 625 638 639 649 q 609 622 617 631 q 594 606 601 614 q 528 545 563 572 q 457 490 493 518 q 429 469 442 479 q 401 447 417 458 q 472 378 435 408 q 549 321 508 349 q 567 311 558 314 q 588 318 576 308 q 719 464 667 375 q 707 478 715 472 q 701 497 699 483 q 697 512 703 504 q 688 528 692 519 q 767 496 740 535 q 778 485 772 490 q 789 479 783 479 q 813 471 806 481 q 825 451 819 461 q 835 427 832 440 q 839 400 838 414 q 836 389 840 394 q 826 379 832 383 l 726 282 l 682 238 q 727 206 706 221 q 769 176 749 190 q 796 155 785 167 q 813 124 807 143 q 825 104 814 117 q 788 101 806 101 q 750 99 769 100 q 760 88 756 93 q 769 76 765 83 q 760 71 765 74 q 749 63 756 68 l 571 154 q 534 129 553 143 q 496 101 515 115 q 474 88 485 94 q 450 74 463 81 q 436 65 443 69 q 418 68 429 61 q 408 68 414 71 q 399 63 401 65 q 350 33 374 49 q 300 4 326 18 q 239 -15 269 -10 q 174 -18 208 -21 q 117 -2 143 -15 q 67 28 92 11 q 24 65 43 44 q -1 113 6 85 q -7 122 -3 118 q -14 131 -11 125 q -24 165 -22 149 q -19 201 -26 182 q 26 284 -3 247 q 90 354 54 321 q 97 359 93 357 q 104 365 101 361 l 221 489 l 232 503 q 215 529 224 517 q 200 556 207 542 q 167 636 178 594 q 161 722 157 678 q 178 789 167 757 q 213 849 189 821 q 241 883 228 865 q 271 917 254 901 q 399 989 329 971 q 544 994 468 1007 q 575 983 560 992 q 603 967 590 975 q 626 951 615 960 q 647 932 636 943 l 647 929 l 647 932 q 658 896 679 921 m 160 253 q 135 217 132 247 q 125 214 129 214 q 118 211 121 214 q 86 163 100 188 q 65 111 72 139 q 93 87 78 96 q 126 81 108 78 q 235 101 181 86 q 328 141 283 117 q 414 193 372 165 q 442 211 429 201 q 468 231 454 221 l 314 378 q 285 359 299 368 q 256 340 271 350 q 266 353 261 346 q 278 369 271 360 q 267 369 271 368 q 260 367 263 369 q 208 319 229 347 q 163 267 186 292 q 160 260 160 264 q 160 253 161 257 m 307 579 q 320 583 315 582 q 328 588 325 585 q 431 672 381 629 q 528 764 482 715 q 551 796 540 779 q 567 833 561 813 l 539 829 q 467 801 500 821 q 403 757 435 781 q 363 713 379 736 q 342 656 346 689 q 338 648 340 653 q 333 640 336 643 q 315 613 317 629 q 307 579 314 597 m 160 253 l 232 322 q 244 332 239 328 q 257 340 250 336 l 156 239 l 160 253 m 489 153 l 482 158 q 441 134 461 147 q 406 100 421 121 l 489 153 m 32 204 q 17 183 15 196 q 17 154 18 171 q 31 179 32 165 q 32 204 29 193 m 504 140 q 482 132 489 139 q 472 111 475 125 l 504 140 m 63 215 q 76 222 69 218 q 74 236 83 225 q 67 226 69 232 l 63 215 m 735 392 q 720 385 725 390 q 718 368 715 381 q 728 380 724 375 q 735 392 732 385 m 29 147 q 28 132 26 135 q 39 122 28 131 q 38 136 39 133 q 35 141 38 139 q 29 147 32 143 m 103 276 q 89 259 90 263 q 94 249 88 256 q 99 260 97 254 q 103 276 100 267 m 651 918 q 650 922 651 921 q 649 926 649 924 q 650 922 649 924 q 651 918 651 921 z "},"'":{"ha":335,"x_min":69,"x_max":246,"o":"m 201 939 q 199 949 200 944 q 193 963 197 954 q 220 943 208 951 q 246 925 232 935 q 224 819 235 872 q 203 713 214 767 q 184 665 196 682 q 144 629 172 649 q 118 646 132 639 q 99 675 104 653 q 88 689 97 683 q 69 701 78 694 q 86 767 78 735 q 101 832 94 799 q 106 899 106 865 q 110 964 107 932 q 126 965 118 965 q 144 965 135 965 q 158 940 151 957 q 168 949 167 947 q 170 963 169 956 q 175 976 171 969 q 174 951 175 964 q 176 926 174 938 q 183 903 178 915 q 194 875 189 890 q 204 926 201 901 q 201 939 204 933 q 204 926 204 933 q 191 931 192 924 q 189 949 190 938 q 196 944 193 946 q 201 939 199 942 z "},"(":{"ha":556,"x_min":3,"x_max":561,"o":"m 457 83 q 449 72 449 78 q 451 58 449 65 q 455 42 453 50 q 454 26 457 35 q 477 31 465 29 q 500 35 489 32 q 490 13 506 19 q 451 -4 471 4 q 410 -21 431 -12 q 376 -33 393 -26 q 343 -47 358 -39 q 289 -53 315 -58 q 233 -31 263 -47 q 147 36 186 -3 q 71 117 108 75 q 43 155 53 135 q 29 197 33 175 q 17 244 22 221 q 6 290 11 267 q 3 299 3 294 q 3 307 3 304 q 8 453 3 382 q 29 594 13 524 q 104 808 57 710 q 166 913 132 864 q 251 996 200 961 q 361 1064 301 1029 q 461 1068 404 1088 q 497 1046 481 1060 q 524 1011 514 1032 q 529 1000 526 1006 q 535 988 532 994 q 530 980 532 985 q 525 969 528 975 l 561 969 q 554 960 557 964 q 549 956 551 957 q 481 921 508 946 q 426 867 453 896 q 352 782 388 826 q 281 693 317 738 q 235 620 251 660 q 203 539 218 581 q 188 485 193 511 q 184 482 185 483 q 182 481 183 481 q 163 449 164 469 q 157 410 161 429 q 145 328 150 368 q 143 243 140 288 q 138 222 144 231 q 135 197 132 214 q 153 149 140 171 q 182 107 165 126 q 221 79 197 88 q 268 68 244 71 q 313 67 292 64 q 357 78 335 71 q 385 86 371 82 q 411 97 399 90 q 457 83 433 110 m 119 201 q 121 227 121 210 q 119 265 121 244 q 115 306 118 286 q 108 338 113 326 q 105 267 101 308 q 119 201 108 226 m 258 708 q 238 690 240 694 q 239 667 236 685 q 249 688 246 678 q 258 708 253 699 z "},")":{"ha":581,"x_min":-72,"x_max":519,"o":"m 258 274 q 232 239 244 256 q 207 206 219 222 q 188 178 197 190 q 161 161 178 165 q 161 192 151 179 q 215 278 190 233 q 261 369 239 322 q 265 378 261 375 q 286 396 281 383 q 299 419 292 408 q 313 446 308 431 q 321 475 317 461 q 346 582 336 528 q 356 693 356 636 q 343 803 356 750 q 302 896 331 857 q 228 952 274 935 q 115 956 182 969 q 104 956 110 956 q 94 956 99 957 q 67 961 79 953 q 49 982 56 969 q 35 999 42 993 q 18 1003 29 1006 q 12 1008 15 1003 q 10 1015 8 1013 q 8 1026 11 1024 q 0 1035 4 1029 q 10 1085 -26 1072 q 69 1097 39 1096 q 165 1085 118 1100 q 258 1042 211 1069 q 360 955 317 1006 q 435 842 403 904 q 463 795 449 818 q 485 746 476 772 q 492 721 488 733 q 499 694 496 708 q 500 685 500 690 q 501 678 500 681 q 517 654 515 667 q 519 628 519 642 q 514 537 519 581 q 489 454 508 493 q 486 449 488 451 q 485 446 485 447 q 447 317 475 375 q 383 204 419 260 q 344 148 365 175 q 303 93 324 121 q 292 88 299 88 q 338 174 314 132 q 385 258 361 215 q 434 364 413 311 q 467 475 456 417 q 468 497 472 483 q 453 461 461 478 q 438 426 444 444 q 393 326 414 376 q 350 225 372 275 q 329 192 339 207 q 308 158 319 176 q 294 142 301 150 q 293 118 288 133 q 290 113 293 115 q 261 78 274 97 q 229 49 249 60 q 211 35 221 42 q 190 22 201 29 q 150 -1 171 11 q 108 -24 129 -12 q 44 -50 76 -39 q -24 -58 13 -61 q -72 -18 -58 -58 q -13 -22 -39 -32 q 36 6 13 -11 q 52 16 44 11 q 71 25 60 21 q 123 67 100 42 q 167 119 146 92 q 186 139 178 129 q 206 156 194 149 q 239 207 231 172 q 246 228 240 218 q 257 250 251 239 q 258 261 258 256 q 261 272 258 267 q 276 291 272 279 q 282 315 279 303 q 265 298 269 308 q 258 274 260 288 m 360 510 q 374 553 371 529 q 367 597 376 578 q 361 554 364 575 q 356 510 358 533 l 335 431 q 351 456 344 442 q 361 486 357 471 q 360 498 363 492 q 354 510 357 504 l 360 510 m -7 -89 q 7 -90 0 -89 q 21 -92 14 -90 q 17 -99 21 -99 q -19 -93 -3 -101 q -54 -69 -35 -85 l 8 -69 q -2 -76 1 -74 q -10 -81 -6 -78 q -8 -85 -10 -82 q -7 -89 -7 -87 z "},"+":{"ha":629,"x_min":-22,"x_max":556,"o":"m 365 538 q 392 533 381 535 q 414 533 404 532 q 469 524 444 535 q 513 482 493 513 q 494 474 500 479 q 510 462 500 465 q 530 455 521 458 q 547 446 539 451 q 556 426 554 440 q 446 417 501 422 q 332 408 390 413 q 295 276 314 342 q 258 143 276 210 q 232 152 243 146 q 218 178 221 158 q 207 199 215 190 q 182 206 199 208 q 173 207 179 203 q 167 219 167 211 q 163 235 165 226 q 163 250 161 243 q 169 305 165 278 q 175 360 172 332 q 176 383 179 365 q 160 377 168 378 q 143 376 151 376 q 128 373 135 375 q 115 363 121 371 q 99 365 110 360 q 82 374 90 368 q 65 379 74 379 q 33 392 46 382 q 10 414 21 403 q 6 424 7 418 q 4 436 6 429 q -8 444 -1 439 q -22 454 -14 449 q -22 459 -21 457 q -21 463 -22 461 q 45 506 8 492 q 125 526 82 521 q 170 533 149 529 q 211 539 192 536 q 242 602 228 571 q 271 661 256 633 q 304 654 292 664 q 326 628 317 644 q 340 609 333 618 q 354 590 346 600 q 368 566 364 579 q 365 538 372 553 m 414 488 q 433 471 428 472 q 456 474 439 469 q 435 481 444 478 q 414 488 426 483 z "},",":{"ha":286,"x_min":51,"x_max":206,"o":"m 189 136 q 203 92 200 119 q 201 35 206 64 q 182 -22 196 6 q 146 -62 168 -49 q 124 -72 135 -69 q 111 -58 114 -74 q 112 -36 110 -49 q 116 -11 114 -24 q 117 10 118 1 q 111 21 117 19 q 64 49 79 29 q 53 74 56 57 q 54 108 51 90 q 63 142 57 126 q 79 164 69 158 q 138 156 111 182 q 150 144 146 147 q 159 140 154 140 q 170 139 164 139 q 189 136 176 139 z "},"-":{"ha":661,"x_min":-6,"x_max":585,"o":"m 542 467 q 560 456 551 461 q 585 443 569 451 q 567 436 574 439 q 556 433 561 433 q 333 428 442 436 q 111 424 225 419 q 61 441 81 425 q 31 483 42 457 q 28 492 28 489 q 21 494 29 496 q 3 500 6 492 q -3 518 0 508 q -5 539 -6 529 q 7 556 -4 549 q 33 568 19 563 q 60 575 47 574 q 183 581 122 578 q 306 576 243 583 q 376 569 342 572 q 447 564 411 567 q 517 535 490 560 q 528 526 524 531 q 540 518 533 521 q 551 506 550 511 q 544 486 551 501 q 543 482 543 483 q 542 478 543 481 l 542 467 l 542 467 z "},".":{"ha":272,"x_min":21,"x_max":183,"o":"m 158 132 q 173 97 165 113 q 182 67 181 81 q 176 42 183 54 q 147 21 168 31 q 117 13 133 14 q 84 15 100 11 q 54 27 68 19 q 33 44 40 35 q 23 69 25 53 q 24 104 21 86 q 33 138 26 122 q 49 160 39 154 q 107 151 81 178 q 119 140 115 143 q 128 135 124 136 q 140 135 133 135 q 158 132 146 135 z "},"/":{"ha":429,"x_min":-17,"x_max":557,"o":"m 114 -19 q 91 -33 100 -28 q 72 -42 82 -37 q 49 -19 61 -31 q 14 -11 38 -8 q 12 35 15 13 q -17 72 8 57 q 50 224 17 144 q 116 383 83 303 q 181 543 149 463 q 249 699 214 624 q 332 857 286 781 q 429 1008 378 933 q 471 1056 444 1029 q 485 1045 476 1049 q 501 1038 493 1042 q 515 1028 508 1033 q 525 1013 521 1022 q 548 1006 547 1015 q 543 985 549 997 q 547 945 557 963 q 528 911 536 928 q 486 837 508 872 q 446 765 464 801 q 389 644 415 704 q 335 524 363 583 q 278 399 306 461 q 222 276 250 338 q 201 225 217 249 q 176 165 186 196 q 144 107 165 133 q 126 66 129 88 q 119 21 122 44 q 117 0 118 10 q 114 -19 115 -10 m 122 108 q 140 159 133 135 q 153 208 146 183 q 133 186 140 196 q 124 165 126 176 q 121 141 121 154 q 122 108 121 128 m 153 303 q 148 296 149 300 q 146 289 147 292 q 144 280 144 283 q 143 274 144 276 q 156 288 154 282 q 156 294 157 290 q 156 303 156 297 l 153 303 z "},";":{"ha":347,"x_min":94,"x_max":257,"o":"m 232 603 q 247 567 239 583 q 256 538 254 551 q 249 513 257 525 q 221 492 242 501 q 190 483 207 485 q 158 486 174 482 q 128 498 142 490 q 107 515 114 506 q 97 540 99 524 q 97 575 94 557 q 106 609 100 593 q 122 631 113 625 q 181 622 154 649 q 193 610 189 614 q 202 606 197 607 q 213 606 207 606 q 232 603 219 606 m 232 207 q 246 163 243 190 q 244 106 249 135 q 225 49 239 76 q 189 8 211 22 q 167 -1 178 1 q 154 13 157 -3 q 155 35 153 22 q 159 60 157 47 q 160 81 161 72 q 154 92 160 90 q 107 119 122 100 q 97 144 99 128 q 97 179 94 161 q 106 213 100 197 q 122 235 113 229 q 181 226 154 253 q 193 215 189 218 q 202 210 197 211 q 213 210 207 210 q 232 207 219 210 z "},"=":{"ha":600,"x_min":-7,"x_max":532,"o":"m 493 506 q 510 497 501 501 q 532 486 518 493 q 516 481 521 483 q 506 479 511 479 q 308 475 404 482 q 110 471 211 468 q 65 485 82 472 q 38 519 47 499 q 35 527 35 524 q 29 529 36 531 q 12 533 14 526 q 7 549 10 540 q 6 565 6 557 q 17 579 6 574 q 40 590 28 585 q 64 596 53 594 q 173 601 118 599 q 283 596 228 603 q 347 591 315 593 q 410 586 378 589 q 471 563 447 582 q 482 555 478 558 q 492 549 486 551 q 501 538 500 542 q 496 522 503 535 q 494 519 494 519 q 493 515 494 518 l 493 506 m 481 290 q 497 282 489 286 q 519 271 506 278 q 503 265 508 268 q 493 263 499 263 q 295 258 392 265 q 97 254 199 251 q 52 269 69 256 q 25 304 35 282 q 23 311 22 308 q 17 313 24 314 q -1 317 1 310 q -4 332 -3 325 q -7 349 -7 340 q 4 363 -7 358 q 28 373 15 368 q 51 379 40 378 q 160 385 106 382 q 271 381 215 388 q 334 375 303 378 q 397 369 365 372 q 458 346 435 367 q 469 339 465 343 q 479 332 474 335 q 489 323 488 326 q 483 306 490 319 q 482 303 482 304 q 481 299 482 301 l 481 290 z "},"?":{"ha":529,"x_min":-33,"x_max":594,"o":"m 382 600 q 350 556 367 575 q 299 485 321 521 q 256 411 276 449 q 251 397 253 404 q 247 381 250 389 q 239 349 244 365 q 229 315 233 332 q 219 277 222 296 q 225 239 215 258 q 217 214 229 226 q 212 232 214 222 q 207 250 210 242 l 203 250 q 200 237 201 243 q 199 222 199 231 q 176 231 188 228 q 154 240 164 233 q 126 264 139 251 q 99 289 113 276 q 66 335 72 310 q 63 390 60 361 q 85 478 71 435 q 126 563 99 522 q 193 663 158 614 q 264 760 228 711 q 306 814 283 788 q 350 867 329 840 q 360 879 357 872 q 369 894 364 886 q 356 896 363 894 q 343 896 349 897 q 282 885 313 890 q 221 872 251 879 q 132 824 167 863 q 122 793 133 806 q 103 765 110 781 q 97 733 99 750 q 100 699 94 715 q 98 680 103 688 q 76 667 93 672 q 45 687 61 676 q 15 709 29 697 q -8 736 1 721 q -22 771 -18 751 q -19 860 -33 819 q 26 936 -6 900 q 72 970 46 958 q 124 993 99 982 q 247 1035 185 1021 q 379 1050 308 1050 q 415 1047 399 1050 q 450 1039 431 1044 q 470 1032 460 1035 q 492 1024 481 1029 q 526 994 517 1015 q 550 951 538 974 q 575 908 563 929 q 574 840 594 876 q 461 689 533 757 q 428 658 444 674 q 404 622 411 643 q 394 609 401 615 q 381 599 386 603 l 386 615 q 383 619 385 618 q 381 621 382 619 q 368 605 375 613 q 357 582 361 597 q 371 593 365 589 q 382 600 376 597 m 229 106 q 242 69 239 88 q 258 35 246 51 q 236 20 247 28 q 214 7 225 13 q 199 3 207 4 q 185 4 190 1 q 138 28 160 15 q 100 63 115 42 q 90 107 85 79 q 115 146 96 135 q 174 138 147 164 q 187 124 182 129 q 197 116 192 119 q 210 110 203 113 q 229 106 217 108 z "},"_":{"ha":643,"x_min":-28,"x_max":525,"o":"m -28 60 q -16 78 -25 74 q 4 86 -7 83 q 197 107 100 104 q 389 103 293 110 q 460 100 428 99 q 514 72 496 100 q 525 60 517 68 q 515 32 519 46 q 490 15 510 18 q 469 10 479 13 q 447 8 458 8 q 363 5 406 10 q 278 -4 321 0 q 172 -10 225 -8 q 65 -15 118 -11 q 32 -6 46 -17 q 4 14 18 4 q 1 19 1 17 q -7 44 4 36 q -28 60 -18 53 z "},"~":{"ha":613,"x_min":7,"x_max":542,"o":"m 171 408 q 156 397 163 403 q 135 389 149 390 q 122 380 128 389 q 108 364 115 371 q 88 337 97 351 q 58 315 78 322 q 51 338 53 325 q 41 340 47 339 q 28 343 35 342 q 26 356 26 350 q 22 367 25 363 q 13 408 7 389 q 29 446 18 426 q 54 492 42 469 q 81 538 67 514 q 119 583 96 565 q 165 625 143 601 q 178 631 169 628 q 192 632 186 635 q 227 617 210 624 q 253 588 244 611 q 274 542 261 564 q 297 497 286 521 q 301 469 301 486 q 301 440 301 454 q 299 408 300 425 q 375 435 343 411 q 435 488 407 458 q 445 496 440 492 q 453 507 450 500 q 510 519 474 539 q 512 499 511 510 q 513 478 513 489 q 533 474 528 478 q 539 454 542 465 q 533 433 536 443 q 522 415 529 422 q 484 372 503 393 q 443 331 465 350 q 360 292 411 299 q 339 292 349 290 q 319 303 329 294 q 299 315 310 310 q 275 324 288 321 q 257 329 265 324 q 240 342 249 335 q 207 374 224 357 q 171 408 190 390 z "},"^":{"ha":411,"x_min":33,"x_max":339,"o":"m 90 751 q 74 738 82 744 q 60 725 67 732 q 56 746 57 733 q 60 778 56 758 q 48 766 53 771 q 35 754 43 761 q 33 778 33 768 q 38 800 33 789 q 66 854 50 828 q 99 904 82 881 q 122 940 113 922 q 143 975 132 957 q 156 993 150 985 q 168 1011 161 1001 l 185 1049 q 197 1055 192 1051 q 210 1063 203 1058 q 217 1058 214 1063 q 224 1051 221 1054 q 232 1048 228 1049 q 243 1051 236 1047 q 251 1046 244 1051 q 261 1036 258 1040 q 288 987 274 1011 q 310 935 303 963 q 320 890 318 913 q 321 843 322 867 q 325 806 321 824 q 331 769 329 789 q 333 717 331 743 q 339 663 336 690 q 324 664 332 660 q 313 657 315 668 q 306 661 308 657 q 302 669 304 665 q 297 674 300 672 q 288 672 294 675 q 278 675 288 672 q 251 706 264 690 q 222 735 238 721 q 199 770 204 750 q 189 811 194 790 q 187 824 188 818 q 185 840 186 831 q 155 810 169 824 q 128 782 140 796 l 128 799 q 106 776 114 788 q 90 751 99 764 z "},"÷":{"ha":522,"x_min":13,"x_max":456,"o":"m 456 382 q 442 356 449 361 q 413 353 435 350 q 312 362 363 357 q 208 369 261 367 q 101 365 156 372 q 67 373 82 364 q 39 393 53 382 q 34 397 36 394 q 33 403 32 400 q 28 421 39 417 q 13 432 18 425 q 28 450 17 447 q 50 456 40 453 q 122 469 86 463 q 193 479 157 476 q 283 481 238 485 q 372 472 328 478 q 400 464 388 469 q 425 451 413 458 q 433 441 429 449 q 435 431 436 433 q 432 422 431 426 q 436 414 433 418 q 440 406 439 410 q 436 397 440 401 q 444 391 440 394 q 456 382 449 388 m 219 342 q 239 324 231 332 q 258 307 247 317 q 301 250 256 268 q 278 229 289 239 q 256 211 267 219 q 218 217 235 197 q 199 235 208 226 q 179 253 190 243 q 182 278 178 267 q 192 301 186 290 q 206 321 199 311 q 219 342 214 331 m 308 574 q 288 568 293 571 q 287 561 286 565 q 286 556 288 557 q 260 551 279 549 q 233 561 242 553 q 220 576 226 568 q 207 590 214 583 q 197 614 196 601 q 211 633 199 626 q 265 653 247 651 q 291 646 283 656 q 301 617 299 636 q 308 574 303 597 z "},"×":{"ha":517,"x_min":11,"x_max":456,"o":"m 289 389 q 270 406 279 397 q 251 424 261 414 q 203 378 219 397 q 176 342 188 360 q 149 303 164 324 q 108 256 135 283 q 91 265 99 261 q 76 271 83 268 q 72 275 72 271 q 47 308 64 294 q 21 342 29 322 q 36 399 11 371 q 94 465 64 429 q 158 522 125 501 q 107 584 132 554 q 51 647 82 614 q 73 639 65 644 q 87 626 81 633 q 99 612 93 618 q 114 601 106 606 q 114 624 117 614 q 106 645 111 635 q 94 665 101 656 q 82 686 88 675 q 131 681 107 683 q 175 671 154 679 q 214 647 196 663 q 256 617 232 632 q 276 633 265 624 q 299 651 288 643 q 367 699 331 678 q 393 702 378 707 q 415 686 408 697 q 420 674 418 679 q 425 661 422 668 q 432 649 428 654 q 440 636 436 643 q 388 575 414 604 q 336 514 363 546 q 413 413 374 467 q 433 381 424 397 q 454 350 443 365 q 455 344 456 347 q 453 340 454 340 q 446 331 443 339 q 449 317 449 324 q 413 333 429 325 q 379 349 397 340 q 385 328 382 336 q 392 313 389 319 q 386 307 390 308 q 371 323 379 315 q 354 339 363 331 l 319 374 q 310 383 314 378 q 301 392 307 389 q 297 392 300 393 q 289 389 293 390 m 167 540 q 143 564 167 563 l 167 540 m 354 339 q 343 333 354 325 q 324 354 333 344 q 304 374 315 364 l 319 374 l 354 339 z "},"¢":{"ha":692,"x_min":-10,"x_max":649,"o":"m 565 551 q 585 549 576 550 q 600 549 593 549 q 604 544 604 547 q 603 537 604 540 q 603 530 603 533 q 611 525 604 526 q 615 517 619 524 q 610 504 610 511 q 611 492 610 499 q 614 479 613 486 q 628 489 617 481 q 638 476 633 482 q 649 464 642 471 q 621 436 633 449 q 589 417 608 424 q 579 411 583 415 q 571 404 575 407 q 546 379 560 390 q 524 353 535 365 q 501 331 514 342 q 465 299 483 314 q 428 271 447 285 q 383 241 406 256 q 335 214 360 226 q 312 193 319 206 q 299 165 304 181 q 297 121 294 142 q 303 78 299 100 q 325 47 307 58 q 344 31 336 40 q 350 6 351 22 q 338 1 344 3 q 325 -6 332 -1 q 286 30 303 10 q 260 74 269 50 q 244 124 250 99 q 233 174 239 150 q 150 204 189 183 q 83 261 111 225 q 78 266 81 264 q 71 271 75 268 q 15 337 33 299 q -6 421 -3 375 q 2 507 -10 465 q 32 588 14 549 q 106 693 60 650 q 211 765 151 736 q 263 794 238 781 q 321 808 289 807 q 336 816 332 808 q 343 833 340 824 q 372 903 353 869 q 408 972 390 936 q 429 958 419 964 q 440 936 439 951 q 446 921 440 929 q 458 910 451 913 q 472 897 471 904 q 471 878 474 889 q 460 837 465 857 q 449 797 456 817 q 447 774 446 783 q 458 754 449 765 q 474 729 468 743 q 486 701 479 715 q 487 688 489 694 q 474 678 485 681 q 472 689 474 683 q 469 688 471 688 l 468 688 q 455 664 461 675 q 442 642 449 653 q 435 631 439 636 q 424 619 431 626 q 426 642 424 632 q 432 663 429 653 q 435 685 435 674 q 432 707 436 696 q 425 700 428 703 q 421 693 422 697 q 391 601 406 647 q 364 510 376 556 q 356 467 357 489 q 353 422 356 444 q 396 441 365 425 q 460 478 426 457 q 524 519 494 499 q 565 551 554 540 m 464 357 q 497 369 483 360 q 522 390 510 379 q 550 410 536 401 q 568 438 564 418 q 513 401 540 418 q 463 360 486 383 q 410 327 436 343 q 358 296 385 311 q 349 289 354 293 q 342 281 344 285 q 406 311 376 293 q 464 349 435 329 q 465 352 465 350 q 464 357 464 354 m 290 647 q 200 569 233 615 q 149 468 167 524 q 128 401 138 436 q 131 328 119 365 q 156 326 146 326 q 174 328 165 326 q 192 334 182 331 q 217 344 201 338 q 246 381 242 353 q 263 513 253 447 q 290 647 272 579 m 303 688 q 260 662 275 676 q 235 624 246 647 q 271 651 253 639 q 303 688 289 663 m 260 171 q 255 147 256 160 q 254 122 254 133 q 256 119 254 121 q 260 113 257 118 l 260 171 m 285 122 q 288 121 286 122 l 288 181 l 285 181 l 285 122 z "},"£":{"ha":738,"x_min":-26,"x_max":700,"o":"m 690 121 q 676 115 682 118 q 665 108 669 113 q 700 61 683 89 q 682 39 688 42 q 656 44 676 36 q 579 60 622 63 q 497 60 538 60 q 414 60 456 61 q 330 49 369 57 q 250 19 290 40 q 192 -6 222 4 q 133 -28 163 -17 q 109 -31 122 -31 q 83 -31 96 -31 q 76 -24 78 -29 q 72 -14 74 -19 q 65 -5 69 -8 q 51 -3 61 -1 q 50 0 50 -1 q 49 2 50 1 q 49 4 49 3 q 40 17 43 10 q 32 29 36 24 q 22 39 28 35 q 6 44 15 43 q 2 52 6 49 q -5 59 -1 56 q -10 67 -8 63 q -8 79 -11 71 q -13 90 -4 82 q -26 107 -22 99 q 72 150 22 133 q 175 179 122 167 q 210 189 193 183 q 239 208 228 194 q 248 222 244 214 q 250 239 251 231 q 239 290 246 264 q 225 343 232 317 q 220 353 224 349 q 213 364 217 357 q 172 356 193 358 q 131 351 151 354 q 68 374 92 340 q 45 424 40 411 q 90 449 50 436 q 126 460 108 456 q 161 468 144 464 q 176 472 168 469 q 190 476 183 474 q 185 493 186 486 q 181 507 183 500 q 149 603 161 554 q 131 700 138 651 q 128 715 129 708 q 124 729 126 722 q 118 815 115 774 q 131 899 121 856 q 142 926 135 914 q 165 949 150 939 q 170 957 168 951 q 175 969 172 963 q 163 965 168 967 q 153 963 157 964 q 151 965 153 964 q 153 969 150 967 q 289 1044 207 1029 q 300 1045 294 1046 q 310 1047 306 1044 q 344 1056 326 1060 q 382 1049 363 1051 q 410 1041 397 1046 q 438 1033 422 1036 q 513 994 482 1019 q 569 938 543 968 q 594 892 585 918 q 610 840 603 865 q 607 788 617 813 q 583 739 597 763 q 567 711 576 725 q 547 685 557 697 q 510 647 532 661 q 456 622 488 633 q 499 682 476 654 q 528 747 521 710 q 515 734 519 742 q 505 719 510 726 q 493 705 500 711 q 474 697 486 699 q 483 718 479 708 q 489 738 486 728 q 510 802 503 769 q 515 871 518 835 q 508 895 514 890 q 485 901 503 900 q 407 893 443 904 q 340 851 371 882 q 317 821 326 838 q 304 783 307 804 q 299 709 299 746 q 306 635 299 672 q 308 623 308 628 q 310 613 308 618 q 325 555 317 583 q 340 496 333 526 q 386 492 363 492 q 459 488 422 489 q 532 481 496 486 q 569 474 551 479 q 588 442 588 469 q 597 431 597 438 q 595 419 597 425 q 592 406 593 413 q 596 396 590 400 q 490 386 542 390 q 382 378 438 382 q 401 298 385 335 q 429 221 418 261 q 504 223 469 226 q 574 208 539 219 q 613 195 593 203 q 649 176 632 188 q 670 151 661 165 q 690 121 679 136 z "},"¥":{"ha":557,"x_min":-33,"x_max":596,"o":"m 471 247 q 440 240 456 243 q 413 231 425 238 q 349 213 382 217 q 283 201 315 208 q 256 175 260 197 q 240 87 249 131 q 235 -1 232 43 q 233 -7 235 -4 q 231 -15 232 -10 q 216 3 222 -6 q 194 6 210 13 q 167 34 179 19 q 154 71 154 49 q 154 110 153 90 q 158 149 156 129 l 158 171 q 124 170 140 171 q 93 171 108 169 q 54 187 69 172 q 28 218 39 201 q 24 242 21 231 q 40 258 28 253 q 59 265 50 261 q 78 272 68 269 q 133 292 106 283 q 189 311 161 301 q 208 335 208 315 q 190 338 199 342 q 172 331 181 333 q 95 307 133 315 q 18 294 57 299 q -11 292 3 292 q -33 308 -25 293 q 1 349 -22 339 q 53 369 25 360 q 42 374 46 372 q 33 379 39 376 q 64 396 46 392 q 97 408 82 400 q 72 444 85 426 q 47 478 60 461 q 42 485 44 482 q 40 490 40 488 q 38 536 42 514 q 38 583 33 558 q 58 686 50 635 q 76 788 65 738 q 101 884 88 836 q 138 976 114 932 q 154 1002 144 990 q 175 1025 164 1014 q 183 1029 178 1028 q 197 1033 188 1031 q 185 1013 190 1022 q 174 990 181 1004 q 197 1003 188 997 q 219 1014 207 1008 q 222 994 221 1004 q 222 975 222 985 l 236 989 q 243 977 240 983 q 249 965 246 971 q 243 946 246 956 q 236 922 240 936 q 249 933 244 929 q 258 940 253 938 q 212 772 235 856 q 165 603 189 688 q 156 608 161 606 q 150 586 153 597 q 144 564 147 575 q 150 561 150 561 q 153 565 153 563 q 156 568 154 567 q 180 578 175 575 q 192 594 185 582 q 245 674 219 635 q 299 753 271 714 q 314 774 306 764 q 329 794 322 783 q 351 824 340 808 q 372 854 361 839 q 423 930 397 892 q 476 1007 449 968 q 495 1029 485 1018 q 517 1054 506 1040 q 522 1044 519 1049 q 529 1033 525 1040 q 546 1043 538 1038 q 556 1034 551 1038 q 564 1025 561 1031 q 574 1010 568 1017 q 584 996 579 1003 q 591 981 589 989 q 589 963 593 972 q 591 947 596 953 q 582 935 586 940 q 535 867 558 900 q 489 799 513 833 q 472 772 479 786 q 458 744 465 758 q 436 706 447 725 q 415 668 425 688 q 383 602 399 636 q 353 535 368 568 q 347 519 350 528 q 340 504 343 511 q 334 483 338 493 q 336 461 331 474 q 357 463 347 463 q 378 464 367 464 q 405 466 392 465 q 432 467 418 467 q 443 466 438 468 q 447 454 449 464 q 453 447 447 450 q 464 440 458 444 q 474 436 469 436 q 480 432 479 435 q 479 426 481 429 q 478 419 478 422 q 483 417 478 417 q 492 411 488 417 q 503 401 497 406 q 484 387 494 389 q 463 383 474 385 q 401 376 432 381 q 340 368 371 372 q 318 365 329 367 q 303 347 307 363 q 317 340 310 339 q 332 342 325 342 q 375 343 354 343 q 415 344 396 343 q 457 332 442 346 q 483 299 472 318 q 485 283 486 292 q 481 264 483 274 q 477 257 481 261 q 471 247 474 253 m 156 753 q 150 756 151 753 q 144 739 149 746 l 115 635 q 106 595 110 615 q 100 556 103 575 q 97 535 97 546 q 108 517 97 525 q 133 636 121 578 q 156 753 144 694 m 208 183 q 199 135 204 160 q 200 85 193 111 q 211 130 207 108 q 222 178 215 151 q 228 163 225 169 q 235 144 232 156 q 230 176 233 171 q 208 183 226 181 m 292 356 q 258 353 265 358 q 251 324 250 347 q 266 326 258 325 q 279 331 274 328 q 288 339 285 333 q 292 356 292 344 m 107 825 q 124 875 117 850 q 136 926 132 900 q 116 877 126 901 q 107 825 106 853 m 88 760 q 90 759 89 760 q 93 758 92 758 l 93 782 l 88 760 m 231 122 q 224 121 228 121 q 231 97 225 108 l 231 122 m 249 10 q 255 -5 256 3 q 249 -22 254 -12 q 243 -5 238 -12 q 249 10 249 3 z "},"@":{"ha":824,"x_min":-18,"x_max":771,"o":"m 590 342 q 563 311 579 322 q 533 285 546 300 q 535 281 535 282 q 538 278 536 281 q 551 284 544 281 q 564 290 557 288 q 554 275 558 279 q 558 272 557 274 q 560 269 558 271 q 585 288 572 279 q 608 308 597 297 q 629 331 619 319 q 649 354 639 343 q 656 349 653 351 q 664 344 658 347 q 657 334 660 339 q 649 322 654 329 q 665 319 657 321 q 681 315 672 317 q 663 271 674 290 q 633 235 653 251 q 582 190 607 213 q 528 147 557 167 q 441 106 486 121 q 346 88 396 90 q 271 92 306 85 q 205 116 236 100 q 145 154 174 132 q 90 204 117 176 q 58 237 74 221 q 31 276 42 253 q -4 367 10 321 q -10 465 -18 414 q -8 446 -8 456 q -6 425 -7 436 l 0 425 q 4 472 3 449 q 8 518 6 494 l -6 511 q 2 573 -7 543 q 28 631 11 603 q 58 682 43 657 q 92 728 72 707 q 139 773 115 751 q 182 819 163 794 q 249 876 211 856 q 328 914 288 897 q 383 939 356 924 q 447 953 415 954 q 513 944 479 953 q 556 934 535 940 q 597 917 578 928 q 729 774 689 869 q 749 726 739 750 q 764 676 758 701 q 765 576 771 625 q 733 483 760 528 q 588 372 683 397 q 540 400 563 383 q 499 440 517 417 q 467 410 483 425 q 433 381 450 394 q 396 360 418 367 q 344 368 372 351 q 302 398 321 381 q 275 442 283 415 q 268 449 272 447 q 259 453 264 451 q 251 458 254 454 q 251 468 249 461 q 235 494 238 479 q 232 525 232 510 q 241 594 232 561 q 274 658 250 628 q 303 697 289 678 q 340 731 318 717 q 406 756 372 753 q 476 763 440 760 q 509 744 492 753 q 540 725 526 736 q 558 699 553 715 q 565 665 563 683 q 519 661 542 660 q 472 649 496 663 q 435 625 453 638 q 407 593 418 613 q 382 552 393 572 q 365 506 371 532 q 398 519 383 510 q 424 541 413 529 q 448 565 436 553 q 475 586 460 578 q 489 583 483 583 q 500 583 494 582 q 513 589 506 585 q 535 601 521 593 q 561 580 554 596 q 575 549 568 564 q 573 542 576 546 q 567 536 569 539 q 548 510 557 522 q 529 485 539 499 q 529 476 528 482 q 531 465 531 469 q 556 463 546 460 q 576 472 567 465 q 672 608 653 524 q 682 702 685 656 q 656 793 679 749 q 643 811 649 804 q 626 824 638 818 q 553 844 590 839 q 476 838 517 849 q 370 799 421 824 q 275 738 319 774 q 107 472 142 636 q 94 406 99 440 q 96 338 90 372 q 101 308 97 322 q 113 279 106 294 q 136 252 119 260 q 171 242 153 244 q 241 227 206 233 q 314 214 276 221 q 313 221 314 217 q 313 231 313 225 q 378 253 347 239 q 440 285 410 268 q 500 319 469 303 q 564 349 531 336 l 564 328 q 578 335 572 332 q 590 342 585 339 m 364 871 q 333 863 343 868 q 311 843 324 858 q 337 857 324 850 q 364 872 350 864 q 385 874 375 869 q 404 885 394 879 q 381 884 392 886 q 364 871 371 882 m 263 813 q 227 794 243 806 q 201 764 211 783 q 196 760 199 763 q 177 747 186 753 q 158 736 168 742 q 176 757 167 747 q 193 776 185 767 q 206 792 200 783 q 219 807 213 800 q 244 819 235 810 q 261 840 254 828 q 232 833 246 838 q 218 807 218 828 q 208 803 213 804 q 199 800 204 803 q 190 792 194 797 q 181 783 186 786 q 130 745 151 768 q 89 697 108 722 q 55 641 68 671 q 32 578 42 611 q 42 581 39 579 q 51 583 46 582 q 35 539 43 565 q 24 484 28 513 q 20 428 19 456 q 29 383 21 401 q 38 441 29 415 q 65 490 47 467 q 67 474 67 481 q 68 458 67 467 q 82 499 75 481 q 96 536 89 518 q 113 572 104 554 q 132 607 121 589 q 151 641 142 624 q 172 674 161 658 q 196 705 183 689 q 219 738 208 721 q 247 764 231 753 q 272 797 264 775 q 247 786 257 790 q 226 776 238 782 q 244 795 236 786 q 263 814 253 804 q 276 822 269 818 q 289 831 282 825 q 263 813 267 831 m 693 692 q 689 647 690 667 q 683 610 688 628 q 675 573 681 590 q 665 538 669 556 q 696 593 692 563 q 700 635 699 614 q 704 678 701 656 q 701 683 704 681 q 693 692 699 685 m 299 875 q 278 869 288 872 q 261 850 268 865 q 281 863 272 857 q 299 875 290 869 m 201 764 q 210 767 206 767 q 219 769 215 768 q 203 754 214 765 q 196 760 199 754 q 201 764 199 763 m 110 668 q 124 694 117 681 q 138 718 131 707 q 146 715 140 718 q 132 689 139 701 q 110 669 125 676 l 110 668 m 110 669 q 96 633 103 653 q 97 653 94 644 q 110 668 99 663 l 110 669 z "},"A":{"ha":661,"x_min":-65,"x_max":740,"o":"m 93 -50 q 63 -36 76 -42 q 40 -17 49 -31 q 26 -6 33 -8 q 13 3 17 -3 q 3 17 8 8 q -6 26 0 21 q -17 36 -12 31 q -31 47 -24 42 q -44 60 -37 53 q -1 88 -29 78 q 40 235 19 161 q 71 389 60 310 q 44 390 56 393 q 21 383 32 388 q -42 400 -17 375 q -37 414 -42 406 q -65 419 -54 417 q -61 431 -62 426 q -57 439 -60 436 q -26 456 -42 450 q 4 468 -11 463 q 44 483 24 475 q 86 499 65 490 q 117 528 111 506 q 146 599 128 565 q 171 672 164 633 q 176 683 172 678 q 183 693 181 688 q 248 828 215 761 q 313 963 281 894 q 328 990 319 976 q 343 1019 336 1004 q 361 1044 350 1035 q 390 1050 372 1053 q 401 1035 394 1044 q 435 1069 424 1056 q 492 1071 464 1097 q 506 1056 501 1058 q 526 1049 510 1053 q 539 1024 533 1036 q 564 1007 544 1013 q 574 995 569 1004 q 582 979 579 986 q 592 953 588 967 q 603 929 597 940 q 629 836 625 885 q 635 788 632 811 q 640 740 638 764 q 642 694 643 717 q 635 651 640 672 q 634 638 633 644 q 635 625 635 631 q 651 618 643 622 q 665 610 658 614 q 661 597 663 603 q 657 583 660 590 q 674 584 667 583 q 688 585 681 585 q 689 582 689 585 q 674 574 682 579 q 657 567 667 569 q 684 562 674 564 q 703 555 694 560 q 719 541 711 550 q 740 515 728 532 q 703 489 728 496 q 680 485 692 486 q 657 482 668 485 q 635 478 646 481 q 614 474 625 476 q 608 444 611 458 q 604 415 606 431 q 600 350 601 383 q 594 285 599 317 q 588 187 588 236 q 586 89 589 138 q 583 51 585 69 q 586 13 581 32 q 588 -7 589 1 q 585 -28 588 -15 q 565 -8 576 -17 q 553 -22 563 -12 q 534 -7 544 -12 q 513 4 524 -1 q 496 15 504 7 q 478 32 488 22 q 463 52 469 40 q 442 67 456 64 q 422 97 433 83 q 408 129 410 110 q 401 181 406 156 q 397 232 397 207 q 399 288 397 260 q 404 346 401 317 q 410 387 407 367 q 417 428 414 407 q 415 439 417 433 q 413 451 414 444 q 371 450 390 456 q 332 442 351 444 q 282 434 307 439 q 232 424 257 429 q 210 415 219 421 q 194 397 194 411 q 185 335 196 365 q 165 276 175 306 q 145 201 153 239 q 131 122 138 163 q 119 56 125 89 q 107 -12 113 22 q 100 -31 104 -22 q 93 -50 96 -39 m 496 868 q 493 835 494 851 q 490 801 492 819 q 482 771 488 786 q 471 739 476 756 q 466 708 465 724 q 464 675 467 692 q 462 657 463 665 q 460 638 461 649 q 460 685 458 661 q 461 732 461 708 q 459 779 461 756 q 449 826 457 803 q 439 823 443 824 q 433 819 435 822 q 346 694 386 758 q 274 556 306 631 q 374 575 326 561 q 472 610 422 589 q 473 635 474 621 q 478 660 472 649 q 490 693 489 676 q 494 725 492 710 q 499 752 497 739 q 504 776 500 765 q 507 822 511 800 q 496 868 503 844 m 425 451 q 407 305 410 360 q 415 218 404 250 q 421 278 418 250 q 426 332 424 306 q 430 363 429 347 q 438 392 431 379 q 439 406 443 401 q 433 410 436 408 q 444 431 440 422 q 451 446 449 439 q 450 457 453 447 q 438 455 443 456 q 425 451 432 454 m 308 739 q 320 756 315 747 q 332 772 325 765 q 358 808 346 790 q 383 843 371 825 q 410 876 396 860 q 436 907 424 892 q 441 918 440 914 q 432 925 442 922 q 362 840 393 885 q 303 744 331 794 l 308 739 m 543 301 q 547 340 546 321 q 551 378 549 358 q 540 340 540 360 q 543 301 539 321 m 31 146 q 33 144 32 144 q 43 158 39 151 q 51 171 47 164 q 53 183 57 178 q 46 197 49 188 q 36 168 39 179 q 31 146 33 157 m 271 667 q 263 669 268 667 q 260 662 261 665 q 257 656 258 658 q 259 654 258 654 q 261 653 260 654 q 265 659 263 656 q 271 667 268 663 m 450 732 l 447 732 l 447 771 q 450 772 449 772 l 450 732 z "},"B":{"ha":815,"x_min":-22,"x_max":757,"o":"m 47 967 q 101 996 74 983 q 114 997 108 1000 q 155 996 136 988 q 192 1014 174 1004 q 170 1012 181 1013 q 149 1011 160 1011 q 148 1013 149 1013 q 147 1015 147 1014 q 172 1026 160 1021 q 199 1035 183 1032 q 266 1045 233 1040 q 333 1053 299 1050 q 407 1056 369 1056 q 481 1056 444 1056 q 545 1044 514 1054 q 606 1019 576 1035 q 635 992 622 1008 q 663 938 649 964 q 689 883 676 911 q 694 839 699 861 q 678 797 689 817 q 648 743 663 769 q 610 694 633 717 q 576 659 592 678 q 542 621 560 640 q 533 608 539 618 q 609 570 572 590 q 676 521 646 550 q 672 509 674 514 q 669 500 671 504 q 672 492 669 494 q 690 481 683 488 q 697 460 696 474 q 721 435 715 451 q 738 404 726 419 q 756 349 757 376 q 738 294 754 322 q 733 287 735 290 q 731 281 731 283 q 719 247 729 260 q 697 219 708 233 q 571 121 642 158 q 492 78 533 97 q 408 42 451 58 q 295 8 353 18 q 179 -19 238 -1 q 178 -26 178 -22 q 176 -32 178 -29 q 168 -43 174 -42 q 158 -37 163 -44 q 144 -26 151 -28 q 128 -21 138 -24 q 115 -17 121 -19 q 104 -11 108 -15 q 66 15 89 7 q 29 46 43 24 q 22 50 26 49 q 15 54 18 51 q 17 65 17 61 q 19 76 17 69 q -19 111 -15 78 q -10 140 -22 126 q 24 160 1 153 q 33 254 31 207 q 35 347 35 301 q 40 467 38 408 q 44 586 42 525 q 45 681 46 633 q 49 778 44 729 q 52 808 51 793 q 38 836 53 824 q 36 844 35 838 q 38 854 38 850 q 33 876 40 867 q 21 850 29 865 q 11 872 7 857 q 24 905 17 889 q 43 933 31 921 q 60 951 54 942 q 61 964 61 954 q 49 965 54 964 l 47 967 m 179 206 q 195 208 189 208 q 207 211 201 208 q 324 264 268 235 q 436 326 381 293 q 497 374 469 349 q 526 403 513 388 q 551 433 539 418 q 556 442 554 438 q 561 451 558 446 q 540 458 550 454 q 519 460 529 461 q 466 463 492 458 q 414 457 440 467 q 389 457 400 454 q 334 452 361 458 q 279 435 307 446 q 249 423 260 426 q 228 422 238 419 q 210 431 219 424 q 186 453 201 438 q 180 329 183 390 q 179 206 176 268 m 539 919 q 523 922 529 921 q 510 922 517 922 l 360 914 q 290 902 325 911 q 219 882 254 893 q 199 851 199 875 q 200 828 200 844 q 200 756 200 792 q 193 685 200 721 q 192 669 192 678 q 193 650 193 660 q 206 651 203 650 q 295 697 250 674 q 382 751 340 721 q 400 766 392 758 q 419 781 408 774 q 539 919 496 832 m 453 268 q 485 268 471 254 q 526 297 506 283 q 567 326 547 311 q 587 344 578 335 q 607 365 596 353 q 598 366 600 365 q 593 365 596 367 q 535 320 564 342 q 469 285 506 299 q 462 278 465 282 q 453 268 458 274 m 182 114 q 211 119 193 114 q 248 131 229 124 q 283 145 267 138 q 306 160 299 153 q 274 157 289 163 q 244 147 260 151 q 213 134 228 140 q 182 121 197 128 q 181 119 179 121 q 182 114 182 117 m 708 338 q 696 326 696 328 q 694 314 694 324 q 700 304 694 315 q 703 315 701 311 q 707 324 706 318 q 707 328 707 326 q 708 338 707 331 m 49 965 q 41 958 44 963 q 32 951 38 954 q 31 953 32 953 q 31 954 31 953 q 38 960 33 957 q 47 967 43 964 l 49 965 z "},"C":{"ha":772,"x_min":0,"x_max":721,"o":"m 674 624 q 672 634 672 631 q 671 643 671 638 q 642 635 654 646 q 611 621 631 625 q 596 631 604 626 q 578 643 588 636 q 567 642 571 640 q 560 649 563 644 q 556 658 558 653 q 550 665 554 663 q 538 683 542 672 q 526 706 533 694 q 502 714 508 708 q 494 739 496 719 q 494 753 494 746 q 493 768 494 760 q 492 782 493 775 q 489 797 490 789 q 463 806 476 801 q 435 815 450 811 q 396 807 414 819 q 329 750 361 779 q 272 683 297 721 q 252 657 263 669 q 233 629 242 644 q 220 604 225 617 q 210 576 215 592 q 190 494 199 536 q 179 410 182 453 q 178 400 179 406 q 175 393 178 394 q 169 385 167 390 q 172 376 171 381 q 177 347 175 361 q 178 317 179 332 q 185 273 174 290 q 215 242 197 256 q 292 207 251 211 q 374 222 332 203 q 426 254 404 235 q 468 297 449 274 q 515 366 493 331 q 554 440 538 401 q 565 465 560 451 q 581 485 571 478 q 597 500 589 492 q 624 501 606 508 q 644 499 633 499 q 665 493 654 499 q 669 479 668 486 q 675 465 669 472 q 695 439 686 454 q 711 408 704 424 q 715 393 714 401 q 715 376 715 385 q 706 319 715 346 q 685 265 696 293 q 675 254 682 254 q 657 244 661 253 q 649 225 653 236 q 599 153 628 185 q 535 93 571 121 q 521 83 528 88 q 507 72 514 78 q 502 66 504 69 q 501 61 500 63 q 493 44 507 50 q 446 25 469 32 q 396 25 422 18 q 336 35 367 31 q 276 46 306 39 q 221 65 247 53 q 172 96 194 76 q 131 134 151 115 q 93 172 111 153 q 82 194 86 181 q 74 224 78 208 q 67 253 71 239 q 57 276 63 267 q 53 290 54 283 q 49 304 51 297 q 41 322 44 313 q 33 340 38 331 q 26 352 31 346 q 21 364 22 358 q 8 461 15 413 q 10 558 0 510 q 27 628 17 594 q 50 694 38 661 q 56 706 53 701 q 64 717 60 710 q 72 730 67 724 q 72 747 78 736 q 75 758 71 751 q 82 769 79 764 q 152 856 114 818 q 243 918 190 893 q 300 942 271 932 q 360 954 329 951 q 389 963 375 957 q 418 972 403 968 q 497 977 460 982 q 569 944 535 972 q 669 826 635 896 q 682 803 675 814 q 696 779 689 792 q 706 664 721 721 q 701 653 704 658 q 692 646 699 649 q 684 637 688 643 q 674 624 681 631 m 36 496 q 43 494 42 496 q 57 540 50 518 q 71 586 64 563 q 86 645 82 624 q 85 682 90 667 q 47 591 61 638 q 36 496 33 544 m 114 788 q 142 806 129 794 q 169 835 154 818 q 133 817 146 828 q 114 788 121 806 m 681 301 q 695 340 689 321 q 692 385 701 358 q 686 340 689 360 q 681 301 683 321 m 68 344 q 69 349 68 347 q 69 351 69 350 l 69 353 q 65 363 68 357 q 64 360 65 363 q 65 354 65 357 q 68 344 65 351 m 14 458 l 14 476 l 13 476 l 13 458 l 14 458 z "},"D":{"ha":693,"x_min":-35,"x_max":675,"o":"m 38 125 q 15 122 25 124 q -4 119 4 121 q -8 139 -10 133 q 4 149 -7 144 q 37 160 21 156 q 68 171 53 165 q 90 182 78 172 q 74 201 82 192 q 58 217 65 210 q 38 242 46 229 q 24 274 29 254 q 13 303 19 289 q 0 332 6 317 q -6 352 -3 342 q -12 374 -10 363 q -10 404 -15 397 q 21 414 -4 411 q 26 429 24 421 q 29 444 28 438 q 38 525 33 485 q 44 606 42 565 q 52 722 49 664 q 61 839 56 781 q 60 848 61 843 q 58 861 60 853 q 35 844 46 853 q 13 829 24 836 q -9 858 1 844 q -32 886 -19 871 q -12 936 -35 913 q 15 966 1 951 q 46 989 29 981 q 73 1013 63 1000 q 82 1050 83 1026 q 106 1058 93 1056 q 131 1064 119 1061 q 143 1052 138 1058 q 154 1042 149 1046 l 167 1042 q 361 1036 263 1071 q 448 998 407 1021 q 525 942 489 975 q 576 879 556 914 q 613 804 597 844 q 622 781 617 792 q 632 760 628 769 q 652 717 643 738 q 663 672 661 697 q 669 636 664 653 q 674 600 675 619 q 669 558 674 579 q 660 517 664 536 q 642 451 651 483 q 625 388 633 419 q 616 363 621 374 q 606 339 611 351 q 503 164 569 235 q 344 44 436 93 q 268 14 308 24 q 185 -3 228 4 q 165 -3 175 -3 q 147 -6 156 -4 q 108 -5 126 -8 q 72 14 89 -1 q 52 31 60 24 q 40 44 44 38 q 33 61 36 51 q 29 88 31 71 q 28 93 29 92 q 24 112 17 106 q 38 125 31 118 m 253 271 q 261 274 261 271 q 308 306 286 289 q 347 344 329 322 q 361 365 354 354 q 375 386 368 375 q 433 458 407 419 q 474 540 458 497 q 492 597 483 569 q 503 656 501 625 q 502 714 504 683 q 489 774 500 744 q 476 807 485 790 q 447 835 467 824 q 296 875 376 872 q 291 873 293 875 q 286 869 289 871 q 284 853 285 863 q 282 836 283 844 q 274 804 276 819 q 268 774 272 789 q 263 754 265 764 q 258 735 261 744 q 242 610 247 672 q 229 485 236 547 q 227 410 226 446 q 232 336 228 374 q 239 376 232 353 q 243 324 242 349 q 253 271 244 299 m 154 360 q 149 284 146 322 q 156 206 153 246 q 180 213 171 210 q 194 224 189 217 q 174 294 183 261 q 154 360 164 328 m 182 910 q 169 835 168 872 q 167 758 169 797 q 184 833 178 796 q 182 910 190 871 m 224 632 q 233 660 235 647 q 229 685 232 672 q 227 660 228 672 q 224 632 226 649 m 178 376 q 177 385 178 381 q 176 392 176 389 q 172 390 175 390 l 172 376 l 178 376 z "},"E":{"ha":742,"x_min":-50,"x_max":692,"o":"m 361 751 q 397 754 381 753 q 433 756 414 756 q 466 753 449 756 q 500 742 483 750 q 499 724 499 732 q 497 704 499 715 q 540 691 526 706 q 558 650 554 676 q 565 638 560 643 q 572 626 569 633 q 577 600 582 611 q 556 586 572 589 q 498 581 526 583 q 442 576 469 579 q 348 567 394 572 q 256 547 301 563 q 217 536 236 540 q 178 526 197 532 q 154 503 156 522 q 152 485 153 493 q 150 467 151 476 q 143 364 146 415 q 146 261 140 313 q 147 249 146 254 q 151 233 149 243 q 188 251 171 243 q 221 267 204 258 q 324 315 271 294 q 432 353 376 336 q 490 363 460 363 q 553 360 521 363 q 560 358 556 360 q 569 356 564 357 q 597 349 583 353 q 632 339 611 344 q 643 317 642 332 q 651 289 644 303 q 652 283 653 286 q 653 279 651 281 q 676 251 669 268 q 692 218 682 233 q 661 187 681 194 q 621 172 642 179 q 542 144 582 158 q 464 115 503 131 q 367 71 415 96 q 275 15 319 46 q 241 -6 254 1 q 216 -12 228 -12 q 190 -6 204 -12 q 154 15 176 1 q 89 64 121 36 q 78 74 82 68 q 71 88 75 81 q 59 110 64 99 q 44 131 54 122 q 20 165 25 146 q 13 206 15 185 q 6 319 6 264 q 14 433 6 375 q 18 496 18 464 q 19 506 19 501 q 15 513 18 511 q 4 528 7 519 q 1 544 1 536 q 1 562 1 553 q -3 579 1 571 q -2 585 -4 582 q 3 594 0 589 q -22 588 -10 592 q -50 579 -35 583 q -38 611 -43 596 q -22 638 -33 626 q 1 656 -12 649 q 31 672 15 663 q 44 762 38 717 q 58 854 50 807 q 32 886 44 869 q 4 917 19 903 q 14 932 7 928 q 29 939 21 936 q 90 955 61 946 q 153 969 119 964 q 217 985 185 974 q 281 1003 249 996 q 363 1018 321 1011 q 446 1032 404 1025 q 482 1039 464 1035 q 519 1046 500 1043 q 576 1042 549 1050 q 632 1022 604 1033 q 645 1007 644 1018 q 644 985 646 996 q 652 978 647 982 q 663 971 657 975 q 658 964 660 968 q 653 957 656 960 q 660 953 657 954 q 668 949 664 951 q 665 935 669 939 q 653 929 660 932 q 640 923 646 926 q 632 911 633 919 q 660 903 644 899 q 689 900 676 907 q 687 878 692 885 q 667 871 682 872 q 623 865 644 868 q 576 858 601 863 q 562 876 572 872 q 539 878 551 879 q 480 874 508 875 q 421 871 451 872 q 368 869 394 869 q 315 867 342 868 q 251 862 283 864 q 189 857 219 860 q 185 830 186 847 q 183 794 183 813 q 183 758 182 775 q 185 732 183 740 q 288 758 238 744 q 394 765 339 771 q 385 763 390 763 q 376 763 381 763 q 367 760 371 763 q 361 751 363 758 q 325 747 342 764 q 303 748 314 747 q 281 742 292 749 q 244 737 261 740 q 211 721 226 733 q 247 728 229 725 q 279 742 264 731 q 324 747 306 735 l 361 751 l 361 751 z "},"F":{"ha":661,"x_min":-21,"x_max":654,"o":"m 49 94 q 39 144 43 121 q 28 188 35 167 q 15 267 17 228 q 10 347 13 307 q 8 420 7 383 q 8 494 10 457 q 6 519 8 507 q -11 542 4 532 q -21 561 -21 549 q -14 583 -21 574 q -3 596 -11 588 q 15 620 11 607 q 19 649 18 633 q 44 853 32 753 q 46 862 46 858 q 47 868 46 865 q 51 903 53 894 q 33 931 49 911 q 43 946 36 940 q 28 957 32 951 q 31 964 28 964 q 61 981 46 972 q 94 999 76 989 q 101 1003 97 1001 q 108 1006 104 1006 q 208 1015 158 1006 q 306 1032 257 1025 q 382 1044 344 1039 q 458 1057 419 1050 q 489 1056 474 1058 q 519 1053 504 1054 q 544 1048 532 1050 q 568 1043 556 1046 q 576 1041 571 1042 q 583 1038 581 1040 q 621 994 603 1017 q 640 935 639 971 q 624 928 633 931 q 603 919 614 925 q 618 911 610 914 q 633 906 626 908 q 646 898 640 903 q 654 883 651 893 q 622 869 644 869 q 507 872 564 871 q 390 871 450 874 q 303 866 346 869 q 217 860 261 863 q 210 825 214 850 q 203 771 206 800 q 199 713 200 742 q 199 668 197 685 q 246 675 222 671 q 293 683 269 679 q 306 686 300 685 q 315 688 311 688 q 394 689 356 688 q 471 688 432 690 q 523 676 499 686 q 556 631 547 665 q 567 619 558 624 q 568 604 575 615 q 567 602 567 604 q 569 599 568 600 q 586 588 581 596 q 596 572 592 581 q 603 553 600 563 q 615 539 607 544 q 590 518 604 521 q 560 515 575 515 q 508 516 533 515 q 456 515 482 517 q 296 511 375 515 q 231 506 264 510 q 163 499 199 501 q 160 478 161 488 q 157 461 160 468 q 142 347 144 403 q 143 233 140 292 q 147 197 144 214 q 151 160 149 179 q 155 149 153 154 q 160 138 157 143 q 164 130 161 133 q 168 119 167 126 q 182 72 175 96 q 196 24 189 47 q 201 13 197 17 q 208 4 206 10 q 215 -6 211 -1 q 225 -19 218 -10 q 190 -15 206 -17 q 167 -1 175 -14 q 146 17 158 13 q 122 22 133 21 q 101 31 110 25 q 86 44 93 36 q 67 71 76 58 q 49 94 57 83 m 129 419 q 120 385 121 400 q 122 351 119 369 q 124 314 125 332 q 124 278 124 296 l 129 278 l 129 419 z "},"G":{"ha":760,"x_min":-12,"x_max":710,"o":"m 524 343 q 491 342 506 342 q 461 340 476 342 q 431 339 446 339 q 400 338 415 339 q 335 361 363 338 q 326 371 331 367 q 314 381 321 375 q 308 387 311 383 q 310 397 306 390 q 308 404 310 400 q 303 411 306 408 q 290 433 296 422 q 288 458 285 443 q 319 475 303 468 q 356 485 336 482 q 419 495 388 490 q 482 507 450 500 q 547 522 514 514 q 615 539 579 529 q 633 529 622 535 q 654 517 643 524 q 653 510 654 514 q 654 504 651 507 q 663 489 658 497 q 674 475 668 481 q 696 451 690 465 q 708 424 701 438 q 703 403 710 415 q 699 392 700 397 q 694 381 697 388 q 710 369 703 372 q 708 366 708 368 q 707 364 708 364 q 693 364 700 364 q 679 361 686 364 q 669 358 674 360 q 658 356 665 357 q 672 322 667 338 q 676 288 678 307 q 671 242 676 264 q 654 200 665 221 q 638 172 647 185 q 621 143 629 158 q 604 116 613 129 q 586 90 596 103 q 528 28 560 54 q 453 -10 497 1 q 444 -11 449 -10 q 322 -15 379 -35 q 214 47 265 6 q 165 96 186 69 q 117 147 143 122 q 101 162 110 154 q 85 176 92 169 q -6 399 -1 275 q -9 435 -6 418 q -12 471 -12 453 q -7 572 -12 522 q 7 669 -1 621 q 68 840 24 760 q 144 935 94 893 q 174 958 160 946 q 203 981 188 969 q 228 996 215 989 q 253 1010 240 1003 q 292 1031 272 1021 q 331 1050 311 1040 q 345 1055 338 1053 q 360 1056 353 1057 q 405 1053 382 1054 q 451 1047 428 1053 q 488 1033 469 1042 q 525 1014 506 1025 q 548 1000 538 1008 q 569 985 558 992 q 598 965 588 978 q 617 938 608 953 l 658 858 q 672 815 669 838 q 668 771 675 793 q 647 718 657 743 q 626 667 638 693 q 623 662 625 664 q 619 657 621 660 q 607 644 614 649 q 592 642 600 639 q 577 651 585 643 q 569 669 569 660 q 570 685 569 676 q 572 700 571 693 q 578 745 575 724 q 582 789 581 767 q 581 813 583 801 q 575 836 578 825 q 563 867 574 857 q 532 881 551 878 q 414 857 471 886 q 251 685 301 797 q 224 619 236 653 q 200 553 211 586 q 196 529 196 542 q 195 510 196 518 q 188 492 194 501 q 185 478 185 489 q 181 426 188 451 q 174 372 175 400 q 174 306 174 339 q 181 240 175 272 q 210 188 186 208 q 282 156 246 160 q 358 168 318 151 q 440 224 407 190 q 501 300 474 257 q 510 312 506 307 q 517 322 514 317 q 520 331 519 325 q 524 343 521 336 m 54 517 q 58 524 57 519 q 63 531 60 528 q 65 540 64 535 q 67 547 65 544 q 84 658 75 603 q 113 765 93 713 l 111 767 q 107 772 108 769 q 78 696 88 735 q 58 618 68 657 q 48 567 53 593 q 49 517 43 542 l 54 517 m 18 440 q 25 499 29 464 q 15 467 15 481 q 18 440 15 454 m 56 728 q 45 703 49 717 q 39 671 42 689 q 51 699 50 686 q 56 728 53 713 z "},"H":{"ha":708,"x_min":-57,"x_max":696,"o":"m 553 92 l 557 88 q 560 42 560 64 q 560 -3 560 21 q 559 -49 560 -26 q 567 -93 558 -71 l 551 -81 q 547 -96 549 -87 q 542 -112 544 -104 l 450 -39 q 439 -28 444 -35 q 432 -14 433 -21 q 422 13 431 1 q 403 36 414 25 l 399 43 q 412 58 401 58 q 433 61 422 58 q 417 75 424 68 q 399 92 410 82 q 417 89 410 90 q 432 86 425 88 q 435 92 435 89 q 442 139 439 115 q 449 186 446 163 q 449 209 450 197 q 450 232 449 221 l 469 365 q 472 374 471 369 q 469 382 472 379 q 463 390 467 386 q 454 396 458 393 q 444 368 447 382 q 440 340 442 354 q 438 310 439 325 q 432 279 436 294 l 432 389 q 412 394 422 394 q 390 393 401 394 l 218 376 q 194 373 206 374 q 171 371 182 372 q 161 354 161 364 q 161 336 161 344 q 158 260 160 299 q 158 186 156 222 q 162 95 163 140 q 164 6 161 50 l 139 -3 q 106 28 110 15 q 117 75 101 42 q 100 111 110 88 q 92 86 89 99 q 90 63 94 74 q 76 60 83 61 q 63 56 69 58 q 58 63 60 60 q 53 69 56 67 q 33 97 35 81 q 29 129 31 113 q 27 241 26 186 q 29 353 28 296 q 30 365 29 360 q 28 378 31 371 q 10 401 25 396 q -5 411 3 406 q -17 425 -12 417 q -57 458 -25 451 q -44 470 -50 465 q -33 479 -39 475 q -41 487 -37 483 q -51 494 -44 490 q -8 515 -32 510 q 38 533 15 521 q 42 595 40 565 q 43 657 43 625 q 44 783 44 721 q 47 910 44 846 q 48 965 47 938 q 50 1021 49 992 l 83 1011 l 94 1018 q 114 1029 107 1029 q 129 1014 121 1029 q 150 967 140 990 q 163 918 160 944 q 166 898 164 907 q 171 879 168 889 q 184 803 182 842 q 183 728 186 765 l 171 578 q 172 571 171 575 q 172 563 172 567 q 185 560 179 561 q 196 561 190 560 l 311 569 q 332 572 322 572 q 353 574 342 572 q 369 574 361 574 q 385 576 378 574 q 413 582 400 583 q 439 574 425 581 q 452 594 449 582 q 458 618 456 607 l 508 931 q 510 944 510 938 q 511 958 511 951 q 513 995 508 978 q 525 1032 518 1013 q 539 1036 535 1032 q 544 1047 543 1040 q 547 1059 546 1053 q 553 1069 549 1065 q 560 1057 556 1063 q 569 1040 564 1051 l 583 1063 l 593 1057 q 624 986 621 1026 q 624 885 624 936 q 614 785 624 835 q 611 760 613 772 q 607 735 610 749 q 606 726 606 731 q 603 718 606 722 q 585 660 588 690 q 583 600 582 631 q 581 588 583 596 q 583 567 579 572 q 599 560 586 563 q 613 551 610 558 q 617 541 615 547 q 624 533 619 535 q 648 517 642 531 q 665 493 654 504 q 681 470 675 485 q 678 439 686 456 q 678 431 675 433 q 685 425 682 428 q 696 403 689 419 q 663 393 679 394 q 631 392 647 392 q 599 394 615 393 q 568 393 583 396 q 557 324 563 369 q 548 229 551 278 q 544 138 544 181 q 547 76 543 94 l 553 92 m 110 243 l 104 350 q 97 307 100 335 q 92 248 93 279 q 90 187 90 217 q 93 140 90 157 q 99 126 93 138 q 111 165 108 150 q 113 201 114 181 l 128 169 l 132 239 q 135 270 133 254 q 136 301 136 286 q 140 332 135 317 q 133 368 144 347 q 129 351 131 357 q 128 340 128 346 q 124 278 125 308 q 119 217 122 249 q 117 208 119 213 q 114 200 115 204 l 110 243 m 549 369 l 542 372 q 536 366 539 369 q 533 358 533 363 q 524 277 528 318 q 518 196 521 236 l 519 194 q 525 190 522 192 l 549 369 m 506 719 q 485 662 488 692 q 478 600 483 632 q 485 585 476 596 q 506 719 508 651 m 639 860 q 638 769 643 814 q 625 679 632 724 q 619 656 622 668 q 614 632 617 643 l 639 860 m 567 1003 q 557 992 560 999 l 538 825 q 556 913 547 869 q 567 1003 564 957 m 549 53 q 551 -31 535 4 q 552 10 551 -10 q 549 53 553 29 m 561 167 q 563 219 557 194 q 571 269 568 244 l 567 182 q 565 176 567 179 q 561 167 564 174 m 472 217 q 472 229 472 222 q 472 243 471 236 q 474 257 472 250 q 478 271 476 264 q 475 272 476 271 q 472 272 474 272 q 465 244 468 257 q 465 217 463 231 l 472 217 m 614 628 l 614 600 l 610 600 l 614 628 m 614 631 l 614 628 l 614 631 z "},"I":{"ha":319,"x_min":22,"x_max":269,"o":"m 189 1026 q 191 1010 190 1018 q 192 994 192 1001 l 214 994 q 219 987 218 992 q 222 977 221 982 q 225 968 222 972 q 235 963 228 964 q 239 958 238 963 q 240 951 240 954 q 245 899 242 924 q 246 846 249 874 q 238 813 242 831 q 238 776 235 796 q 254 815 254 797 q 256 852 256 833 q 257 890 257 871 q 258 908 257 899 q 263 929 258 918 q 268 907 268 915 q 269 833 269 875 q 267 748 268 792 q 262 663 265 704 q 254 590 258 621 q 251 560 253 575 q 244 531 249 544 q 238 499 239 515 q 235 467 236 482 l 235 425 q 235 394 235 410 q 233 364 236 379 q 224 306 225 335 q 222 247 224 276 q 222 213 221 231 q 221 181 222 196 q 223 132 219 156 q 243 89 226 108 q 249 72 249 78 q 242 56 250 58 q 222 53 233 54 q 222 38 222 46 q 221 21 221 29 q 214 22 218 21 q 208 21 210 22 q 183 7 197 4 q 157 17 169 10 q 136 26 146 22 q 113 18 126 29 q 99 47 110 38 q 72 63 88 56 q 47 111 38 79 q 51 124 49 118 q 53 136 53 129 q 55 177 56 157 q 43 218 54 197 q 31 256 35 236 q 25 296 28 276 q 23 360 24 328 q 25 425 22 393 q 30 493 26 454 q 37 574 33 532 q 44 655 40 615 q 50 724 47 694 q 53 775 53 750 q 57 825 54 800 q 69 905 61 865 q 89 983 76 944 q 97 1013 94 997 q 101 1043 99 1028 q 106 1058 104 1050 q 122 1068 108 1065 q 121 1051 121 1060 q 119 1032 121 1043 q 133 1036 128 1035 q 144 1040 138 1038 q 150 1004 163 1024 q 140 981 143 993 q 136 957 138 969 q 126 884 132 921 q 115 810 119 847 q 107 742 111 781 q 99 663 103 703 q 90 583 94 622 q 82 515 86 544 q 78 490 81 503 q 74 464 76 476 q 86 318 65 390 q 88 333 88 326 q 89 349 89 340 q 92 392 88 371 q 99 436 96 414 q 104 476 101 456 q 104 517 107 496 q 106 570 103 543 q 114 622 110 597 q 124 680 118 646 q 135 750 129 714 q 146 820 140 786 q 156 878 151 854 q 165 933 161 906 q 172 988 168 960 q 176 1008 174 999 q 189 1026 179 1018 m 200 242 q 203 287 203 265 q 206 331 204 308 q 194 287 196 308 q 200 242 192 265 m 199 615 q 192 617 197 617 q 190 598 190 607 q 189 579 190 589 q 190 578 190 579 q 192 578 190 578 q 195 597 193 588 q 199 615 197 606 m 222 604 q 220 605 221 604 q 218 606 219 606 q 217 594 218 599 q 217 585 217 590 l 221 585 q 222 594 221 589 q 222 604 222 599 m 189 528 q 192 526 189 526 l 192 543 l 189 543 l 189 528 z "},"J":{"ha":653,"x_min":-57,"x_max":615,"o":"m 433 876 q 355 851 392 865 q 282 821 318 836 q 224 798 254 808 q 165 776 194 788 q 144 772 154 772 q 124 782 135 771 q 116 785 121 785 q 106 787 111 786 q 97 789 101 788 q 92 797 93 790 q 94 823 90 810 q 107 846 99 836 q 107 853 107 846 q 93 847 100 850 q 79 842 86 844 q 78 846 78 843 q 76 849 78 847 q 84 858 81 853 q 94 865 88 863 q 145 897 119 882 q 197 929 171 913 q 214 933 208 935 q 241 935 229 931 q 264 947 253 940 q 311 971 288 960 q 354 1001 335 982 q 381 1017 365 1013 q 411 1026 396 1022 q 471 1065 446 1036 q 476 1058 474 1063 q 481 1051 478 1054 q 494 1054 488 1053 q 508 1056 501 1056 q 531 1051 519 1056 q 544 1038 538 1046 q 557 1024 550 1031 q 563 1015 560 1019 q 571 1006 567 1010 q 577 999 574 1003 q 581 992 581 994 q 588 965 579 976 q 603 942 596 953 q 610 918 608 931 q 613 894 613 906 q 610 722 615 807 q 589 553 604 638 q 578 499 582 525 q 567 444 574 472 q 566 426 565 435 q 571 406 567 417 q 568 354 575 382 q 558 296 564 324 q 544 239 551 268 q 506 143 532 188 q 444 60 481 99 q 373 6 413 25 q 285 -8 333 -12 q 208 10 243 -6 q 139 44 174 25 q 87 81 111 61 q 39 124 63 100 q -6 180 13 150 q -40 242 -25 210 q -36 307 -57 274 l -36 274 q -24 288 -29 282 q -15 297 -19 293 q -10 304 -11 301 q 38 375 6 349 q 106 425 71 401 q 120 417 115 421 q 126 408 125 414 q 124 390 126 401 q 117 357 122 378 q 130 363 124 360 q 140 368 136 367 q 152 369 146 369 q 165 371 158 369 q 171 311 190 342 q 124 229 144 268 q 119 220 121 225 q 114 208 118 215 q 126 203 121 206 q 138 199 131 201 q 300 274 242 190 q 333 332 319 301 q 361 394 347 363 q 396 522 386 457 q 417 653 406 586 q 428 749 424 701 q 438 846 432 797 q 433 876 438 860 m 307 18 q 333 23 328 21 q 350 39 339 25 q 327 38 332 40 q 307 18 322 35 m 506 188 q 500 190 506 188 q 494 175 497 182 q 489 160 492 168 q 492 159 490 160 q 496 158 493 158 q 501 173 499 165 q 506 188 503 181 m 432 929 q 429 935 429 935 q 410 926 415 929 q 410 924 410 925 q 411 921 411 924 q 422 925 417 924 q 432 929 426 926 z "},"K":{"ha":688,"x_min":-15,"x_max":667,"o":"m 175 -4 q 125 18 143 -8 q 106 40 115 29 q 88 63 97 51 q 85 36 81 47 q 96 14 89 25 q 90 2 93 7 q 83 -7 88 -3 q 73 4 78 -1 q 63 14 68 10 q 58 44 60 29 q 42 68 56 58 q 37 78 39 71 q 32 96 35 86 q 22 90 26 93 q 13 82 17 88 q -8 121 -6 97 q -12 168 -11 144 q -13 208 -15 188 q -10 253 -11 229 q -6 305 -7 279 q -4 358 -4 331 q 0 487 -6 424 q 10 617 6 550 l 26 792 q 34 903 31 849 q 47 1017 38 958 q 53 1037 50 1026 q 58 1060 56 1047 q 76 1055 68 1057 q 93 1050 83 1053 q 99 1026 96 1039 q 104 1001 101 1014 q 113 1015 111 1008 q 119 1032 115 1022 q 128 1048 124 1043 q 143 1047 133 1053 q 153 1047 149 1044 q 163 1044 158 1050 q 170 1033 167 1039 q 175 1021 174 1028 q 184 1008 179 1014 q 193 994 189 1001 q 211 924 214 964 q 208 893 208 908 q 214 861 207 878 q 219 842 218 854 q 211 818 221 829 q 206 808 207 815 q 206 793 206 800 q 201 732 208 761 q 194 678 196 704 q 188 624 192 651 q 188 616 188 621 q 189 607 189 611 q 205 609 200 603 q 217 621 210 615 q 331 723 276 668 q 439 836 385 778 q 510 910 475 872 q 579 985 544 947 q 594 999 586 993 q 613 1004 601 1006 l 613 971 q 635 951 626 964 q 656 926 644 938 q 638 874 647 899 q 613 826 628 849 q 552 740 585 779 q 488 661 519 701 q 449 615 468 638 q 408 572 431 592 q 370 535 389 556 q 332 492 351 514 q 323 482 326 488 q 313 467 319 476 q 365 445 340 456 q 414 424 390 435 q 437 413 425 418 q 460 400 449 407 q 535 361 499 383 q 603 308 571 339 q 626 288 615 299 q 638 253 636 276 q 640 244 638 249 q 644 238 642 240 q 657 219 651 226 q 657 196 663 211 q 660 188 657 193 q 667 178 664 183 q 653 166 660 167 q 636 172 646 165 q 575 199 606 188 q 514 225 544 211 q 453 256 483 242 q 361 292 408 276 q 267 322 314 308 q 250 328 258 325 q 235 335 242 331 q 209 340 221 342 q 186 336 197 339 q 178 330 182 335 q 175 321 175 325 q 172 260 172 290 q 168 199 171 229 q 169 148 165 171 q 178 103 172 125 q 185 49 185 75 q 175 -4 185 24 m 18 347 q 15 281 17 314 q 10 215 13 247 q 8 196 8 204 q 8 176 7 188 q 13 117 8 146 q 17 110 14 114 q 25 99 19 106 q 30 132 28 118 q 31 161 32 146 q 31 200 28 183 q 37 240 38 219 q 39 282 36 261 q 42 315 42 299 q 42 349 42 332 l 42 425 l 39 425 q 34 364 36 394 q 29 301 32 333 l 26 301 q 26 324 26 313 q 24 347 25 336 l 18 347 m 56 389 q 53 356 54 372 q 50 322 51 339 q 47 291 47 307 q 47 258 47 275 q 46 227 50 243 q 53 196 42 211 q 58 292 54 244 q 56 389 63 339 m 78 974 q 71 908 63 942 q 75 941 74 925 q 78 974 76 957 m -3 275 l -3 263 l 0 263 l 0 275 l -3 275 z "},"L":{"ha":622,"x_min":-19,"x_max":597,"o":"m 558 150 q 573 141 568 147 q 581 127 578 135 q 587 112 583 119 q 597 100 590 104 q 582 78 593 82 q 560 74 571 75 q 532 72 546 72 q 503 71 518 71 q 296 43 400 71 q 236 23 265 33 q 181 -3 207 13 q 96 1 136 -26 q 69 23 82 13 q 46 51 56 33 q 28 71 40 63 q 6 89 17 79 q -17 130 -14 108 q -17 175 -19 151 q -13 196 -15 186 q -12 217 -11 206 q -12 258 -15 238 q -4 300 -8 279 q 6 358 -1 318 q 19 441 13 397 q 32 524 26 485 q 39 583 38 564 q 60 751 51 671 q 65 786 63 769 q 69 822 67 803 q 78 864 74 843 q 85 906 82 885 q 98 977 92 942 q 111 1051 104 1013 q 115 1040 114 1044 q 118 1031 117 1035 q 130 1036 125 1033 q 139 1036 135 1039 q 147 1015 147 1029 q 147 967 150 992 q 134 868 140 917 q 121 771 128 819 q 121 764 121 768 q 124 753 121 760 q 151 863 139 810 q 167 971 164 917 q 169 992 167 982 q 174 1014 171 1003 q 175 1019 174 1017 q 178 1026 176 1022 q 190 1011 189 1019 q 201 999 192 1003 q 223 978 217 992 q 233 947 229 964 q 237 892 236 919 q 233 838 238 865 q 214 716 224 776 q 197 593 204 656 q 188 528 194 571 q 174 438 182 485 q 160 347 167 390 q 150 282 154 304 q 151 275 150 279 q 151 265 151 271 q 163 264 158 265 q 171 264 167 263 q 199 268 186 267 q 225 272 211 269 q 403 289 313 293 q 413 289 407 289 q 422 286 419 289 q 454 274 438 276 q 486 268 471 271 q 506 260 497 265 q 521 244 514 256 q 534 224 525 233 q 551 203 543 214 q 560 178 560 192 q 558 150 561 165 z "},"M":{"ha":896,"x_min":1,"x_max":864,"o":"m 668 44 q 619 72 632 54 q 603 129 606 89 q 602 134 601 132 q 601 139 603 136 q 592 185 586 163 q 601 231 599 207 q 620 328 610 279 q 642 426 631 378 q 666 560 654 494 q 689 696 678 626 q 694 731 692 713 q 699 768 697 750 q 670 744 683 757 q 646 715 657 731 q 636 701 642 707 q 625 688 631 694 q 616 674 621 681 q 608 660 611 667 q 590 614 603 635 q 567 571 578 593 q 526 482 543 528 q 504 383 508 436 q 497 356 503 369 q 488 326 492 342 q 478 303 483 315 q 469 279 474 290 q 408 288 439 265 q 346 333 376 311 q 288 388 315 356 q 242 438 265 414 q 192 488 218 461 q 189 480 190 485 q 186 469 188 475 q 186 384 185 426 q 185 297 188 342 q 188 229 183 263 q 193 163 192 196 q 194 101 194 131 q 193 39 193 71 q 181 32 186 36 q 169 24 176 28 q 164 28 167 26 q 160 32 161 29 q 156 40 157 35 q 153 44 154 44 q 117 67 126 49 q 100 110 107 86 l 99 111 q 96 114 96 111 q 86 109 90 111 q 78 104 82 107 q 51 140 58 119 q 42 185 44 161 q 31 300 35 243 q 26 415 28 357 q 24 522 26 468 q 19 629 22 576 q 15 698 17 665 q 13 765 14 731 q 9 828 10 797 q 7 892 8 860 q 3 929 7 908 q 2 948 3 940 q 8 967 1 956 q 10 986 11 975 q 10 1011 10 997 q 35 1013 22 1015 q 59 1007 47 1011 q 83 999 71 1003 q 107 996 94 994 q 130 960 118 976 q 153 928 142 943 q 157 921 156 925 q 188 857 174 889 q 218 793 203 825 q 233 756 225 774 q 247 719 240 739 q 253 704 251 713 q 257 688 254 696 q 288 612 272 650 q 321 536 304 574 q 328 524 324 529 q 339 510 332 518 q 347 525 344 518 q 351 538 349 532 q 384 599 367 569 q 426 653 401 629 q 440 672 435 661 q 453 692 444 682 q 477 722 464 707 q 501 753 490 738 q 540 799 522 776 q 576 849 558 822 q 623 909 599 881 q 672 967 647 938 q 704 1004 688 986 q 740 1042 721 1022 q 753 1033 746 1039 q 758 1026 756 1026 q 767 1022 761 1025 q 803 1001 788 1015 q 822 960 819 988 q 832 933 825 940 q 851 907 847 921 q 854 878 854 893 q 857 822 856 850 q 861 765 858 793 q 861 713 864 739 q 854 661 858 688 q 842 603 847 632 q 832 547 836 575 q 813 431 825 488 q 789 315 801 374 q 782 281 785 299 q 776 247 779 264 q 769 231 772 235 q 754 218 767 228 q 758 209 754 214 q 764 200 761 204 q 766 190 767 196 q 758 179 765 185 q 766 153 763 167 q 775 124 769 139 q 780 95 778 108 q 785 67 782 82 q 774 67 779 67 q 769 65 769 67 l 761 15 q 759 -1 760 7 q 756 -17 758 -8 q 740 -34 751 -32 q 718 -26 729 -36 q 697 -6 707 -17 q 678 17 686 6 q 673 28 675 21 q 668 44 671 36 m 685 281 q 688 290 688 285 q 690 297 689 294 q 701 350 696 325 q 713 403 707 375 q 742 572 728 489 q 771 742 757 656 q 764 797 779 768 q 748 719 751 757 q 731 644 744 681 q 730 639 729 642 q 731 633 731 636 q 725 589 728 610 q 715 549 722 568 q 678 410 690 476 q 669 349 672 379 q 661 288 667 319 q 673 285 668 286 q 685 281 678 283 m 707 908 q 679 877 694 889 q 653 850 664 865 q 579 744 617 796 q 506 638 542 692 q 476 592 489 617 q 456 535 463 567 q 464 542 460 540 q 468 549 468 544 q 497 594 483 572 q 526 638 511 617 q 572 686 546 667 q 590 703 582 696 q 599 725 599 710 q 603 738 599 732 q 613 750 608 744 q 663 807 642 774 q 707 869 683 840 q 707 908 721 885 m 642 207 q 638 189 639 196 q 638 178 638 182 q 639 170 638 174 q 643 161 640 167 q 647 183 647 178 q 642 207 647 189 z "},"N":{"ha":757,"x_min":-14,"x_max":757,"o":"m 11 938 q 13 947 13 940 q 17 957 14 953 q 34 982 24 976 q 63 978 44 988 q 111 945 89 965 q 161 903 133 925 q 153 933 158 919 q 143 963 149 947 q 136 981 139 972 q 128 997 133 990 q 133 1017 126 1010 q 150 1025 140 1024 q 177 982 165 1003 q 200 938 189 961 q 278 777 240 857 q 357 618 317 697 q 431 460 393 539 q 507 303 469 381 q 512 293 508 297 q 522 281 515 289 q 526 294 525 290 q 526 303 526 299 q 519 414 517 360 q 526 524 522 468 q 526 592 528 561 q 523 677 522 635 q 526 763 524 719 q 526 815 528 788 q 526 869 524 843 q 531 956 532 911 q 540 1046 529 1001 q 561 1033 551 1042 q 589 1044 575 1044 q 601 1037 596 1043 q 618 1028 607 1031 q 635 1036 625 1039 q 653 1028 644 1033 q 672 983 674 1013 q 670 960 671 972 q 667 932 669 949 q 686 939 681 939 q 706 935 700 940 q 711 915 711 931 q 709 899 711 907 q 711 882 707 890 q 720 872 714 875 q 732 864 726 868 q 742 856 736 860 q 757 846 749 853 q 756 836 756 842 q 754 824 756 831 q 725 688 739 756 q 699 553 711 621 q 690 481 692 517 q 681 411 689 444 q 676 364 675 388 q 675 315 676 340 q 671 269 674 293 q 671 224 668 246 q 670 135 676 179 q 664 46 664 92 q 649 20 664 26 q 619 28 635 14 q 583 54 600 42 q 551 86 567 67 q 500 132 533 111 q 509 109 503 119 q 522 88 515 99 q 535 67 529 78 q 542 42 540 56 q 532 40 533 39 q 495 72 513 57 q 468 110 478 86 q 394 233 436 174 q 331 360 363 289 q 337 361 333 361 q 347 363 340 361 q 344 375 344 369 q 340 385 343 381 q 305 451 321 418 q 272 517 289 483 q 233 588 253 554 q 194 658 213 621 q 174 694 185 669 q 169 681 171 686 q 165 672 167 675 q 154 586 160 631 q 144 499 149 542 q 144 458 143 478 q 146 417 146 438 q 141 317 143 367 q 136 217 139 268 q 135 185 135 201 q 135 151 136 168 q 133 137 132 144 q 135 122 135 129 q 134 109 136 115 q 124 97 132 103 q 126 67 125 82 q 129 36 126 51 q 135 23 133 29 q 139 10 136 17 q 113 -10 124 -1 q 89 -26 101 -18 q 69 2 79 -11 q 50 31 60 15 q 31 47 44 42 q 18 68 18 51 q 17 94 18 82 q 14 121 15 107 q 6 301 7 211 q 7 482 6 390 q 8 603 7 544 q 4 719 8 661 q 0 826 1 774 q -14 932 -1 879 q -11 938 -14 936 l 11 938 m 593 567 q 598 599 596 582 q 603 636 600 617 q 601 637 601 636 q 599 638 600 638 q 594 601 596 618 q 589 567 592 583 l 593 567 z "},"O":{"ha":757,"x_min":6,"x_max":717,"o":"m 81 800 q 133 958 88 886 q 315 1068 203 1060 q 331 1069 324 1068 q 346 1071 339 1071 q 372 1071 358 1074 q 460 1035 418 1056 q 539 981 501 1014 q 581 929 564 957 q 622 845 601 888 q 663 761 642 803 q 692 688 682 725 q 711 611 703 650 q 716 554 717 583 q 710 496 715 525 q 684 399 700 447 q 647 307 668 351 q 587 194 618 249 q 518 89 556 139 q 463 31 493 56 q 397 -6 433 7 q 332 -19 365 -18 q 265 -14 299 -21 q 244 -4 254 -11 q 225 10 235 3 q 158 60 192 33 q 97 122 125 86 q 47 207 68 163 q 17 300 25 251 q 8 422 6 361 q 26 544 11 483 q 36 578 31 561 q 40 615 42 594 q 68 668 40 647 q 81 690 79 679 q 81 714 83 700 q 74 757 75 736 q 81 800 74 778 q 86 794 83 797 q 93 786 89 792 l 93 811 q 86 804 89 806 q 81 800 83 803 m 315 231 q 331 239 322 233 q 346 251 339 244 q 406 317 378 282 q 460 392 433 351 q 511 495 492 442 q 550 606 531 549 q 566 694 568 649 q 557 786 564 740 q 538 835 550 813 q 514 881 526 858 q 499 901 507 893 q 476 910 490 910 q 444 913 461 913 q 413 906 428 913 q 343 873 376 892 q 286 818 310 854 q 252 750 265 785 q 236 679 239 715 q 233 514 229 596 q 265 349 236 432 q 281 301 274 325 q 296 254 289 278 q 315 231 303 244 m 153 383 q 149 371 150 376 q 147 361 147 365 q 167 200 144 279 q 174 185 168 193 q 185 178 181 178 q 228 176 207 176 q 265 199 250 176 q 210 290 238 244 q 153 383 183 336 z "},"P":{"ha":722,"x_min":-10,"x_max":700,"o":"m 224 10 q 206 -2 214 3 q 189 -12 197 -7 q 181 8 185 -1 q 172 29 178 17 q 163 17 167 22 q 154 7 158 11 q 110 49 125 14 q 82 78 103 68 q 60 94 69 82 q 49 119 51 106 q 44 183 46 151 q 38 247 42 215 q 32 296 38 275 q 24 327 29 313 q 13 357 18 342 q -10 388 3 376 l -10 425 q -4 446 -10 440 q 17 454 1 451 q 22 453 19 454 q 28 454 25 451 q 33 455 31 454 q 39 456 35 456 q 44 473 42 465 q 46 490 46 481 q 46 600 49 544 q 44 669 46 635 q 42 738 43 703 q 38 804 39 771 q 36 876 38 838 q 25 865 29 869 q 17 856 21 861 q 14 863 15 860 q 13 871 13 867 q 29 917 11 893 q 42 963 43 938 q 42 992 42 978 q 43 1019 42 1006 q 45 1029 43 1025 q 49 1038 47 1033 q 56 1033 53 1035 q 65 1028 60 1031 q 68 1044 67 1035 q 72 1064 69 1053 q 82 1037 83 1050 q 86 1013 81 1024 q 90 1031 89 1021 q 107 1043 92 1042 q 118 1033 110 1042 q 141 1017 129 1018 q 168 1024 153 1017 q 340 1057 256 1061 q 511 1015 425 1053 q 586 961 556 994 q 638 885 617 928 q 660 840 649 861 q 682 794 671 818 q 699 717 700 757 q 681 640 699 678 q 625 553 660 593 q 549 464 589 507 q 461 385 510 421 q 350 316 408 344 q 226 269 292 288 q 219 267 224 268 q 213 265 215 267 q 196 239 193 261 q 198 206 197 222 q 201 172 199 189 q 218 56 211 114 q 222 33 221 44 q 224 10 222 21 m 543 821 q 533 833 538 828 q 526 844 529 838 q 521 858 524 851 q 511 867 518 864 q 474 880 492 872 q 436 889 456 888 q 351 896 393 894 q 265 889 308 897 q 220 880 242 885 q 176 863 199 875 l 176 819 q 181 764 178 792 q 183 708 183 736 q 184 624 185 667 q 183 538 183 581 q 184 515 183 526 q 196 492 185 503 q 278 543 236 518 q 357 600 321 568 q 413 648 385 624 q 467 699 440 672 q 514 753 493 724 q 543 821 535 782 m 154 688 q 145 603 144 644 q 143 519 146 563 q 153 507 143 521 q 160 587 161 549 q 160 661 160 625 q 158 674 160 668 q 154 688 156 681 m 143 849 q 142 847 143 847 q 143 832 142 836 l 144 832 q 143 849 144 842 z "},"Q":{"ha":783,"x_min":-8,"x_max":736,"o":"m 546 114 q 564 85 556 99 q 582 57 572 71 q 615 7 599 32 q 639 -50 632 -18 q 640 -54 639 -53 q 643 -58 642 -56 q 645 -63 644 -61 q 647 -68 646 -65 q 629 -89 643 -89 q 614 -87 622 -89 q 600 -76 606 -85 q 578 -51 589 -64 q 557 -28 568 -39 q 547 -17 553 -22 q 538 -7 542 -12 q 524 8 531 0 q 514 25 518 17 q 499 49 507 39 q 481 69 490 60 q 460 62 469 65 q 440 54 451 58 q 404 43 422 50 q 367 33 386 36 q 268 38 315 26 q 179 90 221 50 q 142 125 161 108 q 101 158 122 142 q 74 191 86 174 q 51 228 63 208 q 28 277 39 251 q 7 329 18 303 q -6 380 -4 353 q -6 435 -8 407 q -3 459 -4 447 q -6 483 -3 471 q -6 509 -7 496 q -6 538 -6 522 q 19 652 1 597 q 60 761 36 707 q 83 810 71 786 q 108 858 94 835 q 128 891 118 876 q 150 921 139 906 q 157 928 150 928 q 176 937 168 931 q 186 960 185 943 q 189 965 186 963 q 207 978 200 971 q 222 993 214 986 q 253 1013 236 1004 q 286 1029 269 1022 q 326 1035 307 1042 q 364 1011 346 1029 q 372 1004 367 1007 q 383 997 378 1001 q 458 963 421 982 q 529 921 494 944 q 564 892 547 908 q 592 854 581 876 q 594 851 594 851 q 639 780 624 821 q 674 701 654 739 q 694 660 685 682 q 714 618 704 639 q 735 524 733 572 q 724 425 736 475 q 680 300 708 358 q 613 189 651 242 q 582 151 599 169 q 546 114 565 133 m 383 286 q 381 292 381 289 q 379 300 381 296 q 347 403 364 351 q 314 508 331 456 q 305 540 308 524 q 301 575 301 556 q 319 567 311 571 q 336 567 328 564 q 372 542 358 568 q 394 499 383 519 q 414 456 404 478 q 435 409 425 432 q 457 363 446 386 q 461 363 460 364 q 464 364 463 363 q 471 371 467 367 q 478 379 475 375 q 558 578 538 465 q 544 729 575 654 q 538 744 542 738 q 526 756 533 751 q 474 782 501 774 q 418 796 446 790 l 414 796 q 392 792 403 789 q 371 797 382 794 q 362 798 367 799 q 353 797 357 797 q 327 792 340 794 q 300 786 314 789 q 299 799 300 793 q 299 810 299 804 q 285 810 292 814 q 272 815 279 807 q 246 813 257 836 q 193 706 218 760 q 153 593 168 653 q 139 528 146 561 q 126 463 132 496 q 117 376 119 419 q 122 290 115 333 q 130 260 125 275 q 150 240 135 246 q 206 222 178 229 q 263 225 233 215 q 296 236 279 231 q 328 249 313 242 q 357 264 343 257 q 383 286 371 271 m 372 164 q 425 188 397 163 q 394 181 406 190 q 372 164 383 171 z "},"R":{"ha":753,"x_min":-14,"x_max":776,"o":"m 32 943 q 11 928 22 933 q -8 932 -1 919 q -8 950 -14 940 q 19 984 3 969 q 57 1007 35 999 q 155 1037 106 1026 q 257 1050 204 1047 q 440 1043 350 1054 q 608 1004 529 1032 q 643 973 633 994 q 664 926 653 951 q 701 843 681 882 q 711 807 711 825 q 706 769 711 789 q 674 697 696 729 q 621 635 651 664 q 568 583 594 608 q 511 535 542 558 q 459 497 486 514 q 404 465 432 481 q 390 457 397 461 q 374 446 383 453 q 429 415 403 429 q 482 385 456 400 q 588 324 535 354 q 689 257 640 293 q 715 233 704 246 q 731 203 725 219 q 747 169 738 185 q 751 133 756 153 q 769 115 767 119 q 776 97 772 111 q 745 94 760 94 q 715 103 731 93 q 601 171 657 138 q 488 236 544 204 q 409 278 447 258 q 331 314 371 299 q 261 342 296 329 q 185 356 226 356 q 174 296 174 326 q 171 236 174 265 q 168 174 167 206 q 171 113 169 143 q 177 53 174 82 q 183 -6 181 24 q 146 -10 161 -19 q 115 10 131 -1 q 99 25 106 17 q 81 40 92 33 q 24 97 40 63 q 6 175 8 132 l 6 192 q 8 272 7 232 q 11 353 8 313 q 15 404 13 379 q 19 456 18 429 q 18 489 22 474 q -1 518 14 504 q 9 526 4 522 q 21 535 14 529 q 13 542 17 539 q 7 553 10 546 q 30 581 28 564 q 33 618 32 599 q 35 663 35 642 q 39 708 36 685 q 42 653 42 681 q 44 597 42 625 q 57 750 60 675 q 53 904 54 825 l 26 904 q 35 918 32 913 q 43 931 38 924 q 58 942 50 936 q 61 961 67 947 q 32 943 42 961 m 208 594 q 222 598 217 597 q 229 601 226 599 q 306 636 268 617 q 379 676 343 656 q 467 739 428 704 q 539 818 506 774 q 545 826 542 822 q 551 836 549 831 q 542 864 561 856 q 536 865 539 865 q 531 865 533 865 q 367 897 450 892 q 197 901 283 903 q 178 901 188 901 q 163 893 169 900 q 161 885 161 889 q 180 849 168 865 q 201 814 192 833 q 210 794 204 803 q 214 772 215 785 q 213 722 214 747 q 213 669 213 696 q 210 633 211 651 q 208 594 210 615 m 121 889 q 115 882 118 885 q 113 876 113 879 q 107 833 113 854 q 108 788 101 811 q 121 889 129 818 m 104 967 q 91 969 93 971 q 83 956 89 968 q 94 961 90 958 q 104 967 99 964 z "},"S":{"ha":707,"x_min":-17,"x_max":669,"o":"m 7 568 q -14 577 -11 571 q -14 604 -17 583 q 21 718 -7 671 q 89 807 49 765 q 108 824 99 818 q 128 842 118 831 q 150 840 143 849 q 183 842 165 819 q 217 869 200 856 q 251 899 235 883 q 265 911 258 906 q 281 924 272 917 q 295 935 288 929 q 310 950 303 940 q 281 942 294 947 q 254 933 268 938 q 254 939 254 933 q 261 945 257 942 q 269 951 265 949 q 446 1035 351 1011 q 461 1037 453 1036 q 476 1036 469 1038 q 542 1014 511 1026 q 601 975 574 1001 q 631 930 619 956 q 651 881 642 904 q 659 851 656 865 q 665 822 663 838 q 668 810 667 815 q 668 797 669 804 q 648 731 661 761 q 608 676 635 701 q 604 703 603 690 q 607 728 606 715 q 610 764 608 746 q 613 800 611 782 l 613 814 q 596 863 608 849 q 554 872 583 878 q 472 846 513 869 q 332 748 397 806 q 206 615 267 690 q 196 603 203 607 q 196 598 196 601 q 194 590 196 594 q 219 581 206 583 q 246 581 233 578 q 288 581 267 582 q 329 581 308 581 q 368 575 349 578 q 406 568 388 572 q 464 549 436 564 q 497 531 481 540 q 526 511 514 522 q 573 453 554 488 q 604 379 592 419 q 617 333 611 356 q 631 288 624 310 q 641 213 642 251 q 619 135 640 175 q 565 55 596 89 q 493 4 533 21 q 468 -6 482 -1 q 443 -8 454 -11 q 403 -12 422 -8 q 364 -21 383 -17 q 356 -22 360 -21 q 350 -24 353 -24 q 284 -25 318 -22 q 217 -19 250 -28 q 174 -13 196 -15 q 131 -8 151 -11 q 120 -3 125 -6 q 113 1 115 -1 q 111 10 110 4 q 113 21 113 15 q 89 26 101 25 q 56 75 76 63 q 48 84 49 79 q 48 95 47 89 q 49 108 49 101 q 47 121 50 115 q 53 133 44 124 q 72 143 63 143 q 107 160 93 146 q 122 165 114 164 q 139 168 131 165 q 170 174 154 171 q 201 178 186 176 q 278 196 240 185 q 354 222 315 207 q 412 263 386 236 q 461 322 438 289 q 468 334 465 326 q 475 347 471 342 q 401 399 440 388 q 322 409 363 411 q 240 397 281 407 q 161 382 200 386 l 158 382 q 119 383 135 371 q 90 410 104 394 q 68 437 78 424 q 47 463 58 450 q 27 490 35 479 q 16 510 19 500 q 10 533 13 519 q 7 568 8 546 m 481 43 q 426 38 453 39 q 372 35 400 36 q 365 33 368 35 q 358 29 363 31 q 337 23 347 26 q 315 17 326 19 q 281 12 299 14 q 247 7 263 10 q 258 -1 250 -1 q 324 -2 292 -1 q 389 0 357 -3 q 428 7 408 1 q 464 25 447 13 q 472 33 468 28 q 478 43 475 38 q 491 39 485 40 q 504 36 497 38 q 503 49 504 43 q 500 56 501 56 q 488 49 493 53 q 481 43 483 46 m 446 68 q 468 74 460 72 q 481 80 476 76 q 491 89 486 83 q 503 104 496 94 q 489 109 494 108 q 478 106 483 110 q 465 94 472 103 q 446 68 457 85 m 367 908 q 286 857 325 908 q 330 885 311 874 q 367 908 349 897 m -3 603 q 8 624 7 618 q 8 646 10 629 q -1 624 0 629 q -3 603 -3 618 m 171 857 q 183 889 172 882 q 208 904 193 896 q 191 874 197 888 q 171 857 185 861 z "},"T":{"ha":371,"x_min":-179,"x_max":631,"o":"m 104 1035 q 95 1039 99 1038 q 89 1040 92 1040 l -71 1040 q -112 1050 -94 1040 q -149 1075 -131 1060 q -153 1085 -153 1076 q -159 1096 -151 1096 q -172 1101 -167 1096 q -171 1128 -179 1115 q -159 1139 -164 1133 q -143 1146 -154 1144 q -51 1161 -97 1153 q 39 1175 -6 1169 q 122 1182 81 1181 q 207 1186 164 1183 q 272 1190 239 1189 q 338 1193 304 1192 q 397 1195 367 1194 q 458 1193 428 1196 q 506 1185 482 1192 q 549 1161 529 1178 q 560 1138 561 1150 q 608 1100 599 1133 q 619 1081 613 1090 q 631 1061 625 1072 q 613 1045 625 1049 q 590 1046 601 1042 q 544 1055 567 1056 q 497 1053 521 1054 q 383 1051 439 1053 q 268 1047 326 1049 q 245 1047 257 1047 q 219 1044 233 1047 q 224 1033 222 1038 q 229 1026 226 1029 q 258 975 253 1006 q 268 958 261 964 q 293 923 288 943 q 299 883 299 903 q 301 800 301 842 q 294 717 300 758 q 283 570 288 643 q 269 422 278 497 q 264 342 267 382 q 260 261 261 301 q 257 251 258 257 q 254 242 256 246 q 249 225 250 232 q 248 176 249 200 q 249 126 247 151 q 249 85 250 106 q 238 46 249 64 q 244 33 240 39 q 251 19 247 26 q 242 13 246 17 q 235 6 238 10 q 231 -6 232 1 q 231 -21 231 -12 q 219 -12 224 -15 q 211 -7 214 -10 q 202 -1 207 -4 q 193 4 197 1 q 143 65 147 22 q 143 96 143 81 q 142 126 143 111 q 133 117 135 122 q 132 105 132 111 q 131 92 132 99 q 125 82 131 86 l 121 82 q 118 83 119 82 q 100 128 111 107 q 88 174 89 149 q 86 222 86 197 q 82 271 86 247 q 74 363 74 317 q 74 444 74 403 q 76 525 75 485 q 78 602 78 564 q 81 681 79 640 q 87 753 83 717 q 93 828 90 790 q 98 931 96 879 q 104 1035 100 983 m 131 246 q 120 205 119 224 q 124 168 121 186 q 132 149 124 161 q 139 184 139 165 q 131 246 139 203 m 514 1088 q 513 1085 514 1086 q 513 1081 511 1083 l 539 1081 q 538 1088 538 1085 l 514 1088 z "},"U":{"ha":765,"x_min":1,"x_max":710,"o":"m 486 1013 q 501 1006 496 1011 q 515 1003 506 1000 q 542 1004 528 1010 q 571 1001 556 999 q 578 999 574 1003 q 589 993 583 996 q 596 984 592 988 q 603 975 600 981 q 626 926 617 949 q 649 874 638 901 q 668 819 660 847 q 682 778 678 800 q 689 733 686 756 q 695 681 694 707 q 699 628 696 654 q 701 591 700 608 q 704 558 701 574 q 708 488 710 522 q 699 419 706 453 q 681 371 692 394 q 658 324 669 347 q 654 313 657 318 q 650 303 651 308 q 612 220 635 258 q 565 146 589 182 q 510 76 540 108 q 444 21 481 44 q 419 6 432 13 q 392 -4 406 -1 q 319 -12 354 -14 q 249 14 283 -11 q 224 31 238 24 q 197 46 210 38 q 149 81 171 61 q 110 125 128 101 q 63 197 82 158 q 26 278 43 235 q 10 339 15 308 q 3 400 4 369 q 3 461 1 431 q 4 521 4 492 q 6 572 4 547 q 8 619 7 596 q 22 791 13 707 q 64 958 32 875 q 69 969 67 964 q 74 985 71 974 q 79 973 76 978 q 81 965 82 968 q 75 942 78 954 q 69 918 72 929 q 56 865 63 892 q 43 813 50 839 q 50 794 40 801 q 55 813 53 803 q 60 833 57 822 q 71 883 67 858 q 88 931 75 907 q 96 943 93 938 q 107 951 99 949 q 118 963 114 953 q 129 982 122 972 q 166 938 149 961 q 194 886 183 914 q 197 863 197 875 q 193 839 196 850 q 184 777 189 808 q 174 715 179 746 q 160 662 167 688 q 150 608 153 636 q 142 504 144 556 q 136 400 140 453 l 136 336 q 138 321 138 329 q 142 304 139 313 q 147 272 144 288 q 153 240 149 256 q 181 194 164 208 q 228 192 197 181 q 294 222 263 203 q 351 272 326 242 q 380 301 367 288 q 404 329 393 314 q 428 367 418 347 q 449 410 438 388 q 469 456 460 433 q 489 501 478 478 q 495 523 493 513 q 499 544 497 533 q 499 588 500 565 q 489 661 493 624 q 478 735 485 699 q 463 797 471 767 q 449 858 454 826 q 438 867 446 868 q 433 876 431 865 q 435 891 435 883 q 439 906 436 899 q 444 924 442 915 q 453 939 446 933 q 468 965 464 950 q 478 994 472 979 q 481 1002 479 999 q 486 1013 483 1006 m 531 592 q 527 621 529 608 q 528 644 525 633 q 528 694 531 669 q 522 746 525 718 q 517 710 518 731 q 517 667 515 689 q 522 625 518 644 q 531 592 525 606 m 519 544 q 526 572 536 551 q 522 557 524 564 q 519 544 521 550 m 117 899 q 120 898 119 899 q 122 897 121 897 q 126 906 125 900 q 128 914 126 911 q 126 915 126 914 q 122 915 125 915 q 120 907 121 913 q 117 899 119 901 m 425 57 q 443 69 442 47 q 433 63 438 65 q 425 57 428 60 m 643 408 q 646 406 646 408 q 649 411 649 408 q 651 417 650 414 l 656 429 q 651 431 654 431 q 647 419 649 425 q 643 408 646 414 z "},"V":{"ha":561,"x_min":-14,"x_max":640,"o":"m 232 286 q 241 313 235 300 q 250 340 247 325 q 287 494 265 419 q 332 643 308 568 q 345 673 338 658 q 361 703 353 688 q 357 665 367 683 q 350 626 347 647 q 371 652 367 639 q 378 679 375 665 q 385 710 381 696 q 397 738 390 724 q 414 774 408 756 q 426 811 419 792 q 444 854 436 832 q 458 900 451 876 q 463 926 461 914 q 461 953 464 939 q 461 988 461 971 q 481 1021 461 1006 q 488 1035 490 1026 q 475 1054 486 1044 q 500 1071 486 1064 q 531 1076 514 1078 q 549 1076 540 1074 q 568 1082 557 1079 q 572 1064 571 1072 q 575 1049 574 1056 q 599 1033 590 1043 q 615 1012 608 1024 q 626 988 621 1000 q 638 965 631 976 q 639 956 640 963 q 636 947 638 950 q 622 901 629 924 q 608 854 615 878 q 567 754 589 804 q 522 654 546 704 q 474 539 496 597 q 444 417 453 481 q 442 410 444 414 q 442 406 439 406 q 451 370 456 389 q 443 333 446 351 q 419 201 431 267 q 386 71 407 135 q 369 31 379 50 q 342 -4 360 11 q 274 14 307 -18 q 241 40 258 28 q 207 64 224 51 q 169 100 186 81 q 140 143 151 119 q 131 160 136 151 q 121 178 126 168 q 101 217 110 197 q 86 257 93 238 q 42 442 58 349 q 11 629 26 535 q -1 722 6 675 q -11 817 -7 768 q -12 884 -14 850 q -11 954 -11 918 q 0 947 -6 950 q 7 939 6 944 q 15 894 14 915 q 24 857 19 875 q 31 819 28 839 q 40 804 31 815 q 42 841 44 822 q 38 877 40 860 q 31 913 35 894 q 29 949 28 931 q 67 918 53 936 q 90 881 81 900 q 121 767 110 828 q 131 702 126 735 q 143 638 136 669 q 147 606 146 622 q 144 572 147 590 q 142 538 139 556 q 147 503 144 519 q 159 419 153 461 q 172 335 165 376 q 182 304 176 319 q 201 271 188 289 q 222 337 213 307 q 239 396 232 367 l 244 396 q 241 383 242 389 q 239 371 240 378 q 235 357 236 364 q 233 344 235 350 q 228 314 231 328 q 232 285 225 300 q 225 270 225 274 q 232 256 225 267 l 232 286 m 39 688 q 39 658 36 672 q 47 631 42 644 q 56 602 51 617 q 61 574 60 588 q 67 540 63 557 q 75 506 71 524 q 80 482 78 493 q 85 460 82 471 q 77 574 78 517 q 57 688 76 631 l 39 688 m 267 331 q 294 405 282 367 q 310 482 307 443 q 283 407 292 446 q 267 331 274 368 m 508 817 q 490 778 499 797 q 482 738 481 760 q 500 775 489 757 q 508 817 511 793 m 368 189 q 376 223 372 208 q 374 257 379 238 q 366 224 371 239 q 368 189 361 210 m 460 874 q 464 872 461 874 q 469 871 467 871 q 475 885 472 878 q 479 899 478 892 q 479 907 481 903 q 476 914 478 911 q 471 913 475 913 q 465 892 468 901 q 460 874 463 883 m 499 711 q 503 710 501 710 q 507 707 504 710 q 513 725 510 717 q 518 742 515 733 l 514 742 q 499 711 507 726 m 31 722 q 31 719 32 719 q 32 717 31 718 q 41 713 38 715 q 50 707 44 710 q 53 714 50 708 q 54 718 54 717 q 46 722 50 721 q 39 726 42 724 q 31 722 35 726 m 531 793 q 536 790 532 790 q 540 801 539 796 q 543 813 542 806 q 536 814 540 813 q 533 802 535 807 q 531 793 532 797 m 321 529 q 324 528 322 528 q 328 525 326 528 q 333 537 331 532 q 336 549 335 542 q 329 550 335 550 q 325 540 326 546 q 321 529 324 533 m 393 813 q 403 839 400 826 q 413 864 407 851 q 414 835 419 847 q 403 810 408 822 q 393 813 394 811 z "},"W":{"ha":993,"x_min":-4,"x_max":1078,"o":"m -3 1038 q 10 1038 4 1038 q 21 1039 15 1039 q 27 1035 24 1039 q 33 1033 31 1031 q 55 1033 46 1036 q 69 1022 64 1029 q 79 1006 75 1015 q 88 989 83 997 q 93 976 92 982 q 99 963 94 969 q 119 928 113 947 q 128 890 125 910 q 140 831 135 860 q 147 772 146 803 q 153 659 149 714 q 163 546 158 604 q 169 482 165 514 q 175 418 172 450 q 178 397 176 407 q 183 372 181 388 q 281 611 233 494 q 374 844 328 728 q 367 854 371 849 q 358 865 363 860 q 417 896 388 885 q 428 900 421 899 q 439 897 435 901 q 461 885 449 890 q 484 872 474 879 q 501 852 494 864 q 508 822 508 840 q 510 815 508 817 q 524 785 524 800 q 514 751 524 769 q 512 739 511 746 q 515 726 513 732 q 528 690 522 707 q 542 653 535 672 q 552 619 547 636 q 563 583 557 601 q 583 517 572 550 q 604 450 593 483 q 624 390 614 419 q 646 326 635 360 q 651 338 649 333 q 656 347 654 343 q 683 433 671 390 q 710 518 694 475 q 738 597 722 557 q 771 674 753 636 q 806 753 788 714 q 840 831 824 792 q 844 838 843 835 q 846 846 846 842 q 847 885 839 868 q 863 919 856 901 q 867 933 865 926 q 871 944 868 939 q 874 952 872 947 q 875 960 876 957 q 872 992 869 978 q 881 1017 875 1006 q 897 1040 888 1029 q 915 1061 907 1050 q 919 1067 917 1064 q 925 1072 922 1069 q 934 1056 929 1063 q 944 1038 939 1049 q 959 1045 951 1040 q 975 1052 967 1050 q 991 1052 983 1054 q 1007 1038 999 1050 l 1007 990 q 1022 992 1015 990 q 1035 990 1029 993 q 1042 982 1039 988 q 1049 972 1046 976 q 1059 951 1054 961 q 1068 931 1064 942 q 1068 890 1078 911 q 1054 851 1061 871 q 1038 814 1047 832 q 960 640 992 729 q 906 454 929 550 q 894 397 899 426 q 882 338 889 367 q 862 245 872 292 q 840 151 851 199 q 828 92 835 121 q 815 33 822 63 q 814 26 814 31 q 813 18 814 22 q 791 -12 803 -7 q 756 -10 779 -18 q 731 9 736 -1 q 732 46 726 19 q 715 44 721 46 q 697 33 710 42 q 685 51 692 43 q 672 69 679 60 q 669 71 669 69 q 668 72 669 72 q 654 78 661 76 q 640 86 647 81 q 634 101 635 92 q 622 113 633 110 q 615 117 619 113 q 610 128 611 122 q 565 252 586 190 q 524 376 543 314 q 495 455 508 415 q 469 533 482 494 q 460 570 465 553 q 450 608 456 588 q 440 600 444 603 q 435 594 436 597 q 394 488 415 540 q 361 378 372 435 q 344 300 353 339 q 328 221 335 261 q 314 145 321 183 q 300 68 307 107 q 297 51 299 60 q 293 33 296 43 q 290 27 292 31 q 289 21 288 24 q 285 -17 297 -6 q 258 -36 274 -28 q 235 -22 246 -29 q 213 -8 224 -15 q 201 1 207 -4 q 192 13 196 6 q 176 30 183 21 q 157 46 168 39 q 149 52 151 47 q 143 63 146 57 q 115 114 125 86 q 97 171 104 142 q 84 233 90 203 q 67 294 78 263 q 63 312 63 301 q 60 338 63 322 q 72 330 68 332 q 83 325 76 328 q 80 334 81 329 q 76 342 79 339 q 69 347 74 344 q 60 354 64 350 q 68 378 50 368 q 54 392 56 385 q 51 402 51 396 q 50 415 51 408 q 40 503 44 460 q 32 590 36 546 q 26 644 29 618 q 21 697 24 669 q 12 799 15 749 q 6 899 8 849 q 1 948 3 924 q -3 996 -1 972 q -3 1017 -4 1007 q -3 1038 -3 1026 m 350 613 q 335 608 338 615 q 331 592 333 600 q 348 597 342 593 q 351 611 354 600 q 365 627 358 619 q 363 649 371 635 q 351 633 351 643 q 350 613 350 624 m 963 849 q 944 828 953 842 q 929 797 936 814 q 919 765 922 781 q 915 738 915 749 q 940 794 928 767 q 963 849 951 822 m 714 267 q 701 243 703 256 q 697 218 700 231 q 706 200 697 217 q 710 236 708 221 q 714 267 711 251 m 954 774 q 941 758 943 763 q 938 739 939 754 q 949 751 944 744 q 960 764 954 757 q 957 769 958 767 q 954 774 956 771 m 904 703 q 897 708 900 706 q 894 697 896 701 q 892 686 893 692 q 894 685 893 686 q 904 703 899 696 z "},"Z":{"ha":750,"x_min":-57,"x_max":836,"o":"m 53 790 q 36 792 46 794 q 18 789 26 790 q 3 781 11 785 q -15 779 -6 778 q 6 795 -4 788 q 31 813 17 803 q 10 831 18 819 q -6 853 1 842 q -22 878 -14 865 q -42 900 -29 890 q -26 906 -31 903 q -14 906 -21 908 q 51 903 18 900 q 117 914 83 907 q 183 928 143 919 q 266 948 224 938 q 348 970 308 958 q 414 992 388 982 q 501 1022 457 1008 q 589 1050 546 1036 q 654 1061 621 1057 q 719 1058 688 1065 q 751 1049 735 1056 q 774 1017 767 1042 q 760 999 767 1010 q 747 978 754 989 l 775 965 q 801 951 788 958 q 814 921 814 944 q 818 917 814 921 q 835 894 833 900 q 821 872 836 888 q 770 817 796 844 q 718 764 744 790 q 617 667 668 715 q 515 568 565 619 q 445 489 479 529 q 378 408 411 449 q 363 392 369 400 q 349 378 356 385 q 298 315 321 349 q 251 246 275 282 l 251 235 q 258 232 256 233 q 261 231 260 231 q 363 244 313 238 q 463 257 413 250 q 472 258 467 257 q 479 263 476 258 q 534 272 507 279 q 589 250 561 265 q 596 244 593 249 q 601 233 599 239 l 606 225 q 616 219 610 221 q 627 215 622 218 q 634 207 632 213 q 632 190 636 201 q 644 165 642 178 q 649 138 646 153 q 660 113 651 124 q 674 88 668 101 q 674 83 674 86 q 678 76 675 79 l 654 76 l 654 58 q 650 55 651 57 q 647 53 649 53 q 629 50 633 50 q 374 48 500 61 q 124 -1 247 35 q 103 -9 113 -4 q 85 -18 94 -14 q 67 -22 76 -21 q 46 -26 57 -24 l 49 8 q 1 -4 26 0 q -6 6 -4 0 q -10 17 -8 11 q -16 28 -12 24 q -28 32 -19 32 q -38 43 -33 32 q -46 64 -43 54 q -53 83 -51 72 q -56 104 -56 93 q -56 119 -57 111 q -51 132 -54 128 q 36 245 -7 190 q 129 349 79 300 q 145 370 139 358 q 158 393 151 382 q 198 444 178 418 q 239 496 218 471 q 435 744 343 613 l 483 808 l 506 842 q 489 842 496 842 q 475 840 482 843 q 409 824 449 833 q 328 803 369 814 q 247 783 286 793 q 182 765 207 772 l 135 756 q 92 772 113 767 q 53 790 72 778 m 403 515 q 385 512 392 513 q 376 508 379 511 q 338 466 358 485 q 303 419 318 447 q 293 406 300 411 q 279 397 286 401 q 271 392 276 394 q 263 388 265 390 q 180 298 221 343 q 103 201 139 253 q 104 196 103 199 q 107 189 106 193 q 119 197 113 193 q 128 207 125 200 q 151 235 140 221 q 174 263 163 249 q 183 271 178 267 q 193 281 188 275 q 176 251 182 261 q 167 233 169 240 q 163 222 164 226 q 160 210 161 217 q 172 213 169 210 q 280 351 226 282 q 388 488 333 419 l 403 515 m 394 172 q 354 170 372 175 q 318 156 336 165 q 356 156 338 156 q 394 172 375 156 m 133 756 q 63 731 97 744 q 95 750 78 742 q 133 756 113 758 m 97 100 l 85 83 q 90 76 86 81 q 97 85 93 82 q 103 93 100 89 l 97 100 m 38 717 q 36 722 38 719 q 49 725 42 724 q 63 731 56 726 l 38 717 m 133 756 l 135 756 l 136 756 l 133 756 z "},"Y":{"ha":610,"x_min":-32,"x_max":682,"o":"m 136 185 q 128 174 132 178 q 121 163 124 169 q 95 90 108 126 q 69 21 82 54 q 64 8 67 14 q 58 -3 61 3 q 52 -6 56 -6 q 42 -10 49 -7 q 55 33 49 14 q 68 71 61 51 q 96 140 82 106 q 124 207 110 174 q 128 224 128 217 q 154 309 136 269 q 192 389 172 349 q 201 413 196 400 q 211 436 207 425 q 168 508 189 472 q 126 579 147 543 q 98 638 111 608 q 71 699 85 667 q 49 743 60 721 q 22 788 38 765 q 0 830 8 807 q -17 876 -8 853 q -26 902 -22 889 q -32 928 -29 915 q -17 957 -12 940 q -22 989 -21 974 q -5 1002 -12 996 q 10 1015 3 1008 q 42 1001 28 1011 q 74 1000 57 992 q 122 986 97 993 q 158 953 146 979 q 188 890 174 921 q 215 826 201 858 q 248 749 233 788 q 278 675 263 711 q 285 658 281 667 q 296 639 290 650 q 306 652 303 647 q 311 664 308 657 q 356 744 335 704 q 399 825 378 785 q 413 858 407 840 q 429 893 419 875 q 471 970 447 933 q 526 1038 494 1007 q 585 1039 554 1067 q 593 1033 590 1036 q 599 1031 596 1031 q 632 1014 622 1029 q 653 983 642 999 q 667 960 661 972 q 682 933 674 949 q 656 862 674 896 q 615 794 639 828 q 602 777 608 786 q 589 758 596 768 q 540 676 565 717 q 492 593 515 635 q 478 566 485 579 q 465 538 472 553 q 445 503 454 519 q 424 467 436 486 q 410 449 418 458 q 392 428 403 439 q 403 401 396 415 q 417 371 410 386 q 429 339 424 356 q 442 304 435 322 q 396 285 426 279 q 358 287 378 288 q 315 286 338 286 q 299 246 308 265 q 282 206 290 226 q 255 140 268 174 q 226 75 242 107 q 215 58 222 65 q 197 42 207 50 q 194 83 196 64 q 204 124 193 103 q 241 198 222 160 q 278 274 260 236 q 288 294 282 283 q 289 319 293 304 q 279 315 283 317 q 272 308 275 314 q 258 287 264 297 q 244 265 251 276 q 190 157 217 211 q 143 44 164 103 q 97 -65 124 -8 q 89 -82 93 -76 q 65 -69 68 -75 q 68 -44 61 -62 q 83 2 75 -21 q 101 47 92 25 q 122 116 114 81 q 136 185 129 151 q 154 225 144 206 q 174 265 164 244 q 145 228 158 246 q 136 185 132 210 m 582 1006 q 569 1014 571 1014 q 547 992 553 1007 q 535 960 540 978 q 558 981 546 971 q 582 1006 569 992 m 264 585 q 253 594 256 589 q 248 590 250 593 q 247 588 246 588 q 251 582 249 585 q 257 576 254 579 q 260 580 258 578 q 264 585 261 582 m 11 -17 q 38 58 26 24 q 61 126 50 93 q 65 126 64 126 q 69 125 67 125 q 60 94 65 111 q 46 46 53 71 q 32 -3 39 21 q 25 -8 29 -6 q 11 -17 21 -10 z "},"X":{"ha":801,"x_min":-83,"x_max":788,"o":"m 278 538 q 255 571 269 549 q 223 622 240 593 q 186 681 206 650 q 149 741 167 713 q 118 792 132 769 q 97 828 104 815 q 73 861 86 846 q 49 894 60 876 q 22 940 33 917 q -3 992 10 964 q 8 986 4 989 q 17 979 13 983 q 17 997 24 990 q 13 1015 10 1004 q 40 1001 24 1004 q 63 978 56 997 q 78 990 72 985 q 93 1003 85 996 q 153 926 115 976 q 229 821 190 876 q 303 713 268 765 q 356 632 338 661 q 364 642 360 639 q 371 649 368 646 q 365 660 368 656 q 360 672 363 665 q 322 731 349 690 q 264 818 294 772 q 206 905 233 864 q 167 964 179 946 q 150 988 158 978 q 124 999 142 997 q 144 1020 135 1015 q 169 1017 154 1025 q 220 987 196 1003 q 260 943 244 971 q 287 902 265 933 q 333 834 308 871 q 378 766 357 797 q 407 725 400 735 q 421 708 414 719 q 440 723 431 717 q 457 736 449 729 q 522 801 490 768 q 588 867 554 835 q 606 880 596 874 q 628 888 617 886 q 652 894 642 889 q 678 911 663 900 q 671 892 675 900 q 671 875 667 885 q 679 860 676 863 q 697 858 682 858 q 703 856 700 858 q 708 850 706 853 q 718 857 714 853 q 728 867 722 861 q 732 865 729 865 l 733 865 q 747 839 743 858 q 744 810 751 819 q 725 785 735 797 q 704 763 715 774 q 635 685 669 724 q 565 610 601 647 q 548 594 557 601 q 532 576 539 586 q 522 565 526 571 q 510 553 517 560 q 525 526 518 539 q 539 501 532 513 q 610 381 575 440 q 682 258 646 321 q 728 184 706 221 q 774 110 750 147 q 782 94 779 100 q 786 84 785 89 q 787 73 788 79 q 785 57 786 67 q 765 55 774 49 q 744 63 756 61 q 735 53 739 58 q 729 46 732 49 q 684 40 706 39 q 640 35 663 42 q 606 31 624 31 q 575 50 589 32 q 565 60 572 57 q 550 53 557 64 q 532 49 539 39 q 532 68 525 58 q 542 90 536 79 q 556 115 549 101 q 546 131 551 122 q 536 150 540 139 q 524 173 529 161 q 513 196 519 185 q 468 258 499 231 q 435 299 450 278 q 404 344 419 321 q 372 389 392 365 q 333 347 349 369 q 301 306 318 325 q 267 265 285 286 q 235 222 250 243 q 201 180 217 201 q 168 138 185 158 q 138 94 153 115 q 103 54 122 74 q 74 11 83 35 q 46 -28 65 -12 q 18 -18 31 -22 q -6 -11 6 -14 q -15 -8 -11 -8 q -24 -6 -19 -7 q -35 13 -33 0 q -49 26 -36 26 q -66 35 -62 26 q -76 49 -69 43 q -83 69 -83 58 q -78 90 -82 79 q -67 106 -72 99 q -58 119 -62 113 q -46 144 -50 132 q -43 152 -43 147 q -40 157 -43 157 q -30 160 -33 156 q -23 171 -26 165 q -16 180 -19 176 q -4 182 -12 183 q 6 189 3 182 q 71 271 40 231 q 82 290 78 281 q 92 308 86 300 q 178 413 135 361 q 264 517 221 464 q 270 526 267 522 q 278 538 274 531 m 125 132 q 97 94 110 113 q 71 57 83 76 q 69 49 68 54 q 69 40 69 44 q 98 77 85 58 q 125 115 111 96 q 126 122 126 118 q 125 132 125 126 q 133 133 128 133 q 140 136 138 133 q 158 165 149 150 q 176 193 167 179 q 172 195 174 194 q 168 197 171 196 q 143 167 154 183 q 125 132 132 151 m 463 493 q 457 481 454 486 q 463 468 460 475 q 526 365 494 417 q 589 260 558 313 q 592 256 592 257 q 596 251 593 254 q 603 246 599 249 q 614 239 607 243 q 600 268 611 247 q 574 316 589 289 q 541 372 558 343 q 508 427 524 401 q 479 471 492 453 q 463 493 467 489 m 236 267 q 298 337 268 301 q 356 410 328 372 q 353 418 356 413 q 340 411 343 415 q 285 341 313 376 q 236 267 258 306 m 233 383 q 272 424 265 411 q 268 460 278 438 q 259 448 264 453 q 251 436 254 443 q 243 412 247 425 q 233 383 239 399 m 208 231 q 200 240 201 239 q 192 229 194 235 q 193 226 192 228 q 196 225 194 225 q 208 231 204 228 z "},"a":{"ha":675,"x_min":-56,"x_max":692,"o":"m 181 100 q 190 59 189 79 q 179 18 192 39 q 174 5 175 13 q 171 -10 174 -3 q 157 -16 164 -12 q 142 -24 150 -19 q 128 -18 135 -21 q 119 -6 122 -15 q 114 5 118 1 q 103 13 110 8 q 85 25 93 17 q 71 40 78 33 q 59 55 64 47 q 60 74 54 63 q 56 80 60 76 q 50 86 53 83 q 59 150 61 118 q 61 213 57 182 q 40 220 50 225 q 19 213 31 215 q 1 204 10 208 q -14 197 -7 200 q -25 203 -21 199 q -32 213 -29 207 q -38 222 -35 218 q -49 228 -42 226 q -53 236 -50 228 q -53 249 -56 244 q -43 263 -49 256 q -31 276 -37 271 q -15 287 -22 282 q 0 297 -7 292 q 28 315 14 307 q 57 332 42 324 q 89 375 82 344 q 135 608 110 492 q 153 683 143 647 q 172 757 164 719 q 180 794 178 776 q 185 831 182 811 q 194 883 190 857 q 203 936 197 910 q 208 953 206 944 q 214 968 211 961 q 224 967 221 967 q 232 967 228 967 q 256 1008 242 989 q 296 1039 269 1028 q 310 1026 303 1032 q 324 1014 317 1021 q 332 1021 328 1018 q 339 1028 336 1024 q 351 1038 346 1036 q 368 1032 357 1040 q 394 1031 381 1025 q 420 1028 411 1035 q 436 1010 429 1021 q 481 916 460 964 q 517 817 501 868 q 519 808 518 813 q 518 800 521 803 q 512 746 507 772 q 519 692 517 719 q 521 691 521 692 q 522 690 521 690 l 524 690 q 526 693 526 693 q 533 703 526 697 q 537 636 535 669 q 540 569 539 603 q 535 568 538 569 q 533 590 533 579 q 532 613 532 601 q 522 533 518 572 q 524 454 526 494 q 541 447 532 451 q 561 439 550 442 q 626 406 601 431 q 669 349 650 381 q 680 330 676 339 q 689 311 683 321 q 689 293 692 301 q 665 272 683 279 q 635 276 646 265 q 588 301 613 297 q 538 304 564 306 q 528 303 532 304 q 519 303 524 303 q 519 252 513 276 q 525 201 525 228 q 529 151 526 176 q 531 100 532 125 q 534 50 529 75 q 531 -3 539 25 q 522 5 525 1 q 514 13 518 8 q 504 -8 511 6 q 492 5 497 -1 q 481 17 486 11 q 467 7 472 13 q 456 14 464 15 q 440 19 447 13 q 407 103 407 54 q 406 115 407 108 q 406 128 406 121 q 393 124 399 126 q 388 198 394 160 q 394 274 382 236 q 395 263 394 268 q 396 253 396 257 q 395 238 396 246 q 396 224 394 231 q 400 213 397 218 q 406 199 403 207 q 413 207 410 204 q 418 213 415 210 q 424 203 421 208 q 432 192 426 199 q 428 244 433 219 q 425 296 422 269 q 388 303 406 301 q 353 301 371 304 q 292 288 322 294 q 231 274 261 282 q 196 236 200 267 q 189 190 193 213 q 182 143 185 167 q 181 120 181 132 q 181 97 181 108 q 180 83 181 90 q 179 68 179 75 l 181 68 l 181 100 m 289 636 q 281 619 285 626 q 275 603 276 611 q 265 552 271 578 q 249 503 258 526 q 240 473 244 488 q 232 442 236 458 q 227 424 229 432 q 231 404 225 415 q 324 428 278 417 q 417 454 369 439 q 413 485 414 471 q 411 514 413 500 q 403 603 408 558 q 399 694 399 649 q 389 742 399 721 q 363 783 379 763 q 350 760 354 771 q 349 738 346 749 q 349 707 356 719 q 335 679 342 694 q 333 695 333 689 q 331 713 332 701 q 312 683 319 697 q 296 654 304 669 q 292 667 292 667 q 290 676 292 669 q 281 657 286 665 q 272 640 276 649 l 289 636 m 501 465 q 508 555 508 514 q 500 618 507 596 q 497 613 499 615 q 496 608 496 611 q 495 563 496 585 q 496 519 494 542 q 486 472 497 493 q 489 467 486 469 q 494 466 492 467 q 501 465 497 465 m 192 522 q 201 538 197 529 q 199 563 206 547 q 195 540 196 550 q 192 522 194 531 m 435 503 q 438 503 438 503 q 440 504 439 504 q 439 517 439 511 q 438 529 439 524 l 435 529 l 435 503 m 528 738 q 522 744 522 746 q 526 753 522 749 q 531 749 531 749 q 528 738 531 746 m 392 488 q 393 503 392 499 l 396 503 q 397 488 397 499 l 392 488 m 300 594 q 303 600 301 597 q 306 606 304 603 q 308 604 307 606 q 304 593 307 601 q 302 594 303 593 q 300 594 301 594 z "},"b":{"ha":753,"x_min":-36,"x_max":711,"o":"m 575 161 q 570 153 572 157 q 565 147 568 149 q 541 137 551 144 q 518 122 531 129 q 446 76 482 99 q 374 29 410 53 q 364 18 372 26 q 411 35 392 21 q 454 56 431 49 q 431 35 444 44 q 393 18 411 26 q 356 4 375 10 q 265 -8 310 -7 q 174 4 219 -10 q 112 28 142 14 q 54 60 82 42 q 26 84 38 71 q 3 114 14 97 q -13 137 -4 125 q -29 161 -22 149 q -33 173 -32 167 q -36 186 -33 179 l -7 186 l 4 206 l 21 190 q 42 217 42 194 q 42 295 42 257 q 43 374 42 333 q 45 409 43 392 q 49 444 47 426 q 56 515 53 481 q 63 586 60 550 q 79 714 69 651 q 101 842 89 776 q 113 897 107 869 q 126 951 119 924 q 136 972 131 967 q 149 974 142 976 q 159 963 160 969 q 160 947 158 956 q 163 934 160 940 q 169 919 167 928 q 173 933 174 926 q 171 947 172 940 q 171 960 169 954 q 179 969 172 965 q 202 953 196 967 q 215 926 208 939 q 249 951 233 939 q 282 975 265 964 q 297 987 289 981 q 314 996 306 993 q 398 1022 356 1015 q 485 1025 440 1028 q 515 1019 500 1022 q 542 1006 529 1015 l 553 997 q 596 967 581 986 q 621 921 611 949 q 638 882 628 901 q 657 843 649 863 q 668 795 668 819 q 653 746 668 771 q 614 674 633 710 q 567 606 594 639 q 575 595 571 600 q 586 586 579 590 q 661 483 635 542 q 675 455 667 468 q 690 426 683 442 q 709 360 707 393 q 701 292 711 326 q 696 283 701 286 q 677 253 682 271 q 661 219 672 235 q 617 162 642 188 q 568 108 592 136 q 551 107 567 107 q 566 120 560 115 q 576 132 572 125 q 599 153 588 143 q 611 182 610 164 q 593 175 604 181 l 575 160 l 575 161 m 481 289 l 483 313 q 506 349 493 332 q 529 386 518 367 q 535 392 532 389 q 540 400 538 396 q 560 448 557 419 q 550 499 564 476 q 546 506 549 499 q 508 519 526 513 q 468 517 489 526 q 420 496 444 506 q 372 472 396 486 q 308 450 340 456 q 242 442 276 444 q 221 450 232 442 q 201 463 210 456 q 181 478 192 471 q 176 471 178 474 q 174 465 174 468 q 169 411 168 439 q 156 358 171 383 l 156 215 q 164 185 158 200 q 179 156 169 171 q 382 240 292 176 q 425 272 404 256 q 467 304 446 289 q 459 287 464 294 q 450 269 454 279 q 442 267 447 268 q 436 264 436 265 q 429 245 435 253 q 418 231 424 238 q 410 211 413 224 q 485 264 458 239 q 524 317 513 289 l 481 289 m 194 632 q 255 647 226 640 q 311 660 283 653 q 338 667 325 663 q 363 679 350 671 q 456 758 415 714 q 528 854 496 801 q 536 878 538 869 q 524 903 535 888 q 501 897 513 900 q 479 892 490 894 q 449 885 464 889 q 419 876 435 882 q 317 828 364 860 q 225 763 269 797 q 217 754 221 758 q 211 746 213 750 q 201 691 206 718 q 194 632 196 664 m 75 300 q 85 368 86 332 q 78 425 85 404 q 74 403 75 414 q 68 385 74 392 q 58 356 58 369 q 57 328 57 343 l 57 269 q 59 299 60 283 q 65 335 58 315 q 71 315 69 322 q 75 300 72 307 m 281 929 q 253 907 265 918 q 226 885 240 896 q 226 877 225 882 q 225 864 226 872 q 257 890 243 879 q 283 913 271 901 q 285 917 286 914 q 285 924 285 921 l 364 965 q 319 955 339 965 q 281 929 299 944 m 329 876 q 280 857 308 875 q 225 813 251 839 l 228 796 q 278 835 253 817 q 329 876 303 854 m 575 161 q 576 178 575 171 q 560 175 571 178 q 563 189 563 183 q 588 210 576 199 q 599 240 599 221 q 576 219 588 229 q 560 193 564 208 q 542 181 547 190 q 531 156 536 171 q 548 167 542 163 q 560 176 554 171 l 560 175 l 575 161 m 488 126 q 451 106 461 114 q 428 81 442 99 q 464 101 447 92 q 492 125 481 110 q 506 132 499 128 q 514 151 514 136 l 488 126 m 525 742 q 501 719 510 733 q 483 690 492 706 q 510 712 500 699 q 526 740 519 725 q 539 764 539 747 q 525 742 524 756 m 628 210 q 614 200 617 207 q 613 183 611 193 q 625 194 624 186 q 628 210 626 201 m 558 811 q 554 812 556 811 q 550 813 553 813 q 544 785 547 801 q 549 784 547 785 q 551 783 550 783 q 556 797 554 790 q 558 811 557 804 m 108 617 q 104 610 107 613 q 100 603 101 607 q 100 594 99 599 q 108 585 101 590 l 108 617 m 479 74 q 467 58 474 61 q 454 56 461 56 l 479 74 m 638 231 q 626 232 631 231 q 627 221 626 226 q 628 210 628 215 q 633 220 631 215 q 638 231 635 225 m 568 419 l 571 406 l 574 406 l 574 418 q 572 424 574 421 l 568 419 m 431 979 q 421 982 419 982 q 415 980 418 981 q 418 975 413 979 q 431 979 418 975 z "},"c":{"ha":739,"x_min":10,"x_max":688,"o":"m 554 686 q 540 705 542 696 q 539 726 538 714 q 519 701 532 715 q 517 713 518 708 q 517 721 517 718 q 513 755 514 738 q 508 788 511 772 q 497 814 506 808 q 468 817 488 819 q 417 802 442 811 q 372 774 393 793 q 349 753 361 763 q 325 733 338 744 l 321 729 q 281 662 300 696 q 242 594 261 628 q 201 506 218 551 q 174 411 183 460 q 167 356 169 383 q 161 299 164 329 q 174 269 161 282 q 197 246 186 257 q 247 225 215 226 q 334 236 293 221 q 411 281 375 251 q 467 338 440 307 q 513 406 494 368 q 526 438 522 422 q 526 474 529 454 q 524 492 524 482 q 528 510 525 501 q 547 528 533 525 q 571 521 560 532 q 582 507 578 514 q 592 493 586 500 q 607 481 599 478 q 624 478 618 483 q 633 467 629 474 q 654 424 643 444 q 675 383 665 404 q 687 333 686 357 q 676 282 688 308 q 606 167 647 218 q 504 79 565 115 q 427 51 467 60 q 343 46 388 42 q 322 51 329 49 q 293 65 307 58 q 265 76 279 71 q 165 142 210 99 q 156 153 160 149 q 146 160 153 157 q 96 206 117 179 q 57 261 75 232 q 14 389 17 319 q 11 428 13 408 q 25 468 10 449 q 28 476 28 471 q 31 489 29 482 q 49 558 40 524 q 65 626 57 592 q 69 638 67 631 q 68 647 71 644 q 67 678 61 664 q 79 707 74 692 q 97 754 90 728 q 112 783 101 769 q 131 808 122 796 q 203 888 163 853 q 296 942 243 922 q 377 956 336 956 q 457 935 418 957 q 533 871 499 908 q 578 781 567 833 q 575 740 583 758 q 567 714 572 726 q 554 686 561 701 m 254 740 q 281 765 269 751 q 299 800 293 779 q 270 776 283 788 q 249 746 257 764 q 230 722 238 735 q 219 693 222 710 q 239 715 231 704 q 254 740 247 726 m 360 74 q 364 71 365 71 q 439 71 404 58 q 504 110 474 83 q 509 122 510 115 q 499 132 508 128 q 433 103 469 104 q 397 92 414 100 q 360 74 379 85 z "},"d":{"ha":736,"x_min":-42,"x_max":729,"o":"m 149 1021 q 160 1008 153 1015 q 174 990 167 1001 q 206 995 189 993 q 242 1001 224 997 q 283 1005 263 1004 q 326 1001 304 1006 q 374 996 350 997 q 422 992 399 994 q 506 971 465 986 q 586 935 546 956 q 631 896 614 919 q 663 844 649 872 q 678 819 671 832 q 693 793 685 806 q 716 749 707 771 q 726 700 725 726 q 727 638 729 668 q 713 578 725 607 q 668 489 692 533 q 652 462 661 475 q 633 435 643 449 q 628 428 631 432 q 622 421 626 424 q 564 362 588 396 q 513 296 540 328 q 449 228 481 261 q 376 160 417 194 q 382 176 379 169 q 388 189 385 182 q 365 182 374 188 q 349 168 357 176 q 325 144 338 156 q 301 121 313 133 q 262 85 282 101 q 224 51 242 69 q 225 32 225 40 q 226 14 225 24 q 206 15 211 17 q 186 6 201 14 q 180 14 183 10 q 171 25 176 18 q 150 18 160 22 q 131 11 140 14 q 106 6 119 8 q 82 1 93 4 q 67 3 75 0 q 57 8 58 6 q 41 17 50 21 q 25 19 32 14 q 3 40 17 31 q -4 69 -10 50 q -22 75 -15 72 q -31 83 -28 78 q -37 97 -35 88 q -42 125 -39 107 q 0 148 -21 136 q 44 174 21 160 q 45 219 46 196 q 42 267 44 243 q 35 357 38 311 q 35 447 33 403 q 35 553 36 500 q 35 658 35 606 q 43 782 36 721 q 60 906 50 843 q 67 933 63 921 q 83 953 72 944 q 100 969 94 960 q 108 990 106 979 q 120 1013 111 1006 q 149 1021 129 1021 m 406 453 q 366 412 386 433 q 326 368 346 390 q 308 349 317 358 q 293 329 299 340 q 276 303 286 314 q 254 281 265 292 q 234 260 243 269 q 218 236 225 250 q 231 242 225 236 q 324 338 278 290 q 417 433 369 385 q 421 441 419 436 q 424 450 422 446 q 465 497 444 474 q 503 544 485 521 q 558 626 533 585 q 601 710 582 667 q 610 744 610 729 q 601 781 610 760 q 598 775 599 778 q 594 769 597 772 q 554 678 578 722 q 501 594 531 635 q 406 453 453 525 m 203 303 q 249 335 229 317 q 290 375 269 354 q 347 433 319 404 q 393 501 375 463 q 399 508 396 506 q 404 514 401 511 q 451 582 428 549 q 499 649 475 615 q 513 670 506 660 q 528 692 521 681 q 546 731 539 711 q 561 769 553 750 q 569 800 567 783 q 565 833 572 821 q 538 851 557 844 q 512 860 524 856 q 489 867 500 864 q 419 876 454 876 q 350 874 385 875 q 291 867 321 872 q 232 851 261 861 q 205 836 208 843 q 201 810 201 829 q 199 735 200 774 q 194 661 197 697 q 190 568 192 614 q 185 476 188 522 q 185 376 183 428 q 186 338 185 357 q 192 297 188 318 l 203 303 m 256 935 q 246 941 250 938 q 238 944 242 944 q 217 941 226 943 q 199 926 207 939 q 228 926 215 921 q 256 935 242 931 m 33 81 q 59 81 50 76 q 79 92 68 85 q 54 95 64 99 q 33 81 44 92 z "},"f":{"ha":569,"x_min":-8,"x_max":582,"o":"m 29 811 q 27 821 28 815 q 25 831 26 826 l 3 831 q 6 841 6 838 q 10 847 7 844 q 36 861 24 857 q 72 874 54 868 q 104 892 89 879 q 111 894 107 894 q 174 901 143 890 q 238 913 204 911 q 283 923 261 915 q 329 938 306 931 q 385 951 357 944 q 440 964 413 957 q 463 965 451 967 q 485 951 474 963 q 503 940 488 943 q 533 906 533 936 q 538 892 532 894 q 553 886 543 889 l 553 849 q 576 832 572 846 q 582 803 579 818 q 550 781 576 781 q 514 780 532 781 q 478 779 496 779 q 351 774 414 781 q 225 760 288 767 q 220 758 222 760 q 215 756 218 757 q 205 736 208 746 q 211 713 201 726 q 207 696 213 707 q 195 643 197 669 q 192 586 193 617 q 210 590 203 589 q 228 594 218 592 q 297 608 263 601 q 365 621 331 614 q 418 613 396 625 q 433 608 425 610 q 447 607 440 607 q 478 582 468 606 q 492 552 486 567 q 504 524 497 538 q 518 498 510 508 q 535 474 526 488 q 519 459 528 465 q 497 453 510 453 q 441 449 469 450 q 383 446 413 449 q 305 439 344 442 q 226 432 265 436 q 206 424 211 431 q 199 403 201 418 l 199 385 l 199 363 q 197 394 196 379 q 190 429 199 410 q 185 412 188 418 q 181 400 183 406 q 183 232 175 315 q 201 65 190 149 q 206 25 206 46 q 214 -15 207 4 q 213 -20 214 -18 q 210 -25 211 -22 q 202 -16 203 -22 q 201 -3 201 -10 q 200 10 201 4 q 190 19 199 17 l 190 -11 q 172 -12 179 -11 q 157 -12 164 -12 q 137 4 147 -4 q 115 22 126 13 q 113 35 114 28 q 111 51 113 43 q 92 67 100 57 q 69 72 83 78 q 59 85 65 79 q 51 100 53 92 q 47 205 44 153 q 51 310 49 257 q 54 360 54 335 q 57 410 54 385 q 38 439 57 433 q 24 449 29 443 q 24 468 19 456 q 23 471 24 469 q 22 474 22 472 q 12 480 19 479 q 4 492 4 481 q -1 501 3 496 q -8 514 -6 507 q 26 533 8 524 q 64 550 44 542 q 69 665 67 608 q 75 781 72 722 q 33 808 53 796 q 54 813 44 810 q 75 825 64 817 q 47 826 58 828 q 29 811 36 824 m 286 813 q 243 806 263 810 q 204 799 224 801 q 206 794 206 797 q 240 792 222 793 q 275 790 257 792 q 278 799 276 794 q 286 813 281 803 m 100 292 q 96 254 99 272 q 90 213 93 236 q 104 254 103 236 q 100 292 106 272 m 107 699 q 118 725 118 717 q 107 749 118 733 l 107 699 m 101 403 l 101 343 l 104 343 l 104 403 l 101 403 m 113 796 q 106 777 107 785 q 111 763 104 769 q 119 776 118 769 q 113 796 119 783 z "},"g":{"ha":667,"x_min":-15,"x_max":631,"o":"m 386 342 q 374 344 379 343 q 361 346 368 346 q 338 344 350 346 q 315 344 326 343 q 297 351 307 347 q 279 358 288 354 q 263 396 257 372 q 251 399 256 399 q 240 400 247 399 q 239 413 240 407 q 236 431 238 419 q 253 438 246 433 q 272 444 261 442 q 361 469 318 460 q 394 476 378 475 q 428 479 411 476 q 474 485 451 482 q 521 492 497 489 q 534 493 528 493 q 547 490 540 493 q 558 487 553 486 q 571 488 564 488 q 579 485 574 485 q 588 482 585 485 q 593 475 590 479 q 597 468 596 471 q 597 461 597 465 q 596 454 596 457 q 601 450 599 451 q 608 446 604 449 q 610 431 610 439 q 611 415 611 424 l 618 408 q 630 395 629 401 q 621 378 631 389 q 606 367 614 369 q 589 364 597 365 q 573 361 581 361 q 558 354 565 361 q 558 349 558 349 q 570 318 569 333 q 564 288 571 303 q 553 257 558 272 q 542 226 547 242 q 536 210 539 218 q 533 196 533 203 q 533 135 532 164 q 532 78 533 106 q 535 47 532 63 q 547 19 538 32 q 560 -54 567 -11 q 515 -36 532 -51 q 479 -1 497 -21 q 453 41 463 18 q 435 89 444 64 q 419 78 426 83 q 406 69 413 74 q 360 40 385 51 q 311 22 336 29 q 222 25 263 7 q 145 69 182 44 q 79 126 108 93 q 45 167 63 146 q 15 213 28 189 q -14 326 -14 268 q -7 453 -15 390 q 25 578 1 515 q 33 600 29 589 q 39 622 36 611 q 118 788 64 710 q 140 817 129 803 q 163 847 151 832 q 285 940 211 906 q 292 944 288 943 q 299 947 296 944 q 375 970 336 969 q 454 960 414 971 q 491 947 474 953 q 521 925 508 940 q 522 922 521 924 q 552 900 543 915 q 569 867 561 885 q 606 806 585 838 q 610 774 614 792 q 594 727 603 750 q 572 685 586 704 q 555 658 563 672 q 540 631 547 644 q 531 619 535 624 q 519 608 526 614 q 508 602 513 601 q 494 611 503 603 q 490 616 492 613 q 486 619 489 619 q 466 625 469 613 q 453 644 463 638 q 449 660 446 651 q 456 679 453 669 q 472 724 464 703 q 490 769 481 746 q 495 797 494 782 q 499 825 496 811 q 457 822 476 829 q 387 789 418 811 q 329 739 356 767 q 304 710 315 725 q 279 679 293 694 q 270 667 275 672 q 261 654 265 661 q 256 662 258 658 q 250 669 253 665 q 212 594 231 632 q 182 515 193 556 q 167 461 175 488 q 156 407 158 435 q 155 378 153 392 q 153 349 157 364 q 144 278 147 317 q 156 186 142 226 q 199 182 179 176 q 239 197 219 188 q 298 234 271 211 q 349 286 325 257 q 363 305 356 296 q 378 325 371 314 q 381 332 379 328 q 386 342 383 336 m 561 803 q 558 788 558 792 q 549 749 553 768 q 538 710 544 729 q 522 676 531 692 q 504 643 513 660 q 501 637 503 640 q 500 631 500 633 q 517 646 510 639 q 528 664 524 653 q 546 711 538 688 q 564 758 554 735 q 571 782 569 771 q 571 793 572 788 q 561 803 569 799 m 519 169 l 519 160 l 521 160 l 521 169 l 519 169 z "},"e":{"ha":672,"x_min":-14,"x_max":646,"o":"m 219 792 q 226 767 226 781 q 222 740 226 754 q 215 687 218 714 q 206 632 211 660 l 206 613 q 226 608 217 607 q 246 611 235 610 q 290 617 268 615 q 333 611 311 618 q 355 610 344 608 q 376 611 365 611 q 401 614 389 613 q 425 615 414 615 q 448 615 436 615 q 467 600 460 614 q 473 597 468 597 q 482 594 478 596 q 502 590 493 592 q 518 576 511 588 q 534 560 525 567 q 549 544 543 554 q 553 526 553 536 q 561 504 554 515 q 547 478 572 485 q 496 471 519 471 q 426 473 460 471 q 357 472 392 475 q 290 472 324 469 q 221 474 256 474 q 203 474 213 474 q 181 472 193 474 q 176 338 179 404 q 179 204 172 271 q 208 208 200 206 q 221 213 215 210 q 234 219 226 215 q 261 226 242 222 q 360 242 310 238 q 461 233 410 246 q 494 230 478 231 q 526 219 510 229 q 557 188 550 207 q 560 172 560 179 q 564 156 561 165 q 544 155 553 156 q 526 154 535 154 q 525 152 526 153 q 524 150 524 151 q 558 138 542 143 q 594 126 575 133 q 599 103 597 115 q 604 78 601 92 q 591 77 597 78 q 578 76 585 76 l 342 76 q 330 76 336 76 q 318 78 324 76 q 302 81 304 81 q 301 81 300 82 q 300 78 301 79 q 285 75 299 76 q 245 71 265 72 q 204 67 225 69 q 200 56 203 64 q 190 47 196 49 q 179 50 183 46 q 151 65 165 64 q 121 69 136 67 q 93 75 106 72 q 68 82 81 78 q 45 94 56 88 q 42 122 35 101 q 36 140 46 129 q 17 151 26 150 q 6 151 11 153 q -4 151 1 150 q -14 164 -7 153 q 51 182 24 172 q 52 206 51 194 q 51 229 53 218 q 47 304 44 267 q 53 378 50 342 q 59 442 56 410 q 65 506 63 474 q 66 529 67 517 q 65 556 65 542 l 65 568 q 68 607 69 588 q 63 645 67 626 q 55 683 58 664 q 51 724 51 703 q 55 760 51 743 q 61 794 58 776 q 63 812 63 803 q 64 831 64 821 q 56 842 64 838 q 50 858 47 847 q 47 860 51 858 q 40 865 43 863 q 19 879 29 875 q 22 897 21 889 q 24 917 22 906 q 40 922 32 919 q 54 925 47 924 q 78 934 69 928 q 89 956 88 940 q 90 957 89 957 q 93 958 90 957 q 97 961 94 960 q 102 958 100 957 q 106 963 104 960 q 109 966 107 965 q 114 961 111 967 q 129 950 118 953 q 153 947 140 947 q 178 947 165 946 q 197 949 190 949 q 230 951 213 949 q 264 957 247 954 q 308 962 286 960 q 351 967 329 964 q 365 970 367 968 q 359 974 364 972 q 352 978 354 976 q 365 983 350 981 q 504 993 432 997 q 556 983 529 993 q 597 942 582 974 q 589 922 592 935 q 617 910 603 918 q 625 883 622 897 q 639 857 628 868 q 631 832 646 844 q 626 829 628 831 q 622 828 625 828 q 584 820 603 826 q 547 806 565 814 q 538 803 543 803 q 531 806 532 803 q 522 813 526 813 q 511 813 518 813 q 505 812 508 813 q 499 814 501 811 q 447 830 474 833 q 396 825 421 826 q 353 824 367 825 q 330 822 340 824 q 306 819 319 821 q 264 818 293 818 q 219 792 235 818 m 92 801 q 85 755 89 778 q 76 708 81 732 q 82 699 76 710 q 90 724 89 711 q 91 751 92 738 q 90 776 90 764 q 92 801 89 789 m 363 157 q 328 155 344 156 q 293 153 311 154 q 328 150 311 150 q 363 157 346 150 m 192 439 q 190 436 190 438 q 190 439 190 436 l 190 444 q 191 442 190 443 q 192 439 192 440 z "},"h":{"ha":682,"x_min":-33,"x_max":631,"o":"m 175 1000 q 178 981 175 990 q 179 963 181 972 q 165 856 172 910 q 151 747 157 801 q 144 658 146 703 q 142 569 143 614 q 150 588 150 578 q 151 607 150 597 q 155 651 154 629 q 158 696 156 674 q 172 790 165 743 q 185 885 178 838 q 186 895 185 890 q 186 903 188 900 q 185 940 178 922 q 197 974 192 957 q 228 966 224 971 q 242 939 233 961 q 257 845 258 893 q 256 750 256 797 q 254 746 256 747 q 251 738 253 744 q 248 764 249 753 q 246 790 247 775 q 233 712 238 749 q 232 638 229 675 q 232 617 233 626 q 228 596 231 607 q 231 579 226 583 q 249 575 235 575 q 267 576 261 575 q 367 594 317 588 q 471 599 418 600 q 483 601 472 599 q 490 646 490 624 q 493 692 490 668 q 501 828 501 760 q 501 967 501 897 q 511 1008 501 988 l 515 996 q 519 994 518 996 q 522 996 519 993 q 543 998 533 996 q 563 999 553 1000 q 576 985 574 996 q 583 967 578 974 q 617 897 613 935 q 624 822 622 860 q 622 680 625 751 q 613 538 619 608 q 610 511 611 524 q 611 485 610 499 q 619 458 611 468 q 629 426 631 439 q 611 399 628 413 q 597 368 599 385 l 589 193 q 591 170 589 182 q 594 147 593 158 q 597 124 596 136 q 596 101 599 113 q 593 52 592 76 q 596 3 594 28 q 595 -30 597 -14 q 588 -65 593 -46 q 574 -46 579 -56 q 567 -62 569 -54 q 561 -82 564 -71 q 546 -69 550 -76 q 544 -63 543 -67 q 543 -56 544 -60 q 534 -46 540 -44 q 519 -50 528 -47 q 515 -19 514 -36 q 503 13 517 -3 q 498 -2 500 6 q 493 -18 496 -10 q 483 0 488 -8 q 474 18 479 8 q 461 15 467 15 q 449 13 456 14 q 444 19 444 17 q 446 30 447 26 q 441 35 444 33 q 433 36 438 36 q 426 39 428 36 q 424 44 424 42 q 413 122 429 83 q 409 141 410 132 q 415 161 408 150 q 417 177 419 168 q 414 197 415 186 q 427 183 421 189 q 440 169 433 176 q 454 176 447 172 q 469 183 461 179 q 474 208 472 196 q 476 233 475 221 q 477 258 476 246 q 475 283 478 271 q 481 307 474 296 q 482 333 488 318 l 468 333 l 468 385 q 460 388 463 388 q 454 390 457 389 l 439 390 q 334 384 386 386 q 229 372 282 382 q 228 355 228 363 q 226 340 228 347 q 224 290 224 315 q 229 240 224 265 q 233 181 235 211 q 242 122 231 150 q 243 104 244 114 q 242 83 242 94 q 229 85 235 85 q 219 85 224 86 q 213 81 215 83 q 204 74 210 78 q 172 103 183 85 q 154 144 161 122 l 132 144 q 110 200 114 167 q 99 267 103 233 q 99 335 96 300 l 99 374 q 73 388 88 383 q 47 406 58 392 q 27 426 38 417 q 6 444 17 436 q 1 458 -3 451 q 6 472 6 464 q -12 478 -3 476 q -26 492 -22 481 q -31 513 -33 503 q -17 525 -29 522 q 15 535 -1 532 q 49 542 32 539 q 72 547 60 544 q 96 551 83 549 q 98 589 97 571 q 100 626 99 607 q 108 710 104 668 q 113 793 111 751 q 117 855 113 825 q 129 913 122 885 q 138 947 133 931 q 150 982 143 964 q 158 994 153 989 q 175 1000 163 1000 m 504 375 q 506 356 504 367 q 504 338 507 346 q 497 296 494 317 q 499 254 499 275 q 502 224 500 239 q 503 192 504 208 q 503 185 503 189 q 504 172 503 182 q 513 183 511 181 q 517 189 515 186 q 519 168 521 179 q 517 146 518 157 q 518 123 517 135 q 528 100 519 111 q 544 138 542 117 q 546 161 546 149 q 553 182 546 174 q 560 194 557 189 q 564 206 564 199 q 561 258 563 232 q 565 308 560 283 q 568 347 569 328 q 568 385 567 365 q 504 375 533 401 m 542 756 q 536 755 539 756 q 531 754 533 754 q 524 669 531 711 q 524 582 517 626 q 564 576 546 579 q 565 655 565 617 q 561 732 565 693 q 556 666 558 700 q 551 594 554 632 q 549 640 550 619 q 547 681 549 661 q 544 717 544 699 q 542 756 543 736 m 179 733 q 176 689 167 711 q 181 711 179 700 q 186 733 183 722 l 179 733 m 139 321 q 139 369 146 347 q 134 345 132 357 q 139 321 136 333 z "},"i":{"ha":286,"x_min":-33,"x_max":239,"o":"m 122 946 q 122 927 126 936 q 132 911 118 918 q 144 924 139 918 q 157 938 150 931 q 181 915 172 929 q 196 886 189 900 q 231 803 222 842 q 235 710 239 765 q 233 675 233 688 q 233 652 233 663 q 231 629 232 642 q 228 594 231 617 q 205 424 217 508 q 182 251 193 339 q 176 192 178 222 q 176 131 175 163 q 177 76 179 104 q 160 22 175 47 q 153 8 157 15 q 142 -7 149 1 q 114 24 129 13 q 83 47 99 36 q 56 74 68 58 q 26 100 43 89 q 3 128 11 111 q -26 153 -6 146 q -15 167 -21 161 q -28 178 -22 171 q -29 197 -33 186 l -4 197 q 1 215 -1 207 q 3 232 3 222 q 17 359 11 296 q 32 486 24 422 q 41 555 38 525 q 49 613 44 585 q 56 672 53 642 q 65 742 60 701 q 72 803 68 774 q 79 864 76 832 q 85 897 81 882 q 96 926 90 911 q 106 940 99 938 q 122 946 113 943 m 68 324 q 83 422 76 378 q 96 508 90 465 q 106 594 101 550 q 114 693 111 639 q 107 683 107 689 q 100 632 103 653 q 95 592 97 611 q 90 553 93 574 q 82 501 86 532 q 76 469 79 486 q 71 436 74 453 q 68 397 68 417 q 68 357 68 376 l 68 324 m 65 558 q 82 688 86 622 q 69 624 75 656 q 65 558 64 592 m 125 856 q 126 855 126 856 q 128 854 126 854 q 131 861 131 857 q 135 869 132 865 q 132 871 133 871 q 129 872 131 871 q 127 863 128 867 q 125 856 126 860 m 53 513 q 56 512 54 513 q 60 511 57 511 l 64 524 q 62 526 64 526 q 57 528 60 526 q 53 513 54 517 m 126 240 l 126 213 l 131 213 q 132 226 132 219 q 135 240 132 233 l 126 240 z "},"k":{"ha":801,"x_min":-42,"x_max":763,"o":"m 586 829 q 565 807 575 817 q 544 786 556 797 q 549 774 547 779 q 554 763 551 769 q 565 765 561 764 q 575 769 569 765 q 590 778 581 772 q 614 797 599 785 q 624 792 618 794 q 633 789 629 790 q 635 774 635 781 q 636 760 635 767 q 626 756 632 757 q 619 751 621 754 q 609 724 615 736 q 588 707 603 713 q 583 700 586 707 q 535 633 567 660 q 467 586 504 606 q 417 551 439 571 q 372 511 396 531 q 358 492 364 504 q 346 468 353 481 q 351 464 349 467 q 357 460 353 461 q 481 421 419 440 q 604 381 542 401 q 626 372 615 378 q 647 363 636 367 q 678 331 669 353 q 683 317 681 324 q 694 308 686 311 q 725 287 717 303 q 736 251 733 271 q 741 231 738 240 q 754 214 744 222 q 761 199 763 207 q 749 188 760 190 q 715 186 735 183 q 627 208 671 194 q 540 240 583 221 q 528 246 532 244 q 449 265 486 250 q 375 293 413 281 q 287 318 331 307 q 199 338 243 329 q 191 339 196 339 q 182 339 186 339 q 160 335 165 339 q 151 314 154 331 q 142 251 147 282 q 135 189 138 221 q 132 117 132 153 q 131 44 132 81 q 129 39 131 42 q 128 33 128 36 q 113 35 119 33 q 108 18 110 26 q 103 -1 106 10 q 76 8 89 4 q 57 28 64 13 q 42 44 50 36 q 26 61 33 51 q 7 73 18 69 q -8 89 -4 76 q -18 94 -17 89 q -21 106 -19 99 q -29 135 -25 121 q -37 164 -33 149 q -40 176 -39 169 q -42 188 -42 182 q -40 199 -42 194 q -29 200 -39 204 q -13 219 -25 213 q 0 244 -1 226 q 8 319 3 281 q 18 393 14 357 q 23 440 21 417 q 28 488 25 464 q 16 491 21 490 q 4 494 11 492 q 10 503 8 501 q 27 514 18 510 q 46 522 36 518 q 60 715 43 625 q 69 776 65 746 q 78 835 72 806 q 84 863 81 849 q 92 890 88 876 q 113 922 99 914 q 154 928 126 929 q 157 915 156 921 q 163 903 158 908 q 167 892 164 896 q 179 892 169 889 q 187 889 182 893 q 194 879 192 885 q 217 810 213 846 q 215 739 221 775 q 206 682 211 710 q 199 625 201 654 q 195 607 197 615 q 199 588 193 599 q 221 592 211 588 q 240 604 231 597 q 365 689 306 644 q 483 778 424 733 q 510 799 497 789 q 538 819 524 810 q 558 831 549 826 q 586 829 568 835 m 36 393 q 21 310 25 351 q 14 228 17 269 q 31 309 25 268 q 36 393 38 350 m 540 672 q 553 669 547 669 q 557 678 558 668 q 556 681 557 678 l 554 682 q 540 672 546 678 z "},"j":{"ha":757,"x_min":-32,"x_max":749,"o":"m 683 981 q 671 963 682 965 q 654 951 660 961 q 676 949 668 950 q 688 947 683 949 q 698 940 693 944 q 710 929 703 936 l 703 911 q 725 885 718 900 q 749 833 732 869 q 730 824 740 825 q 708 822 719 822 q 687 822 697 822 q 664 821 676 822 q 665 806 665 813 q 665 794 665 800 q 681 643 676 718 q 681 492 686 568 q 668 369 678 429 q 635 253 658 310 q 601 182 619 217 q 561 114 582 147 q 509 57 539 82 q 439 21 479 32 q 385 17 408 10 q 322 13 354 26 q 331 6 325 7 q 342 2 336 4 q 350 -3 347 0 q 351 -15 353 -7 q 333 -15 343 -15 q 313 -15 324 -14 q 272 -3 289 -15 q 242 14 257 6 q 213 29 228 22 q 154 69 183 44 q 97 127 126 97 q 44 190 68 157 q 17 243 26 215 q 0 299 8 271 q -15 366 -8 332 q -28 435 -21 400 q -27 480 -32 458 q -3 519 -22 501 q 13 547 8 531 q 37 615 21 583 q 76 676 53 647 q 98 695 89 693 q 126 690 107 697 l 154 683 q 176 671 167 678 q 186 647 185 664 q 189 639 186 640 q 202 610 206 625 q 196 581 199 596 q 172 476 183 528 q 161 369 160 425 q 160 340 161 354 q 161 310 160 325 q 173 275 163 293 q 199 240 183 257 q 232 212 214 224 q 265 199 250 200 q 328 205 299 194 q 385 236 357 215 q 468 338 433 276 q 530 471 506 401 q 563 615 554 540 q 568 686 568 650 q 569 758 568 722 q 567 782 569 769 q 563 808 564 794 q 536 809 549 808 q 513 807 524 810 q 458 800 485 804 q 406 793 432 796 l 292 779 q 204 775 247 775 q 185 775 194 774 q 165 779 175 776 q 156 781 161 779 q 150 786 151 783 q 134 805 146 801 q 111 814 122 808 q 91 828 100 821 q 72 843 82 836 q 76 885 67 874 q 111 904 85 897 q 244 944 178 925 q 378 982 311 964 q 471 1008 425 996 q 564 1032 517 1019 q 593 1034 579 1035 q 622 1024 607 1033 q 639 1015 629 1018 q 657 1008 649 1011 q 664 1003 664 1004 q 670 988 661 989 q 683 981 679 988 m 443 147 q 485 181 467 161 q 522 219 503 200 q 531 233 528 225 q 539 247 533 240 q 503 218 519 232 q 471 189 488 204 q 435 162 456 174 q 396 129 415 150 l 436 136 q 440 142 439 139 q 443 147 440 144 m 599 413 q 581 367 590 389 q 563 324 572 346 q 558 305 560 314 q 553 286 556 296 q 585 345 575 314 q 599 413 594 376 m 404 114 q 376 106 390 110 q 346 93 361 101 q 373 88 361 86 q 396 92 385 90 q 400 103 399 99 q 404 114 401 108 m 490 232 q 508 247 503 239 q 515 268 514 254 q 499 253 504 261 q 490 232 494 244 m 435 121 q 440 128 439 124 q 436 135 440 132 q 421 125 429 131 q 406 114 413 119 l 435 121 m 646 479 q 635 466 636 472 q 638 449 633 460 q 642 464 640 458 q 646 479 643 469 z "},"l":{"ha":643,"x_min":-14,"x_max":640,"o":"m 139 974 q 155 963 149 968 q 168 956 161 958 q 169 942 169 949 q 171 925 169 935 q 190 921 181 922 q 210 917 199 919 q 221 894 214 906 q 231 868 228 882 q 233 848 233 858 q 232 826 233 838 q 224 768 229 797 q 213 711 219 739 q 197 624 204 667 q 181 536 189 581 q 178 527 179 532 q 176 519 178 522 q 169 520 172 519 q 164 522 167 521 q 166 504 164 513 q 165 488 168 496 q 160 457 158 472 q 158 426 161 442 q 151 383 156 404 q 153 340 147 363 q 151 327 154 335 q 147 313 147 319 q 149 262 149 288 q 151 210 149 236 q 186 190 153 181 q 265 222 226 206 q 343 250 303 238 q 406 269 374 261 q 469 285 438 278 q 499 290 485 289 q 528 278 514 290 q 533 275 531 275 q 558 272 549 278 q 575 258 567 267 q 582 255 578 256 q 592 251 586 254 q 588 226 582 238 q 592 200 593 214 q 601 199 597 200 q 608 199 604 199 q 622 167 610 179 q 640 140 633 156 q 614 107 639 118 q 580 87 596 97 q 544 68 564 76 q 453 26 499 47 q 358 -10 407 4 q 300 -24 329 -19 q 246 -23 271 -29 q 197 -1 221 -17 q 155 25 176 13 q 111 50 133 38 q 104 54 108 53 q 97 58 100 56 q 41 129 69 94 q -3 208 13 164 q -5 222 -6 215 q -4 236 -4 229 q -2 273 -1 256 q -10 310 -3 290 q -11 338 -14 322 q -4 365 -8 353 q 8 417 1 392 q 21 469 14 442 q 24 481 22 475 q 25 490 26 486 q 24 535 18 514 q 35 578 31 556 q 49 649 43 614 q 64 719 56 683 q 87 823 75 772 q 117 924 99 874 q 127 948 121 936 q 139 974 133 960 m 76 822 q 74 815 75 819 q 72 806 74 810 q 67 807 69 806 q 72 824 69 813 q 76 822 75 824 z "},"m":{"ha":896,"x_min":-1,"x_max":839,"o":"m 19 922 q 34 928 28 925 q 47 931 40 931 q 67 929 57 931 q 83 925 76 928 q 97 910 93 922 q 113 896 100 897 q 132 888 125 896 q 144 871 139 879 q 167 833 154 857 q 222 715 194 775 q 276 596 249 656 q 281 581 279 589 q 286 565 282 572 q 300 539 290 553 q 322 574 311 558 q 344 606 333 589 q 441 727 389 671 q 546 844 493 783 q 564 861 554 853 q 582 878 574 869 q 612 903 597 890 q 642 928 626 915 q 664 940 653 936 q 670 935 667 938 q 676 928 674 932 q 682 929 681 928 q 696 942 688 933 q 715 953 710 953 q 736 940 719 953 q 740 936 740 936 q 765 926 756 936 q 781 906 774 917 q 796 885 788 894 q 806 861 804 875 q 810 851 807 856 q 817 843 814 847 q 831 800 833 825 q 832 776 831 788 q 835 750 833 764 q 833 672 839 710 q 833 649 831 661 q 836 624 835 636 q 837 610 836 617 q 838 596 838 603 q 832 542 835 568 q 828 489 829 515 q 826 445 826 467 q 824 401 826 424 q 822 349 821 375 q 824 294 824 322 q 822 206 822 250 q 821 117 821 161 q 822 60 821 89 q 824 6 822 32 q 809 -6 817 -1 q 792 -15 801 -10 q 780 -6 789 -8 q 763 3 771 -3 q 712 40 735 18 q 671 90 689 61 q 644 166 649 126 q 640 247 640 206 q 644 316 642 282 q 649 386 646 350 q 651 421 650 404 q 656 457 653 438 q 665 561 661 510 q 675 665 669 613 q 674 669 676 667 q 671 674 672 671 q 648 651 658 663 q 626 626 638 639 q 494 438 551 539 q 453 321 463 381 q 444 293 449 307 q 436 265 440 279 q 397 249 424 240 q 373 260 385 254 q 350 274 361 265 q 294 324 321 297 q 244 378 268 350 q 195 452 213 413 q 160 533 178 492 q 142 578 153 553 q 134 565 138 569 q 131 554 131 560 q 121 422 124 488 q 115 289 118 356 q 113 224 114 257 q 110 160 113 192 q 107 113 108 136 q 104 65 106 89 q 101 53 103 58 q 96 40 99 47 q 76 44 85 43 q 61 50 68 46 q 50 63 54 54 q 40 79 46 72 q 0 125 29 103 q -1 196 -1 160 q 1 268 -1 232 q 4 327 4 297 q 6 385 4 357 q 8 419 7 403 q 13 453 10 436 l 13 560 q 10 572 13 567 q 10 583 8 578 q 13 654 18 619 q 8 724 8 689 q 11 812 10 768 q 14 900 13 856 q 16 911 14 907 q 19 922 18 915 m 572 821 q 497 748 531 788 q 432 668 464 708 q 380 594 404 632 q 340 508 356 557 q 348 514 346 513 q 351 517 350 515 q 447 654 397 588 q 553 785 497 721 q 565 801 560 792 q 572 821 571 810 z "},"n":{"ha":717,"x_min":-6,"x_max":643,"o":"m 40 813 q 65 816 54 815 q 88 810 76 817 q 115 803 101 804 q 143 799 129 801 q 156 790 151 796 q 187 757 171 774 q 214 717 203 740 q 277 582 246 650 q 338 444 308 514 q 367 371 354 408 q 396 296 381 333 q 409 265 401 281 q 424 235 417 250 q 432 219 426 226 q 450 211 438 213 q 460 230 456 221 q 467 250 464 239 q 481 335 474 293 q 490 421 488 378 q 499 551 496 488 q 500 679 503 614 q 489 775 497 728 q 469 869 481 822 q 458 908 463 889 q 457 946 453 926 q 482 949 472 949 q 500 948 492 950 q 516 941 508 946 q 535 926 524 936 q 549 922 540 919 q 565 926 557 924 q 580 930 574 929 q 590 922 586 931 q 599 904 593 911 q 609 867 606 890 q 615 819 613 844 q 617 771 617 794 q 618 731 617 747 q 630 606 624 668 q 633 481 636 544 q 632 433 633 457 q 639 386 631 410 q 642 362 642 375 q 642 333 643 349 q 639 247 640 290 q 635 161 638 204 q 617 76 632 117 q 574 0 603 36 q 538 3 554 -1 q 504 21 521 7 q 475 38 490 32 q 444 56 460 44 q 418 78 431 67 q 393 101 406 89 q 349 147 367 124 q 320 183 333 165 q 293 222 307 201 q 242 307 265 263 q 226 347 231 328 q 224 365 225 357 q 217 381 224 374 q 201 372 206 379 q 194 357 197 364 q 169 218 179 285 q 163 169 167 194 q 154 119 158 144 q 151 101 153 110 q 146 83 150 92 q 130 51 139 68 q 111 19 121 35 q 85 40 94 32 q 69 55 75 47 q 61 72 64 63 q 57 93 58 81 q -1 189 -6 117 q 8 288 4 238 q 18 386 13 338 q 32 522 29 454 q 35 657 35 590 q 33 697 35 676 q 31 735 32 717 q 40 813 26 774 m 579 63 q 569 59 574 60 q 563 56 564 58 q 561 45 561 50 q 560 35 561 40 q 568 32 560 32 q 573 39 571 35 q 578 49 575 43 q 578 53 579 50 q 579 63 578 56 z "},"o":{"ha":624,"x_min":-10,"x_max":579,"o":"m 411 96 q 328 35 376 54 q 232 40 281 17 q 184 66 207 51 q 139 97 161 81 q 69 166 99 126 q 15 250 39 206 q 1 289 4 269 q -4 328 -3 308 q -8 451 -10 390 q 13 575 -6 513 q 28 640 19 607 q 36 710 38 674 q 91 842 56 783 q 193 936 126 900 q 249 953 221 951 q 304 946 276 954 q 437 870 383 922 q 515 731 490 818 q 522 697 519 714 q 531 664 525 679 q 535 645 533 653 q 547 631 538 638 q 571 592 567 615 q 576 546 575 569 q 573 479 579 513 q 563 414 567 446 q 517 269 550 336 q 436 147 485 203 q 420 128 428 136 q 406 110 413 119 q 390 96 399 103 q 375 82 382 89 q 379 75 376 78 q 395 85 388 81 q 411 96 403 90 m 394 764 q 334 760 360 774 q 288 728 308 747 q 231 662 256 697 q 192 583 207 626 q 185 556 188 569 q 189 529 182 543 q 192 508 192 521 q 196 485 193 496 q 164 464 174 478 q 151 426 154 450 q 144 404 149 415 q 136 374 140 393 q 133 403 135 393 q 132 422 132 413 q 121 383 125 403 q 119 343 117 363 q 123 289 121 315 q 139 239 125 263 q 157 222 149 228 q 178 219 165 217 q 247 244 217 226 q 301 297 278 261 q 353 387 331 342 q 393 485 376 432 q 418 622 418 554 q 394 764 418 690 m 517 408 q 522 406 519 406 q 528 404 524 406 q 545 501 543 453 q 544 600 547 549 q 530 590 532 597 q 528 575 528 583 q 529 556 528 565 q 529 539 531 547 q 519 476 518 507 q 514 415 519 446 q 517 408 514 411 m 493 324 q 480 281 490 300 q 469 235 469 263 q 503 301 493 268 q 519 371 513 335 q 495 356 504 361 q 482 347 486 351 q 477 339 478 343 q 475 329 476 335 q 483 326 479 328 q 493 324 488 325 m 440 242 q 382 169 404 210 q 416 201 403 181 q 440 242 429 221 z "},"p":{"ha":742,"x_min":-19,"x_max":715,"o":"m 83 1004 q 98 1012 90 1008 q 113 1019 106 1015 q 119 1012 115 1015 q 125 1001 122 1008 q 131 1007 128 1004 q 139 1014 135 1010 q 151 999 144 1007 q 164 982 157 992 q 188 988 175 985 q 213 996 200 992 q 255 1008 233 1003 q 303 1011 276 1014 q 311 1014 307 1011 q 321 1017 315 1017 q 446 1006 383 1021 q 523 976 488 994 q 588 931 558 958 q 610 905 600 919 q 629 878 619 890 q 644 848 638 863 q 661 821 651 833 q 697 624 715 726 q 689 598 694 610 q 676 572 683 586 q 673 564 675 567 q 669 558 671 561 q 635 494 658 522 q 585 442 613 467 q 567 429 576 435 q 543 421 557 424 q 526 414 535 418 q 511 403 517 410 q 490 393 500 392 q 465 397 479 394 q 517 433 490 417 q 564 481 544 449 q 487 433 524 456 q 415 386 450 410 q 355 352 385 367 q 289 331 325 338 q 272 324 281 328 q 257 317 264 321 q 267 316 261 317 q 276 317 272 315 q 349 335 313 325 q 418 361 385 344 q 430 365 425 365 q 450 363 435 365 q 431 351 442 356 q 410 344 421 347 q 321 319 365 328 q 231 301 276 310 q 196 297 208 299 q 178 291 183 296 q 174 276 174 286 q 175 244 174 265 l 175 199 q 182 146 176 171 q 197 97 188 121 q 211 46 208 72 q 217 -4 214 19 q 207 -53 217 -26 l 185 -53 q 188 -42 186 -47 q 190 -31 189 -37 q 160 -28 171 -29 q 140 -24 149 -28 q 123 -14 132 -21 q 99 6 114 -7 q 66 39 82 21 q 35 74 50 57 q 20 101 24 88 q 17 129 17 115 q 17 219 17 174 q 18 308 17 264 q 21 355 18 332 q 28 401 24 378 q -2 412 8 403 q -19 432 -12 421 q -12 442 -17 438 q -10 450 -8 446 q -3 462 -10 460 q 8 468 4 464 q 18 475 13 472 q 32 482 24 478 q 35 508 33 494 q 38 535 36 522 q 48 654 43 596 q 58 772 53 713 q 60 812 61 792 q 60 853 60 832 l 60 867 q 83 1004 71 936 m 186 535 q 203 540 197 538 q 218 546 210 543 q 311 585 267 561 q 396 642 356 610 q 431 674 414 657 q 463 707 447 690 q 479 732 474 718 q 503 753 485 746 q 504 758 504 753 q 511 807 507 783 q 518 854 515 831 q 488 893 519 885 q 376 909 432 906 q 264 899 321 913 q 246 894 254 896 q 226 890 238 893 q 225 754 229 821 q 214 619 221 688 q 208 628 208 624 q 206 637 207 632 q 202 645 204 642 q 192 650 200 649 q 184 594 185 622 q 186 535 183 567 m 133 842 q 110 824 114 835 q 106 806 107 814 q 102 766 106 786 q 106 726 99 746 q 106 711 108 718 q 98 653 101 682 q 92 593 94 624 q 87 553 89 574 q 82 514 85 533 q 96 531 94 522 q 103 565 99 547 q 110 600 107 582 q 119 694 114 647 q 126 788 124 740 q 129 814 128 801 q 133 842 131 826 m 306 961 q 270 970 283 969 q 233 964 257 971 q 217 958 224 961 q 206 946 210 954 q 242 943 225 933 q 265 951 253 950 q 292 954 278 953 q 297 956 294 954 q 306 961 299 958 m 81 263 q 84 291 83 276 q 78 318 85 306 q 74 291 75 306 q 81 263 72 276 z "},"q":{"ha":733,"x_min":-6,"x_max":696,"o":"m 501 118 q 526 84 514 101 q 549 49 538 67 q 560 24 560 38 q 563 13 560 17 q 568 3 567 8 q 585 -35 578 -17 q 600 -74 593 -54 q 601 -77 603 -75 q 600 -81 600 -79 q 588 -87 594 -87 q 574 -83 581 -86 q 552 -69 563 -78 q 532 -51 542 -61 q 484 9 506 -22 q 438 71 463 40 q 419 61 428 67 q 401 53 410 56 q 384 46 393 49 q 367 39 375 43 q 333 28 350 29 q 299 21 315 28 q 282 28 290 28 q 265 29 274 29 q 249 31 257 29 q 233 40 240 32 q 224 44 231 43 q 213 46 218 44 q 194 54 201 49 q 175 67 186 60 q 141 92 157 78 q 110 121 125 106 q 72 163 89 140 q 40 210 56 185 q 19 252 26 229 q 1 299 11 275 q -5 331 -6 313 q -4 365 -4 349 q -3 430 -4 397 q -1 494 -3 463 q 1 517 -1 506 q 7 540 4 529 q 28 617 18 579 q 53 693 38 656 q 100 788 72 742 q 165 872 128 835 q 204 904 183 893 q 253 933 229 919 q 304 957 278 946 q 357 973 329 969 q 413 967 385 976 q 467 939 442 956 q 519 907 493 922 q 541 887 532 899 q 560 863 550 875 q 582 847 567 851 q 608 833 597 842 q 663 765 644 804 q 689 683 682 726 q 694 599 696 640 q 688 524 693 557 q 675 447 681 483 q 658 372 669 410 q 619 277 643 321 q 565 190 594 233 q 534 155 550 172 q 501 118 518 138 m 539 365 q 533 373 536 368 q 526 385 531 378 q 523 370 524 375 q 522 361 522 365 q 514 356 515 357 q 501 336 507 346 q 492 315 496 326 q 492 301 492 315 q 510 325 503 315 q 528 346 518 335 q 521 317 524 338 q 542 347 536 332 q 551 382 549 363 q 544 372 547 376 q 539 365 542 368 m 364 300 q 373 308 369 306 q 379 313 376 310 q 437 397 411 353 q 479 489 463 440 q 489 514 483 506 q 503 554 500 533 q 508 597 507 575 q 510 622 510 610 q 514 649 511 635 q 510 695 517 672 q 497 740 504 718 q 464 738 482 742 q 428 728 446 735 q 394 711 410 721 q 368 692 378 701 q 358 664 358 678 q 353 638 358 649 q 336 624 349 628 q 328 632 332 628 q 321 642 324 636 q 309 667 314 653 q 299 693 304 681 q 281 681 288 685 q 283 664 282 672 q 286 649 283 656 q 272 663 276 654 q 261 674 268 671 q 245 685 251 676 q 232 700 239 693 q 215 674 225 692 q 195 635 206 656 q 176 592 185 614 q 164 556 168 571 q 265 432 219 499 q 364 300 311 365 m 142 467 q 134 437 135 453 q 118 411 133 421 q 117 404 119 411 q 111 351 115 376 q 117 299 107 326 q 117 294 118 296 q 117 289 117 292 q 118 260 113 274 q 129 233 124 247 q 146 213 136 222 q 167 201 156 204 q 240 207 207 194 q 304 246 274 219 q 276 292 299 258 q 226 362 253 325 q 174 429 199 399 q 142 467 150 460 m 147 628 q 160 651 158 644 q 154 674 161 657 q 146 651 147 663 q 147 628 144 639 m 324 838 q 339 840 333 839 q 349 844 344 842 q 356 850 353 846 q 365 861 360 854 q 342 855 353 858 q 324 838 331 851 m 325 142 q 349 149 340 142 q 367 169 357 157 q 342 160 350 167 q 325 142 335 153 m 289 68 q 311 75 303 57 q 299 72 304 72 q 289 68 294 71 m 86 372 q 92 385 92 379 q 86 400 93 392 l 86 385 l 86 372 m 313 715 l 313 732 l 308 732 l 308 715 l 313 715 z "},"r":{"ha":854,"x_min":-47,"x_max":813,"o":"m 100 -8 q 78 24 88 10 q 60 54 69 38 l 60 83 q 44 85 51 85 q 26 86 36 86 q 28 144 28 115 q 31 200 28 172 q 38 324 35 263 q 44 447 42 385 q 51 581 49 514 q 50 717 53 647 q 46 751 49 733 q 40 786 43 769 q 26 790 33 790 q 13 788 19 790 q 1 784 7 786 q -11 783 -6 782 q -24 791 -18 786 q -36 799 -29 796 q -25 846 -47 831 q 1 874 -8 857 q 22 907 11 890 q 31 935 29 919 q 38 967 33 951 q 47 964 42 965 q 53 964 51 963 q 62 975 57 971 q 74 975 67 979 q 80 965 76 971 q 86 956 83 960 q 90 947 89 950 q 93 939 90 943 q 109 949 101 946 q 125 957 117 951 q 150 938 136 942 q 179 938 164 935 q 213 944 197 942 q 249 950 229 947 q 360 959 304 957 q 471 954 415 961 q 528 939 499 949 q 586 921 557 929 q 619 903 603 914 q 651 886 636 893 q 684 862 671 875 q 706 826 697 849 q 738 753 721 790 q 769 681 754 717 q 777 641 776 661 q 775 600 778 621 q 762 558 772 578 q 740 518 751 538 q 718 485 729 500 q 689 464 707 471 q 679 458 683 463 q 672 449 675 453 q 667 442 669 446 q 661 438 664 439 q 615 415 636 432 q 571 386 594 397 q 526 365 549 375 q 479 343 503 356 q 488 336 485 340 q 493 329 490 332 q 583 297 538 310 q 678 281 629 283 q 705 274 692 279 q 733 265 718 269 q 739 251 733 265 q 722 247 729 249 q 708 244 715 246 q 734 228 719 231 q 767 218 749 225 q 757 213 763 215 q 747 208 751 211 q 748 206 747 207 q 749 204 749 206 q 767 201 758 201 q 788 200 776 201 q 797 171 792 185 q 807 142 801 157 l 797 132 q 800 122 797 125 q 808 113 803 118 q 810 100 813 107 q 801 90 806 96 q 793 81 797 83 q 771 75 782 78 q 749 72 760 72 q 633 88 688 71 q 526 136 579 106 q 514 143 522 138 q 418 196 461 163 q 331 264 375 229 q 311 278 321 271 q 290 293 301 285 q 232 317 264 317 q 205 316 217 315 q 179 317 193 317 q 164 310 168 317 q 158 292 160 303 q 151 232 154 263 q 142 174 147 201 q 131 104 136 138 q 118 36 125 71 q 111 15 115 26 q 100 -8 107 4 m 519 508 q 500 504 508 508 q 488 485 492 500 q 521 504 504 492 q 540 511 532 507 q 560 526 549 515 q 535 519 543 524 q 519 508 526 515 m 190 542 q 203 540 197 540 q 211 539 208 540 q 306 547 260 539 q 399 571 353 554 q 467 599 435 582 q 532 635 500 617 q 578 673 560 650 q 617 721 596 696 q 624 733 621 726 q 629 749 626 740 q 631 776 635 767 q 611 788 628 785 q 475 821 542 813 q 411 829 443 828 q 347 832 379 831 q 282 833 314 833 q 218 832 250 832 q 200 814 201 832 q 213 794 208 801 q 219 780 218 786 q 218 765 219 774 q 213 743 217 757 q 208 717 210 729 q 207 690 207 704 q 190 542 197 621 m 664 601 q 671 594 667 600 q 677 606 674 600 q 683 618 681 613 q 678 621 678 621 q 672 613 675 617 q 664 601 668 608 z "},"s":{"ha":619,"x_min":-83,"x_max":579,"o":"m 142 233 q 146 221 144 226 q 150 206 147 215 q 163 215 160 215 q 180 212 172 213 q 190 197 188 211 q 207 178 197 182 q 229 175 217 174 q 322 202 278 182 q 403 272 367 222 q 415 292 410 281 q 419 321 421 303 q 358 331 389 328 q 276 329 318 333 q 190 319 233 325 q 128 319 160 314 q 68 343 97 324 q 24 374 46 357 q -12 417 3 392 q -39 453 -25 436 q -65 490 -53 471 q -81 539 -81 510 q -72 610 -83 578 q -40 671 -60 643 q 54 774 4 729 q 158 857 104 818 q 180 870 169 864 q 201 885 190 876 q 268 928 233 913 q 339 956 303 944 q 410 960 375 967 q 478 940 444 954 q 515 912 500 932 q 543 871 529 892 q 555 847 550 860 q 565 819 560 833 q 573 760 579 786 q 539 711 567 735 q 540 728 539 719 q 540 747 540 736 q 528 735 533 740 q 521 728 524 731 q 517 730 519 729 q 514 732 514 731 q 518 755 517 743 q 519 778 519 767 q 492 815 521 818 q 436 805 463 811 q 383 779 410 799 q 318 733 351 756 q 250 697 285 710 q 238 690 244 697 q 222 672 235 688 q 191 635 208 657 q 156 588 174 613 q 127 541 139 563 q 113 506 115 519 q 122 492 110 492 q 219 497 171 493 q 314 499 268 501 q 400 481 360 496 q 474 432 440 467 q 503 388 493 413 q 525 335 514 363 q 532 317 528 326 q 540 300 536 307 q 561 238 558 269 q 546 174 564 206 q 524 137 536 154 q 499 103 513 119 q 432 40 467 68 q 353 6 397 13 q 276 3 313 -3 q 207 44 239 8 q 178 74 193 60 q 150 103 164 88 q 126 158 131 129 q 129 218 122 186 q 134 225 131 222 q 142 233 138 228 z "},"t":{"ha":532,"x_min":-150,"x_max":564,"o":"m 211 394 q 205 374 208 383 q 201 356 201 365 q 198 327 200 340 q 189 299 196 314 q 184 267 183 285 q 186 233 185 249 q 190 200 188 217 q 194 168 192 183 q 199 162 196 165 q 204 151 201 158 q 209 161 207 158 q 211 167 211 164 q 212 175 213 171 q 211 186 211 179 q 216 182 214 183 q 219 178 218 181 q 222 166 221 171 q 225 156 222 161 q 229 152 226 153 q 235 149 232 151 q 231 144 232 146 q 226 139 229 142 l 226 133 l 226 131 q 255 71 243 101 q 282 10 267 40 q 283 -2 285 4 q 279 -14 281 -8 q 264 -12 268 -17 q 257 -1 260 -8 q 249 13 253 6 q 242 28 246 21 q 233 33 238 31 q 225 35 228 36 q 213 27 218 31 q 200 29 208 24 q 176 45 189 36 q 153 65 164 54 q 138 82 143 72 q 126 101 133 92 q 106 147 111 122 q 100 196 101 171 q 108 474 92 333 q 117 537 115 506 q 122 599 119 568 q 126 632 124 615 q 132 664 129 649 q 135 692 133 679 q 138 717 136 706 q 110 728 124 729 q 82 724 96 726 q 28 721 54 719 q -25 721 1 722 q -72 734 -51 721 q -112 763 -93 747 q -119 778 -117 769 q -125 794 -121 786 q -147 800 -129 797 q -149 824 -149 811 q -150 850 -149 836 q 6 883 -74 876 q 167 896 85 890 q 176 906 171 900 q 188 918 182 911 q 194 917 192 917 q 199 915 196 917 q 238 896 218 901 q 282 889 258 890 q 383 876 335 888 q 481 843 432 864 q 511 818 504 833 q 514 775 518 803 q 514 763 513 769 q 515 750 515 756 q 544 742 533 746 q 559 733 554 739 q 564 720 564 728 q 563 700 564 713 q 521 689 542 689 q 476 693 500 689 q 390 706 433 701 q 307 717 347 710 q 295 718 300 718 q 283 718 290 718 q 277 680 276 699 q 264 642 278 661 q 265 674 265 660 q 267 701 265 689 q 263 703 265 703 q 258 666 260 683 q 256 631 257 649 q 254 616 253 624 q 258 601 256 608 q 264 538 269 569 q 250 476 258 507 q 248 475 249 475 q 246 474 247 475 l 246 522 q 234 488 235 501 q 243 453 233 475 q 247 436 246 446 q 247 417 247 426 q 246 402 247 410 q 243 385 244 394 q 240 406 242 396 q 239 431 239 417 q 227 422 232 426 q 215 413 222 417 q 217 456 217 436 q 221 501 218 476 q 208 474 207 488 q 207 446 208 460 q 206 420 204 433 q 211 393 208 407 l 211 394 m 122 228 q 132 351 128 290 q 142 472 136 411 q 158 593 149 535 q 168 714 167 651 q 160 682 164 697 q 153 651 156 667 q 135 544 143 597 q 119 439 128 492 q 113 404 117 421 q 108 368 108 388 q 108 312 107 340 q 113 254 110 283 q 116 242 113 249 q 122 228 119 235 m 207 311 q 222 304 215 307 q 236 299 229 301 q 235 300 235 301 q 236 296 236 299 q 233 272 235 276 q 219 251 231 267 q 214 281 217 267 q 207 311 211 294 m 211 393 q 222 371 218 382 q 218 346 225 360 q 211 369 214 357 q 211 394 208 381 l 211 393 z "},"u":{"ha":657,"x_min":-18,"x_max":604,"o":"m 124 933 q 129 890 128 910 q 144 909 138 901 q 157 924 151 917 q 190 915 174 917 q 193 897 192 904 q 204 885 194 890 q 233 815 239 858 q 225 760 229 788 q 217 704 221 732 q 196 601 206 653 q 174 499 186 550 q 158 383 161 440 q 154 267 156 326 q 155 248 153 253 q 164 226 157 243 q 185 229 175 224 q 206 242 196 235 q 246 272 226 257 q 282 304 265 288 q 301 328 293 315 q 317 351 308 340 q 332 374 324 367 q 347 387 340 381 q 354 408 354 393 q 361 426 354 417 q 374 443 368 436 q 398 502 394 471 q 403 565 401 533 q 403 590 404 578 q 400 617 401 603 q 392 653 397 636 q 390 692 388 671 q 389 729 393 711 q 382 768 385 747 q 374 793 379 782 q 353 810 368 804 q 368 838 360 829 q 383 853 372 847 q 405 851 396 857 q 413 828 414 844 q 410 808 411 818 q 417 786 410 797 q 424 804 421 794 q 432 822 428 814 q 443 835 436 831 q 463 839 450 840 q 486 806 474 822 q 538 719 510 761 q 547 699 544 708 q 546 676 550 689 q 547 663 544 671 q 551 646 549 654 q 571 599 561 622 q 588 551 581 575 q 601 478 599 515 q 593 404 604 442 q 576 355 585 379 q 561 307 568 331 q 558 302 560 304 q 557 297 557 300 q 544 243 560 265 q 514 200 529 221 q 501 184 507 192 q 492 168 494 176 q 442 97 471 128 q 379 43 414 67 q 273 3 321 3 q 172 38 225 3 q 98 102 132 65 q 33 179 64 139 q -6 267 6 217 q -17 375 -17 318 q -9 492 -18 432 q 13 610 0 553 q 41 716 26 667 q 68 801 56 765 q 85 849 76 825 q 101 896 93 872 q 111 911 106 903 q 124 933 117 919 m 256 222 q 308 268 281 236 q 359 338 336 300 q 397 414 382 376 q 410 476 411 451 q 392 441 400 457 q 381 410 385 425 q 363 374 374 390 q 340 342 353 358 q 327 328 335 335 q 317 315 319 322 q 290 272 307 290 q 260 232 274 253 q 256 222 258 232 m 160 874 q 140 835 144 857 q 131 793 136 814 q 151 831 140 813 q 160 874 161 850 z "},"v":{"ha":636,"x_min":1,"x_max":643,"o":"m 315 425 q 305 424 310 424 q 293 422 300 424 q 342 533 315 481 q 388 644 368 586 q 422 760 407 701 q 453 878 436 818 q 441 875 446 875 q 431 874 436 875 q 440 915 425 897 q 456 935 449 925 q 468 960 464 944 q 475 973 471 968 q 488 975 479 978 q 497 963 499 972 q 493 947 494 954 l 493 943 q 504 942 499 942 q 519 939 510 942 q 526 953 522 944 q 538 974 531 961 q 546 954 543 961 q 551 940 549 947 q 562 942 557 942 q 574 943 567 942 q 592 895 583 919 q 610 844 600 871 q 635 827 626 839 q 639 792 643 815 q 632 740 636 765 q 621 690 628 714 q 590 597 606 643 q 557 506 575 551 q 546 479 551 492 q 535 453 540 467 q 525 432 529 442 q 519 411 521 422 q 493 313 510 360 q 457 219 476 265 q 411 121 435 167 q 363 48 390 81 q 296 -6 335 15 q 250 -17 272 -19 q 207 0 228 -15 q 166 31 186 15 q 126 64 146 47 q 103 89 114 75 q 81 117 92 103 q 55 153 67 135 q 31 189 43 171 q 8 244 14 215 q 3 304 3 274 q 1 459 1 382 q 6 614 1 536 q 13 685 7 650 q 25 756 19 721 q 31 788 28 772 q 36 821 33 804 q 44 819 40 819 q 51 818 47 819 q 57 829 54 824 q 64 844 60 835 q 66 812 65 826 q 68 782 67 797 q 72 793 72 788 q 73 804 72 799 q 76 815 74 810 q 86 822 79 819 q 91 809 89 815 q 96 797 93 803 q 100 796 96 796 q 119 794 114 806 q 142 751 131 772 q 154 703 153 729 q 157 677 154 690 q 163 653 160 664 q 161 565 163 608 q 158 481 160 522 q 154 385 157 432 q 154 290 151 339 q 153 273 154 281 q 153 258 153 265 q 153 246 153 251 q 154 233 154 240 q 174 243 169 238 q 230 315 203 279 q 281 392 257 351 q 288 390 285 390 q 296 388 292 389 q 291 374 293 381 q 285 360 289 367 q 263 316 274 338 q 240 274 251 294 q 236 265 238 269 q 232 250 235 260 q 267 297 249 268 q 301 356 285 325 q 329 413 318 386 q 343 456 340 440 q 315 425 329 443 m 356 108 q 352 113 353 111 q 350 115 351 114 q 344 107 344 107 q 341 101 342 104 q 336 92 340 99 q 344 97 343 94 q 349 100 346 99 q 356 108 350 103 z "},"w":{"ha":896,"x_min":-8,"x_max":885,"o":"m 700 26 q 685 21 693 24 q 671 26 678 18 q 669 27 669 26 q 667 28 669 28 q 613 53 635 33 q 569 93 592 72 q 528 133 549 114 q 492 176 508 153 q 435 265 460 219 q 401 364 411 311 q 392 393 397 379 q 385 421 388 407 q 370 419 374 424 q 364 407 367 414 q 344 354 354 381 q 325 300 333 328 q 287 201 308 250 q 243 103 265 151 q 235 90 240 96 q 225 76 229 83 q 210 57 218 67 q 194 38 203 47 q 174 19 183 22 q 150 24 165 17 q 117 42 133 32 q 90 72 100 51 q 77 91 86 82 q 53 99 68 100 q 38 110 43 99 q 19 138 26 124 q -1 165 11 153 q -6 176 -4 168 q -7 192 -7 185 q -8 308 -7 250 q -1 424 -8 365 q 4 482 3 453 q 10 540 6 511 q 16 601 13 572 q 24 661 19 631 q 32 721 28 692 q 42 781 36 750 q 51 809 46 806 q 85 807 57 813 q 92 782 92 796 q 107 761 93 768 q 113 749 113 758 q 114 733 113 740 q 108 710 106 722 q 114 686 111 699 l 114 735 q 123 710 122 724 q 124 682 124 697 q 119 556 121 619 q 114 431 117 493 q 113 397 113 413 q 117 363 114 381 q 138 399 124 381 q 151 418 146 407 q 164 440 157 429 q 210 540 188 490 q 257 640 233 590 q 292 711 275 676 q 325 782 308 746 q 338 801 331 793 q 360 807 344 808 q 366 807 363 806 q 374 810 369 808 q 386 794 379 799 q 404 800 393 790 q 411 792 408 797 q 417 781 414 786 q 424 775 419 776 q 439 779 429 774 q 440 765 440 771 q 442 753 439 758 q 449 743 444 747 q 456 735 453 739 q 468 693 472 715 q 492 674 489 682 q 486 646 496 667 q 473 597 474 622 q 476 546 472 572 q 483 474 481 510 q 492 401 486 438 q 501 347 494 374 q 514 293 507 319 q 542 227 524 257 q 585 169 561 197 q 597 158 588 165 q 610 153 600 156 q 616 163 613 158 q 622 172 619 167 q 642 229 633 200 q 651 289 650 258 q 656 310 654 300 q 658 331 657 319 q 660 374 660 353 q 663 417 660 396 q 669 492 665 454 q 678 568 674 529 q 690 653 685 611 q 700 738 694 694 q 705 812 703 774 q 710 888 707 850 q 711 892 710 890 q 715 899 713 894 q 753 900 735 906 q 790 888 771 894 q 792 865 792 876 q 794 838 793 853 q 808 856 804 849 q 813 863 811 858 q 821 876 815 868 q 817 837 818 854 q 814 803 815 819 q 814 781 813 792 q 824 760 815 769 l 822 761 q 809 718 815 739 q 796 676 803 697 q 794 664 794 669 q 792 651 793 658 q 782 522 786 586 q 772 392 778 458 q 769 343 769 368 q 765 294 768 318 q 760 262 764 278 q 757 229 757 246 q 753 197 756 214 q 749 164 751 179 q 741 134 744 149 q 735 104 738 119 q 726 81 732 92 q 710 58 721 69 q 698 44 703 51 q 700 25 693 36 l 700 26 m 731 553 q 726 512 728 532 q 721 471 724 492 q 717 426 718 449 q 710 385 717 404 q 708 347 704 365 q 710 311 711 329 q 721 369 717 340 q 728 429 725 399 q 735 490 732 458 q 731 553 739 521 m 336 531 q 312 492 321 513 q 296 449 303 471 q 336 531 326 488 m 660 163 q 669 178 668 174 q 669 196 671 182 q 661 181 663 185 q 660 163 660 176 m 674 243 q 681 265 681 260 q 674 281 681 269 l 674 243 m 83 401 q 86 385 86 390 l 90 385 l 90 401 l 83 401 m 685 69 q 675 76 675 76 q 670 74 672 75 q 665 71 668 72 q 668 65 667 68 q 672 63 669 63 q 685 69 674 63 m 285 414 q 283 415 283 414 q 281 415 282 415 q 276 406 278 410 q 272 399 274 403 q 274 397 274 399 q 278 394 275 396 q 281 404 279 400 q 285 414 282 408 m 700 25 q 733 47 719 32 q 751 82 747 61 q 763 142 758 113 q 775 204 768 172 q 783 226 778 217 q 782 195 782 211 q 781 160 782 179 q 794 186 794 172 q 800 211 794 200 q 808 235 806 222 q 813 258 810 247 q 808 197 814 226 q 793 136 803 167 q 785 119 790 126 q 775 103 779 111 q 761 72 768 88 q 747 40 754 56 q 715 14 738 19 q 706 17 708 13 q 700 26 703 21 l 700 25 m 797 333 q 799 382 797 343 q 803 472 800 421 q 812 577 807 522 q 825 676 817 632 q 849 745 833 725 q 871 767 864 765 q 867 728 871 761 q 856 648 863 694 q 842 547 850 601 q 826 447 833 493 q 810 368 818 400 q 797 333 803 336 m 824 760 q 825 779 824 775 q 833 794 826 783 q 822 761 842 774 l 824 760 m 882 760 q 883 763 882 761 q 884 760 883 761 q 885 757 885 760 q 884 751 885 754 q 882 742 883 749 l 882 760 z "},"x":{"ha":729,"x_min":-61,"x_max":697,"o":"m -21 135 q -34 109 -28 122 q -47 82 -40 96 q -58 85 -54 82 q -58 100 -61 89 q 3 239 -39 172 q 44 305 22 272 q 85 371 65 338 q 96 384 90 378 q 108 396 101 390 q 100 374 106 383 q 147 424 115 381 q 219 529 179 467 q 118 684 171 608 q 17 844 65 760 q 33 850 26 849 q 50 853 40 851 q 56 865 53 857 q 64 879 60 872 q 91 874 78 876 q 115 864 104 871 q 183 822 153 849 q 244 765 214 796 q 291 707 268 738 q 346 654 314 676 q 452 786 399 721 q 560 918 506 851 q 569 930 564 925 q 578 940 574 935 q 585 944 581 943 q 593 949 590 946 q 614 965 604 960 q 638 963 624 971 q 661 968 642 961 q 649 949 654 957 q 639 932 644 942 q 640 928 640 931 q 642 926 640 926 q 661 919 651 924 q 682 911 671 915 q 685 899 683 906 q 688 886 686 893 q 695 856 693 867 q 695 836 697 844 q 686 820 693 828 q 667 800 679 813 q 587 722 625 764 q 513 639 549 681 q 468 585 489 613 q 424 528 447 557 q 444 490 435 508 q 464 454 453 472 q 539 339 501 396 q 615 224 576 282 q 635 185 626 204 q 654 146 643 165 q 668 128 661 136 q 682 108 675 119 q 669 78 679 89 q 644 64 658 67 q 604 55 625 60 q 561 58 583 50 q 531 72 546 63 q 507 97 517 82 q 488 119 499 111 q 458 121 478 128 q 465 139 463 132 q 469 153 467 146 q 393 260 425 201 q 321 374 361 319 q 305 367 310 375 q 294 353 300 360 q 218 240 256 296 q 140 128 181 185 q 92 58 117 93 q 40 -7 68 24 q 33 -14 38 -11 q 22 -21 29 -17 q 24 -8 24 -14 q 25 3 24 -3 q 21 3 21 3 q -10 -8 -3 -12 q -18 29 -17 -3 l -18 78 q -30 61 -25 67 q -44 44 -35 56 q -32 94 -37 72 q -22 136 -26 115 q -7 171 -6 144 q -19 153 -14 161 q -21 135 -24 146 m 490 172 q 478 194 483 183 q 467 213 472 204 q 433 267 450 240 q 400 321 417 294 q 375 360 388 342 q 350 396 363 378 q 344 401 349 399 q 335 406 340 403 q 362 354 340 390 q 408 279 383 318 q 457 209 433 240 q 490 172 481 178 m 82 335 q 79 338 79 338 q 74 332 76 335 q 68 324 71 329 q 72 321 69 322 q 77 328 75 324 q 82 335 79 332 m 228 560 q 231 561 229 561 q 233 563 232 561 q 218 581 226 574 q 215 576 218 576 q 222 569 218 574 q 228 560 225 564 m 578 940 q 569 930 574 935 q 560 918 564 925 q 543 925 556 922 q 558 949 551 938 q 575 978 564 960 q 576 956 576 964 q 578 940 576 947 z "},"y":{"ha":504,"x_min":-103,"x_max":626,"o":"m -72 793 q -72 810 -71 801 q -76 829 -72 819 q -85 849 -83 839 q -90 874 -87 860 q -54 860 -71 868 q -25 836 -37 851 q -13 822 -18 829 q -1 808 -8 815 q 3 805 1 806 q 8 801 6 804 q -1 825 4 814 q -18 843 -6 836 q -24 861 -25 846 q -17 893 -22 876 q -7 923 -12 910 q 0 936 -1 936 q 12 920 1 936 q 34 886 22 904 q 56 853 46 868 q 65 839 65 839 q 99 792 85 815 q 129 743 114 769 q 188 649 160 694 q 247 557 215 603 q 252 547 249 551 q 258 535 256 542 q 270 548 265 543 q 278 558 275 553 q 340 667 313 610 q 403 776 371 722 q 476 878 436 829 q 492 896 483 888 q 507 915 500 904 q 531 933 517 931 q 560 936 544 935 q 572 933 565 936 q 581 925 578 929 q 595 904 589 915 q 610 882 601 893 q 615 839 626 863 q 606 813 610 825 q 593 788 601 800 l 507 646 q 438 528 472 586 q 369 413 404 471 q 368 376 360 392 q 361 365 365 365 q 333 344 342 358 q 317 315 324 331 q 247 178 282 246 q 176 43 213 111 q 158 -4 165 19 q 158 -56 151 -28 q 155 -64 158 -58 q 149 -71 151 -69 q 135 -75 142 -75 q 122 -76 128 -75 q 99 -50 111 -62 q 94 -17 88 -37 q 69 0 82 -7 q 38 -3 57 7 q 42 31 40 17 q 61 53 43 44 q 71 67 67 56 q 79 88 75 78 q 104 159 92 124 q 131 231 117 194 q 153 290 144 260 q 172 350 161 319 q 186 388 179 369 q 203 426 193 407 l 196 442 q 159 493 176 467 q 119 543 142 519 q 49 629 79 583 q -14 719 18 675 l -36 740 q -49 771 -39 758 q -72 793 -58 783 m 151 601 q 165 571 158 589 q 188 519 172 542 q 221 475 203 496 l 228 475 l 240 492 q 182 582 210 536 q 118 668 154 628 l 151 601 m 56 589 q 64 567 64 578 q 17 627 38 594 q -24 692 -4 660 q -44 724 -33 708 q -67 755 -56 739 q -87 789 -78 771 q -103 829 -97 807 l -72 793 q -59 765 -67 778 q -37 740 -51 751 q -21 710 -29 725 q -3 683 -12 696 l 56 589 m 293 489 q 298 485 296 486 q 303 481 300 483 q 329 519 318 497 q 351 561 340 542 q 375 603 364 582 q 388 653 386 625 q 340 570 364 611 q 293 489 317 529 m 174 256 q 216 321 203 292 q 231 374 229 350 l 169 260 q 158 241 163 251 q 150 215 153 231 q 167 235 163 226 q 174 256 171 244 m 117 46 q 133 73 126 58 q 139 107 139 88 q 123 78 128 93 q 117 46 118 64 m 444 804 q 431 774 426 793 q 439 787 435 781 q 449 801 443 793 q 458 826 463 807 q 451 815 456 819 q 444 804 447 811 m 140 183 q 136 184 138 183 q 133 185 135 185 l 124 160 q 125 158 124 158 l 128 158 q 134 171 131 165 q 140 183 138 176 m 490 856 l 488 861 q 476 846 483 853 q 482 843 479 843 l 490 856 m -37 742 q -36 740 -37 742 l -37 740 l -37 742 z "},"z":{"ha":754,"x_min":-33,"x_max":758,"o":"m -17 883 q 38 906 10 899 q 96 915 67 914 q 161 920 122 917 q 241 926 200 924 q 321 933 282 929 q 386 938 360 936 q 460 937 424 940 q 532 922 496 933 q 597 893 568 908 q 610 881 604 889 q 621 867 617 874 q 647 808 635 836 q 674 751 660 779 l 674 742 q 658 750 667 743 q 654 700 661 722 q 632 658 647 678 q 625 650 629 656 q 617 642 621 644 q 590 621 601 635 q 567 594 579 607 q 467 504 517 550 q 368 414 417 458 q 363 412 365 413 q 356 410 360 411 q 352 419 353 415 q 349 426 351 424 q 342 426 342 426 q 310 399 326 413 q 279 369 294 385 q 248 335 263 351 q 218 301 233 318 q 185 261 199 282 q 165 210 171 240 q 205 200 185 197 q 246 203 225 203 q 285 205 265 203 q 325 208 304 207 q 422 211 374 210 q 521 211 471 213 q 601 206 561 210 q 682 188 642 203 q 722 151 711 176 q 728 126 726 139 q 732 100 729 113 q 732 94 735 97 q 726 88 729 92 q 736 83 731 85 q 744 79 742 82 q 751 70 749 75 q 758 57 754 65 q 726 52 742 51 q 696 56 710 53 q 609 63 653 65 q 522 58 565 61 q 430 49 476 56 q 339 38 383 42 q 266 30 303 33 q 193 22 229 26 q 156 16 175 19 q 117 10 136 13 q 78 9 97 8 q 44 17 60 10 q 20 43 29 25 q 4 83 11 61 q -10 125 -3 104 q -26 160 -17 146 q -31 181 -33 169 q -25 203 -29 192 q -3 242 -14 222 q 21 279 7 261 q 96 372 56 328 q 178 458 136 415 q 440 721 311 588 q 475 756 458 738 q 503 801 492 775 q 482 807 488 804 q 400 808 447 808 q 303 807 353 808 q 207 803 254 806 q 125 797 160 800 q 95 794 110 794 q 64 793 81 794 q 31 799 46 790 q 4 822 15 808 q -17 847 -7 833 q -17 883 -26 860 z "},"€":{"ha":739,"x_min":-26,"x_max":685,"o":"m 85 442 q 60 449 69 446 q 42 458 51 451 q 11 482 28 465 q 17 492 14 488 q 24 503 19 496 q -8 528 8 513 q 24 540 10 535 q 53 547 38 544 q 76 553 67 550 q 89 561 85 556 q 94 576 93 567 q 97 604 96 586 q 81 610 90 611 q 60 610 71 610 q 12 624 28 611 q -17 669 -4 638 q -22 675 -19 672 q -26 685 -24 678 q 12 702 -10 700 q 53 707 33 704 q 92 713 72 710 q 131 721 111 717 q 156 770 144 746 q 179 819 168 794 q 222 881 197 854 q 275 931 247 907 q 319 963 296 947 q 364 994 342 978 q 442 1019 399 1021 q 518 988 486 1017 q 528 982 522 985 q 538 976 533 979 q 583 942 564 963 q 608 889 601 921 q 618 869 610 881 q 635 827 633 849 q 628 782 636 806 q 614 753 624 769 q 615 768 614 761 q 615 783 615 775 q 594 735 601 760 q 564 692 586 710 q 553 702 558 697 q 542 714 549 707 q 549 785 542 750 q 547 858 556 819 q 526 863 536 864 q 504 857 515 861 q 476 840 492 851 q 445 813 460 828 q 417 781 431 797 q 397 749 404 764 q 427 738 413 743 q 458 726 442 733 q 458 715 458 721 q 461 704 458 708 q 469 688 463 696 q 460 684 464 685 q 453 682 456 683 q 457 663 456 672 q 461 644 458 654 q 407 640 433 642 q 356 636 381 639 q 324 627 331 635 q 313 590 317 619 q 331 589 322 589 q 350 586 340 589 q 366 588 358 586 q 382 586 374 589 q 413 583 397 585 q 442 564 429 581 q 467 526 457 546 q 476 478 476 506 q 372 463 424 469 q 264 449 319 457 q 253 409 253 432 q 247 365 253 386 q 242 328 244 346 q 236 293 239 311 q 233 249 233 269 q 244 204 233 228 q 290 208 268 200 q 335 228 313 217 q 391 263 363 244 q 447 301 419 282 q 476 324 463 313 q 503 347 490 336 q 529 373 517 360 q 549 407 542 386 q 558 426 551 417 q 571 446 564 435 l 594 446 q 620 435 610 446 q 633 410 631 425 q 640 393 635 399 q 647 379 644 388 q 682 300 669 340 q 683 288 685 296 q 679 276 681 281 q 642 205 664 236 q 594 142 619 174 q 517 73 560 101 q 431 21 475 44 q 303 4 368 -8 q 281 11 292 7 q 261 22 269 15 q 215 63 242 46 q 174 108 189 81 q 167 115 171 113 q 161 121 164 118 q 99 205 121 158 q 78 310 76 251 q 86 419 79 365 q 85 431 86 426 q 85 442 85 435 m 572 271 q 605 302 596 289 q 613 332 614 315 q 590 303 601 317 q 572 271 578 290 m 467 190 q 453 191 460 190 q 449 178 446 192 q 459 185 454 182 q 467 190 464 188 z "},"¤":{"ha":669,"x_min":-12,"x_max":625,"o":"m 569 442 q 567 458 567 453 q 565 469 567 464 q 523 435 544 451 q 482 403 501 418 q 555 270 515 333 q 625 138 594 207 q 593 132 608 121 q 566 152 581 143 q 540 174 551 161 q 503 222 521 197 q 468 269 486 246 q 441 305 454 288 q 414 342 428 322 q 410 349 411 346 q 407 357 410 353 q 350 331 379 342 q 294 306 321 321 q 295 303 294 304 q 296 300 296 301 q 325 308 311 303 q 354 317 339 313 q 351 308 354 311 q 344 303 347 306 q 338 299 340 301 q 339 290 336 296 q 335 288 338 289 q 328 285 329 285 q 300 279 313 282 q 272 276 288 276 q 249 276 260 275 q 228 278 238 278 q 210 253 218 265 q 194 229 203 240 q 163 189 178 210 q 138 146 149 168 q 124 127 129 131 q 100 121 118 124 q 98 126 99 124 q 94 136 97 129 q 83 135 90 136 q 71 138 76 135 q 63 147 67 142 q 56 160 60 153 q 46 169 53 169 q 32 168 39 169 q 38 188 35 182 l 17 188 q 17 198 18 193 q 19 206 17 203 q 70 278 44 242 q 124 353 96 314 q 110 369 117 360 q 94 388 103 378 q 61 453 67 417 q 75 526 56 490 q 97 564 86 546 q 121 603 107 582 q 83 642 101 622 q 46 681 64 661 q 10 719 29 700 q -12 768 -8 738 l 8 775 l 8 808 q 45 801 28 804 q 76 779 63 799 q 125 718 100 747 q 178 657 150 689 q 206 675 193 667 q 232 692 219 683 q 270 712 251 703 q 313 721 289 721 q 349 722 331 724 q 383 717 367 719 q 413 717 401 713 q 435 738 425 721 q 446 753 440 746 q 458 768 451 760 q 485 798 472 783 q 524 811 499 813 q 533 817 528 811 q 546 826 539 822 q 558 806 551 815 q 554 783 565 797 q 567 774 561 778 q 579 767 574 771 q 578 735 582 749 q 566 708 574 721 q 549 685 558 696 q 531 664 539 675 q 549 624 540 643 q 569 585 558 604 q 581 564 575 574 q 592 543 586 554 q 593 496 607 522 q 582 472 588 485 q 569 442 576 460 m 444 567 q 424 575 433 574 q 403 575 414 576 q 354 564 379 568 q 306 553 329 560 q 275 542 290 549 q 247 526 260 536 q 217 481 225 507 q 201 428 210 456 q 242 428 225 421 q 272 443 258 436 q 365 495 319 468 q 444 567 410 522 m 515 394 q 528 411 522 403 q 540 429 533 419 q 542 407 544 411 q 515 394 539 403 z "},"™":{"ha":533,"x_min":-36,"x_max":482,"o":"m 410 667 q 392 675 396 669 q 386 692 388 681 l 386 694 q 381 708 379 701 q 386 722 383 715 q 392 751 389 738 q 400 781 396 765 l 418 861 q 421 882 421 875 q 401 867 410 875 q 394 858 400 864 q 388 850 389 853 q 381 837 386 843 q 372 824 376 831 q 358 797 364 811 q 350 768 351 783 q 348 760 350 764 q 344 751 346 756 q 340 744 342 747 q 338 736 339 740 q 315 739 326 732 q 292 753 304 746 q 271 769 281 760 l 236 799 q 233 793 233 796 l 233 742 q 234 722 232 731 q 236 701 236 713 l 236 665 q 228 660 231 663 l 224 663 q 221 667 219 667 q 208 674 211 668 q 201 686 204 679 l 200 688 q 194 685 197 685 q 181 708 183 692 q 176 743 178 726 q 175 778 175 760 q 174 810 175 793 q 172 842 174 826 q 172 862 172 853 q 169 882 171 871 q 169 901 169 892 q 168 919 168 910 q 167 931 168 926 q 166 936 167 933 q 168 942 165 939 q 169 956 169 946 q 188 954 179 958 q 204 950 196 950 l 221 931 q 222 928 222 929 l 246 890 q 251 878 249 883 q 256 868 253 874 q 260 858 257 867 q 283 814 269 838 q 289 806 283 811 q 294 814 292 808 q 306 833 300 824 q 321 849 313 842 q 326 854 324 851 q 331 860 328 857 q 340 869 335 865 q 349 878 344 874 q 363 892 356 885 q 376 907 369 899 q 411 942 393 925 q 436 964 419 953 q 440 961 440 964 l 446 958 q 459 951 453 956 q 467 940 465 947 q 469 932 467 935 q 477 924 476 928 q 478 915 478 919 q 478 899 478 907 q 481 882 479 890 q 478 850 482 868 l 469 817 q 463 782 467 799 q 454 747 458 765 q 451 737 451 742 q 450 726 451 732 q 442 718 447 722 q 445 713 442 715 q 443 707 449 710 q 449 690 446 696 l 453 674 q 447 672 447 674 q 444 658 444 664 l 442 649 q 428 646 439 638 q 421 652 425 649 q 414 658 417 656 l 410 667 m 68 963 q 65 963 65 963 q 63 964 64 964 l 4 964 q -11 967 -4 964 q -25 974 -18 969 q -26 976 -25 975 q -26 978 -26 976 q -28 981 -25 981 q -33 982 -31 981 q -33 990 -36 986 q -28 993 -31 992 q -22 996 -26 994 q 11 999 -6 997 q 44 1004 28 1001 q 75 1006 60 1006 q 106 1007 90 1007 q 129 1009 117 1008 q 153 1010 142 1010 l 197 1010 q 231 1000 217 1010 q 235 993 235 996 q 253 982 249 992 q 256 976 254 979 q 261 969 258 972 q 246 965 257 963 q 228 968 236 968 q 211 968 219 968 q 169 967 190 968 q 128 965 149 967 l 110 965 l 114 960 q 124 944 121 954 l 128 939 q 139 917 139 932 q 138 867 142 889 q 133 824 135 846 q 128 779 131 801 q 126 755 128 767 q 125 731 125 743 l 122 725 q 122 723 122 724 q 121 721 121 722 l 121 692 q 121 678 121 685 q 117 667 121 672 l 122 660 l 115 656 q 114 647 114 653 l 107 651 q 104 653 106 651 q 100 654 103 654 q 82 672 83 661 l 82 692 q 78 685 76 689 q 75 678 79 681 l 74 678 q 67 692 71 685 q 61 706 63 699 q 61 720 61 713 q 60 735 61 728 q 58 748 58 742 q 57 761 57 754 q 57 786 57 774 q 58 810 57 799 q 58 833 58 821 q 60 857 58 844 l 64 900 q 65 931 65 915 q 68 963 65 947 m 415 738 q 418 742 418 740 l 426 774 l 447 875 q 444 892 450 882 q 439 868 440 879 q 433 846 438 857 q 433 842 433 846 q 431 829 432 835 q 426 817 429 824 q 414 775 418 796 l 407 739 q 411 738 410 739 q 415 738 413 738 m 424 925 q 414 915 419 918 q 404 907 408 913 q 378 876 392 892 q 350 843 364 860 q 339 830 343 836 q 332 813 335 824 q 336 817 336 817 q 347 830 343 824 q 358 843 351 836 q 375 858 365 853 q 381 863 378 861 q 385 869 385 865 q 386 874 385 872 q 389 878 388 875 q 408 894 400 885 q 424 913 415 904 q 424 925 429 918 m 78 726 q 74 715 74 719 q 75 703 74 710 q 78 697 75 703 q 81 708 81 703 q 78 726 81 714 m 400 715 q 399 706 399 708 q 400 701 399 704 q 400 715 403 708 m 218 978 q 217 976 218 978 l 226 976 l 226 978 l 218 978 z "},"±":{"ha":629,"x_min":-40,"x_max":556,"o":"m 365 614 q 392 610 381 611 q 414 610 404 608 q 469 600 444 611 q 513 558 493 589 q 494 550 500 556 q 510 538 500 542 q 530 531 521 535 q 547 522 539 528 q 556 503 554 517 q 446 494 501 499 q 332 485 390 489 q 295 352 314 418 q 258 219 276 286 q 232 228 243 222 q 218 254 221 235 q 207 276 215 267 q 182 282 199 285 q 173 283 179 279 q 167 296 167 288 q 163 311 165 303 q 163 326 161 319 q 169 381 165 354 q 175 436 172 408 q 176 460 179 442 q 160 453 168 454 q 143 452 151 453 q 128 449 135 451 q 115 439 121 447 q 99 442 110 436 q 82 450 90 444 q 65 456 74 456 q 33 469 46 458 q 10 490 21 479 q 6 500 7 494 q 4 513 6 506 q -8 520 -1 515 q -22 531 -14 525 q -22 535 -21 533 q -21 539 -22 538 q 45 583 8 568 q 125 603 82 597 q 170 609 149 606 q 211 615 192 613 q 242 678 228 647 q 271 738 256 710 q 304 731 292 740 q 326 704 317 721 q 340 685 333 694 q 354 667 346 676 q 368 642 364 656 q 365 614 372 629 m 414 564 q 433 547 428 549 q 456 550 439 546 q 435 557 444 554 q 414 564 426 560 m 507 78 q 526 67 517 72 q 550 54 535 63 q 533 47 539 50 q 521 44 526 44 q 299 39 407 47 q 76 35 190 31 q 26 52 46 36 q -4 94 7 68 q -6 103 -7 100 q -14 106 -6 107 q -32 111 -29 103 q -37 129 -35 119 q -40 150 -40 140 q -28 167 -39 160 q -1 179 -15 174 q 25 186 13 185 q 148 192 88 189 q 271 188 208 194 q 342 181 307 183 q 413 175 376 178 q 482 146 456 171 q 494 137 489 142 q 506 129 499 132 q 516 117 515 122 q 510 97 517 113 q 508 93 508 94 q 507 89 508 92 l 507 78 z "},":":{"ha":347,"x_min":94,"x_max":257,"o":"m 232 603 q 247 567 239 583 q 256 538 254 551 q 249 513 257 525 q 221 492 242 501 q 190 483 207 485 q 158 486 174 482 q 128 498 142 490 q 107 515 114 506 q 97 540 99 524 q 97 575 94 557 q 106 609 100 593 q 122 631 113 625 q 181 622 154 649 q 193 610 189 614 q 202 606 197 607 q 213 606 207 606 q 232 603 219 606 m 232 257 q 247 222 239 238 q 256 192 254 206 q 249 167 257 179 q 221 146 242 156 q 190 138 207 139 q 158 140 174 136 q 128 152 142 144 q 107 169 114 160 q 97 194 99 178 q 97 229 94 211 q 106 263 100 247 q 122 285 113 279 q 181 276 154 303 q 193 265 189 268 q 202 260 197 261 q 213 260 207 260 q 232 257 219 260 z "},"’":{"ha":335,"x_min":69,"x_max":246,"o":"m 201 939 q 199 949 200 944 q 193 963 197 954 q 220 943 208 951 q 246 925 232 935 q 224 819 235 872 q 203 713 214 767 q 184 665 196 682 q 144 629 172 649 q 118 646 132 639 q 99 675 104 653 q 88 689 97 683 q 69 701 78 694 q 86 767 78 735 q 101 832 94 799 q 106 899 106 865 q 110 964 107 932 q 126 965 118 965 q 144 965 135 965 q 158 940 151 957 q 168 949 167 947 q 170 963 169 956 q 175 976 171 969 q 174 951 175 964 q 176 926 174 938 q 183 903 178 915 q 194 875 189 890 q 204 926 201 901 q 201 939 204 933 q 204 926 204 933 q 191 931 192 924 q 189 949 190 938 q 196 944 193 946 q 201 939 199 942 z "},"‘":{"ha":335,"x_min":69,"x_max":246,"o":"m 201 939 q 199 949 200 944 q 193 963 197 954 q 220 943 208 951 q 246 925 232 935 q 224 819 235 872 q 203 713 214 767 q 184 665 196 682 q 144 629 172 649 q 118 646 132 639 q 99 675 104 653 q 88 689 97 683 q 69 701 78 694 q 86 767 78 735 q 101 832 94 799 q 106 899 106 865 q 110 964 107 932 q 126 965 118 965 q 144 965 135 965 q 158 940 151 957 q 168 949 167 947 q 170 963 169 956 q 175 976 171 969 q 174 951 175 964 q 176 926 174 938 q 183 903 178 915 q 194 875 189 890 q 204 926 201 901 q 201 939 204 933 q 204 926 204 933 q 191 931 192 924 q 189 949 190 938 q 196 944 193 946 q 201 939 199 942 z "},"\"":{"ha":449,"x_min":64,"x_max":360,"o":"m 324 947 q 322 955 322 951 q 317 965 321 958 q 339 950 329 957 q 360 936 349 943 q 343 853 351 894 q 325 768 335 811 q 309 731 318 744 q 278 701 300 717 q 256 715 267 708 q 240 738 244 721 q 232 749 240 744 q 217 758 224 753 q 231 810 224 786 q 243 863 238 835 q 247 915 246 889 q 250 967 247 940 q 264 968 257 968 q 278 968 271 968 q 289 947 285 958 q 294 951 292 950 q 297 954 296 953 q 299 966 299 961 q 303 976 300 971 q 302 956 303 965 q 304 936 301 946 q 309 917 304 928 q 318 896 314 907 q 326 936 324 918 q 324 947 326 942 q 326 936 326 942 q 315 940 315 933 q 314 954 315 946 q 324 947 322 949 m 171 947 q 164 965 168 956 q 185 950 175 957 q 206 936 194 943 q 189 853 197 894 q 171 768 181 811 q 156 731 165 744 q 124 701 146 717 q 103 715 114 708 q 88 738 92 721 q 78 749 86 744 q 64 758 71 753 q 78 810 71 786 q 89 863 85 835 q 94 915 93 889 q 96 967 94 940 q 110 968 103 968 q 124 968 117 968 q 135 947 129 961 q 143 954 140 951 q 145 966 144 961 q 149 976 146 971 q 148 956 149 965 q 150 936 147 946 q 156 917 151 928 q 164 896 160 907 q 169 917 168 907 q 172 936 171 928 q 172 942 172 940 q 171 947 171 944 q 172 942 171 944 q 172 936 172 940 q 161 940 161 933 q 160 954 161 946 q 171 947 168 949 z "},"”":{"ha":449,"x_min":64,"x_max":360,"o":"m 324 947 q 322 955 322 951 q 317 965 321 958 q 339 950 329 957 q 360 936 349 943 q 343 853 351 894 q 325 768 335 811 q 309 731 318 744 q 278 701 300 717 q 256 715 267 708 q 240 738 244 721 q 232 749 240 744 q 217 758 224 753 q 231 810 224 786 q 243 863 238 835 q 247 915 246 889 q 250 967 247 940 q 264 968 257 968 q 278 968 271 968 q 289 947 285 958 q 294 951 292 950 q 297 954 296 953 q 299 966 299 961 q 303 976 300 971 q 302 956 303 965 q 304 936 301 946 q 309 917 304 928 q 318 896 314 907 q 326 936 324 918 q 324 947 326 942 q 326 936 326 942 q 315 940 315 933 q 314 954 315 946 q 324 947 322 949 m 171 947 q 164 965 168 956 q 185 950 175 957 q 206 936 194 943 q 189 853 197 894 q 171 768 181 811 q 156 731 165 744 q 124 701 146 717 q 103 715 114 708 q 88 738 92 721 q 78 749 86 744 q 64 758 71 753 q 78 810 71 786 q 89 863 85 835 q 94 915 93 889 q 96 967 94 940 q 110 968 103 968 q 124 968 117 968 q 135 947 129 961 q 143 954 140 951 q 145 966 144 961 q 149 976 146 971 q 148 956 149 965 q 150 936 147 946 q 156 917 151 928 q 164 896 160 907 q 169 917 168 907 q 172 936 171 928 q 172 942 172 940 q 171 947 171 944 q 172 942 171 944 q 172 936 172 940 q 161 940 161 933 q 160 954 161 946 q 171 947 168 949 z "},"“":{"ha":449,"x_min":64,"x_max":360,"o":"m 324 947 q 322 955 322 951 q 317 965 321 958 q 339 950 329 957 q 360 936 349 943 q 343 853 351 894 q 325 768 335 811 q 309 731 318 744 q 278 701 300 717 q 256 715 267 708 q 240 738 244 721 q 232 749 240 744 q 217 758 224 753 q 231 810 224 786 q 243 863 238 835 q 247 915 246 889 q 250 967 247 940 q 264 968 257 968 q 278 968 271 968 q 289 947 285 958 q 294 951 292 950 q 297 954 296 953 q 299 966 299 961 q 303 976 300 971 q 302 956 303 965 q 304 936 301 946 q 309 917 304 928 q 318 896 314 907 q 326 936 324 918 q 324 947 326 942 q 326 936 326 942 q 315 940 315 933 q 314 954 315 946 q 324 947 322 949 m 171 947 q 164 965 168 956 q 185 950 175 957 q 206 936 194 943 q 189 853 197 894 q 171 768 181 811 q 156 731 165 744 q 124 701 146 717 q 103 715 114 708 q 88 738 92 721 q 78 749 86 744 q 64 758 71 753 q 78 810 71 786 q 89 863 85 835 q 94 915 93 889 q 96 967 94 940 q 110 968 103 968 q 124 968 117 968 q 135 947 129 961 q 143 954 140 951 q 145 966 144 961 q 149 976 146 971 q 148 956 149 965 q 150 936 147 946 q 156 917 151 928 q 164 896 160 907 q 169 917 168 907 q 172 936 171 928 q 172 942 172 940 q 171 947 171 944 q 172 942 171 944 q 172 936 172 940 q 161 940 161 933 q 160 954 161 946 q 171 947 168 949 z "},"$":{"ha":651,"x_min":0,"x_max":617,"o":"m 375 1092 q 388 1076 381 1082 q 389 1060 394 1071 q 393 1057 392 1058 q 397 1053 397 1053 q 392 1024 399 1038 q 389 989 385 1010 q 403 1035 400 1013 q 415 1078 407 1058 q 428 1065 426 1074 q 429 1047 431 1057 q 425 1018 428 1032 q 419 989 422 1004 l 414 969 l 475 942 q 531 875 513 924 q 550 840 539 857 q 554 814 556 822 q 543 794 553 806 q 522 769 532 781 q 501 747 513 758 q 491 737 496 743 q 475 736 486 731 q 467 733 472 739 q 457 725 463 728 l 428 701 l 428 721 q 412 710 419 714 q 397 700 404 706 q 393 706 397 701 q 404 722 401 717 l 450 783 q 460 803 456 793 q 478 813 464 813 q 480 817 479 811 q 481 826 481 824 q 476 831 479 829 q 469 839 474 833 q 440 831 456 835 q 410 825 425 828 q 376 786 382 818 q 363 709 369 747 q 350 633 357 671 q 346 594 350 615 q 362 590 354 592 q 378 586 369 589 q 445 566 414 581 q 508 533 476 551 q 541 505 528 522 q 563 465 554 488 l 599 392 q 606 328 617 360 q 583 278 597 299 q 550 240 569 258 q 489 194 521 214 q 425 156 457 175 q 318 117 374 129 q 297 109 301 114 q 292 85 292 104 q 294 60 292 72 q 297 36 296 49 q 301 -21 301 7 q 299 -31 301 -28 q 286 -42 297 -33 q 249 -2 261 -26 q 229 54 236 22 l 243 42 q 240 56 242 50 q 239 67 239 61 q 240 76 239 71 q 246 85 240 81 l 249 28 q 257 38 254 33 q 260 49 260 42 q 258 69 260 57 q 251 101 256 81 q 209 98 231 96 q 167 96 188 100 q 117 100 139 90 q 72 125 94 110 q 34 161 50 140 q 3 204 18 182 q 1 213 0 207 q 4 222 1 219 q 11 233 7 229 q 19 242 15 238 q 62 238 38 236 q 112 244 86 239 q 164 258 138 249 q 213 278 190 267 q 220 365 217 321 q 226 454 224 410 q 217 458 221 457 q 208 461 213 460 q 165 474 185 464 q 125 497 146 485 q 76 540 101 513 q 53 563 65 551 q 31 590 40 574 q 10 653 11 621 q 21 717 10 685 q 54 776 33 751 q 99 825 75 801 q 169 881 133 857 q 247 921 206 906 q 290 932 271 931 q 325 951 314 936 q 342 990 336 967 q 358 1040 349 1015 q 375 1092 367 1065 m 457 429 q 381 451 418 444 q 326 453 344 457 q 322 422 324 440 q 318 386 319 404 q 316 353 317 368 q 317 331 315 339 q 359 348 332 333 q 414 385 386 363 q 438 403 425 393 q 457 429 450 413 m 274 744 q 213 686 242 715 q 163 615 185 657 q 207 612 186 613 q 249 614 228 611 q 264 677 257 646 q 274 744 271 708 m 310 875 q 274 865 286 872 q 250 842 261 857 l 310 875 m 204 808 q 182 799 189 808 q 169 774 175 789 q 187 792 178 783 q 204 808 196 800 m 233 335 q 231 316 231 321 q 235 294 232 311 q 236 315 235 306 q 233 335 238 325 z "}}}
